/* XPM */
static char * dialog_ok_apply_xpm[] = {
"48 48 272 2",
"  	c None",
". 	c #4F8E2B",
"+ 	c #7CB34B",
"@ 	c #D1F19E",
"# 	c #A8D375",
"$ 	c #5E9C37",
"% 	c #498A26",
"& 	c #C3E88F",
"* 	c #CFF68C",
"= 	c #D1F692",
"- 	c #D6F4A2",
"; 	c #A3D06E",
"> 	c #5B9B33",
", 	c #8AC055",
"' 	c #D4F69C",
") 	c #C1F271",
"! 	c #C1F270",
"~ 	c #C4F376",
"{ 	c #CFF591",
"] 	c #CFF09B",
"^ 	c #94C761",
"/ 	c #4B8E26",
"( 	c #4D9027",
"_ 	c #C5EC90",
": 	c #C3F27B",
"< 	c #BCF06C",
"[ 	c #C0F175",
"} 	c #CDF491",
"| 	c #AEDB79",
"1 	c #40831E",
"2 	c #8FC65B",
"3 	c #CBF28F",
"4 	c #B8EE67",
"5 	c #C4F181",
"6 	c #A3D46E",
"7 	c #52952A",
"8 	c #C4ED8D",
"9 	c #B8ED6D",
"0 	c #B3EC62",
"a 	c #B5ED66",
"b 	c #C8EF91",
"c 	c #5B9B31",
"d 	c #95CC5D",
"e 	c #C0EE80",
"f 	c #AFE95D",
"g 	c #BFED7D",
"h 	c #94C95E",
"i 	c #599B2B",
"j 	c #C1EC89",
"k 	c #AFE860",
"l 	c #ABE759",
"m 	c #BDE884",
"n 	c #4D9225",
"o 	c #388016",
"p 	c #99D05F",
"q 	c #B5E972",
"r 	c #A6E554",
"s 	c #B9EB79",
"t 	c #83BD4D",
"u 	c #5DA22E",
"v 	c #BBEB80",
"w 	c #A4E453",
"x 	c #A2E34F",
"y 	c #A8E55B",
"z 	c #B0E177",
"A 	c #438B1E",
"B 	c #398216",
"C 	c #9BD261",
"D 	c #ABE465",
"E 	c #9EE04C",
"F 	c #B4E775",
"G 	c #71B13F",
"H 	c #66AA33",
"I 	c #B4E678",
"J 	c #9BDD4B",
"K 	c #9ADD49",
"L 	c #A4E05A",
"M 	c #A1D768",
"N 	c #3B8316",
"O 	c #3B8317",
"P 	c #9DD562",
"Q 	c #A1DE5A",
"R 	c #96DA46",
"S 	c #97DA47",
"T 	c #AFE372",
"U 	c #64A633",
"V 	c #6DAF38",
"W 	c #AAE06D",
"X 	c #92D744",
"Y 	c #92D743",
"Z 	c #9EDC58",
"` 	c #90CA58",
" .	c #337C13",
"..	c #3E8618",
"+.	c #9FD664",
"@.	c #97D74D",
"#.	c #8FD440",
"$.	c #90D542",
"%.	c #A8DD6C",
"&.	c #549828",
"*.	c #71B23A",
"=.	c #A1DA62",
"-.	c #8BD13D",
";.	c #9AD756",
">.	c #81C04A",
",.	c #337D12",
"'.	c #519922",
").	c #337D10",
"!.	c #418A1A",
"~.	c #8DD043",
"{.	c #87CE3A",
"].	c #8ACF3F",
"^.	c #478D1D",
"/.	c #2C780D",
"(.	c #76B940",
"_.	c #9ED663",
":.	c #7EBF45",
"<.	c #3D8617",
"[.	c #75B63E",
"}.	c #95D354",
"|.	c #83CB37",
"1.	c #95D253",
"2.	c #72B33C",
"3.	c #60A530",
"4.	c #96D359",
"5.	c #82CA39",
"6.	c #92D153",
"7.	c #8CCA52",
"8.	c #4A931E",
"9.	c #468E1C",
"0.	c #97D25D",
"a.	c #82CA3A",
"b.	c #7FC935",
"c.	c #84CB3D",
"d.	c #93CF5A",
"e.	c #3B8417",
"f.	c #4A9220",
"g.	c #92CE58",
"h.	c #7FC838",
"i.	c #7BC632",
"j.	c #86CB44",
"k.	c #91CE57",
"l.	c #5AA228",
"m.	c #2A750C",
"n.	c #2B770E",
"o.	c #77BA3F",
"p.	c #89CC49",
"q.	c #8FCE51",
"r.	c #63A932",
"s.	c #3A8515",
"t.	c #85C44E",
"u.	c #7EC63A",
"v.	c #77C32F",
"w.	c #8FCD55",
"x.	c #68AD33",
"y.	c #317C0F",
"z.	c #49921D",
"A.	c #8FCE55",
"B.	c #79C431",
"C.	c #85C64E",
"D.	c #327C10",
"E.	c #2B780D",
"F.	c #73B73D",
"G.	c #80C640",
"H.	c #73C02C",
"I.	c #76C131",
"J.	c #88CA4C",
"K.	c #73B73C",
"L.	c #378312",
"M.	c #2D770C",
"N.	c #77BB40",
"O.	c #7FC53D",
"P.	c #549E25",
"Q.	c #2E7B0D",
"R.	c #7FC145",
"S.	c #7BC23A",
"T.	c #70BD29",
"U.	c #71BE2B",
"V.	c #80C541",
"W.	c #7DBF44",
"X.	c #438E19",
"Y.	c #50981F",
"Z.	c #86C74B",
"`.	c #71BD2A",
" +	c #79C136",
".+	c #78BA40",
"++	c #2D780D",
"@+	c #3D8816",
"#+	c #7BC13C",
"$+	c #6DBA27",
"%+	c #6CBA26",
"&+	c #76BF35",
"*+	c #82C348",
"=+	c #74BE32",
"-+	c #82C547",
";+	c #47911B",
">+	c #317C0E",
",+	c #6AB033",
"'+	c #7BC03F",
")+	c #6AB826",
"!+	c #68B723",
"~+	c #69B825",
"{+	c #73BC33",
"]+	c #69AF33",
"^+	c #287509",
"/+	c #2A730A",
"(+	c #56A026",
"_+	c #77BB3F",
":+	c #66B427",
"<+	c #62B221",
"[+	c #63B323",
"}+	c #77BD3F",
"|+	c #3C8815",
"1+	c #46931C",
"2+	c #71B73C",
"3+	c #64B22A",
"4+	c #5CAE1F",
"5+	c #69B431",
"6+	c #57A228",
"7+	c #388614",
"8+	c #65AD35",
"9+	c #62AF2E",
"0+	c #56A91E",
"a+	c #59AA22",
"b+	c #69B239",
"c+	c #2F7C0F",
"d+	c #2D7D0E",
"e+	c #5AA62E",
"f+	c #5EAC2F",
"g+	c #51A51D",
"h+	c #50A51C",
"i+	c #489520",
"j+	c #24740A",
"k+	c #4B9823",
"l+	c #5BA930",
"m+	c #4DA11E",
"n+	c #4AA01A",
"o+	c #4EA21F",
"p+	c #5AA730",
"q+	c #26740B",
"r+	c #1F6E07",
"s+	c #3C8D1B",
"t+	c #56A52F",
"u+	c #489E1E",
"v+	c #449C19",
"w+	c #53A42B",
"x+	c #398A18",
"y+	c #318313",
"z+	c #4E9E2B",
"A+	c #459B1F",
"B+	c #3E9717",
"C+	c #439A1D",
"D+	c #499A27",
"E+	c #1F6D07",
"F+	c #27780E",
"G+	c #449724",
"H+	c #429820",
"I+	c #399315",
"J+	c #479B26",
"K+	c #2D7E12",
"L+	c #1F6E09",
"M+	c #398E1D",
"N+	c #3E9420",
"O+	c #3A921B",
"P+	c #3A8E1E",
"Q+	c #196405",
"R+	c #196406",
"S+	c #2D8416",
"T+	c #388F1F",
"U+	c #20720D",
"V+	c #155B03",
"W+	c #166205",
"                                                                                                ",
"                                                                                                ",
"                                                                                                ",
"                                                                                                ",
"                                                                                                ",
"                                                                                                ",
"                                                                                                ",
"                                                                                                ",
"                                                                  .                             ",
"                                                                + @ # $                         ",
"                                                              % & * = - ; >                     ",
"                                                              , ' ) ! ~ { ] ^ /                 ",
"                                                            ( _ : < < < < [ } | 1               ",
"                                                            2 3 4 4 4 4 4 4 5 6                 ",
"                                                          7 8 9 0 0 0 0 0 a b c                 ",
"                                                          d e f f f f f f g h                   ",
"                                                        i j k l l l l l k m n                   ",
"                                                      o p q r r r r r r s t                     ",
"                                                      u v w x x x x x y z A                     ",
"                                                    B C D E E E E E E F G                       ",
"                                                    H I J K K K K K L M N                       ",
"                                                  O P Q R R R R R S T U                         ",
"                                                  V W X Y Y Y Y Y Z `  .                        ",
"                                                ..+.@.#.#.#.#.#.$.%.&.                          ",
"                                                *.=.-.-.-.-.-.-.;.>.                            ",
"                    ,.'.).                    !.P ~.{.{.{.{.{.].+.^.                            ",
"                  /.(._.:.<.                  [.}.|.|.|.|.|.|.1.2.                              ",
"                  3.4.5.6.7.8.              9.0.a.b.b.b.b.b.c.d.e.                              ",
"                f.g.h.i.i.j.k.l.m.        n.o.p.i.i.i.i.i.i.q.r.                                ",
"              s.t.u.v.v.v.v.u.w.x.y.      z.A.B.v.v.v.v.v.u.C.D.                                ",
"            E.F.G.H.H.H.H.H.H.I.J.K.L.  M.N.O.H.H.H.H.H.H.J.P.                                  ",
"            Q.R.S.T.T.T.T.T.T.T.U.V.W.X.Y.Z.`.T.T.T.T.T. +.+++                                  ",
"              @+o.#+$+%+%+%+%+%+%+%+&+*+*+=+%+%+%+%+%+$+-+;+                                    ",
"                >+,+'+)+!+!+!+!+!+!+!+~+)+!+!+!+!+!+!+{+]+^+                                    ",
"                  /+(+_+:+<+<+<+<+<+<+<+<+<+<+<+<+<+[+}+|+                                      ",
"                      1+2+3+4+4+4+4+4+4+4+4+4+4+4+4+5+6+                                        ",
"                        7+8+9+0+0+0+0+0+0+0+0+0+0+a+b+c+                                        ",
"                          d+e+f+g+h+h+h+h+h+h+h+h+f+i+                                          ",
"                            j+k+l+m+n+n+n+n+n+n+o+p+q+                                          ",
"                              r+s+t+u+v+v+v+v+v+w+x+                                            ",
"                                  y+z+A+B+B+B+C+D+E+                                            ",
"                                    F+G+H+I+I+J+K+                                              ",
"                                      L+M+N+O+P+Q+                                              ",
"                                        R+S+T+U+                                                ",
"                                          V+W+                                                  ",
"                                                                                                ",
"                                                                                                ",
"                                                                                                "};
