/* XPM */
static char * document_save_xpm[] = {
"48 48 135 2",
"  	c None",
". 	c #000000",
"+ 	c #000000",
"@ 	c #000000",
"# 	c #000000",
"$ 	c #000000",
"% 	c #000000",
"& 	c #646464",
"* 	c #636363",
"= 	c #4B4B4B",
"- 	c #767676",
"; 	c #787878",
"> 	c #797979",
", 	c #7B7B7B",
"' 	c #7C7C7C",
") 	c #7E7E7E",
"! 	c #808080",
"~ 	c #818181",
"{ 	c #838383",
"] 	c #878787",
"^ 	c #6F6F6F",
"/ 	c #6D6D6D",
"( 	c #6C6C6C",
"_ 	c #2C71B5",
": 	c #2C72B6",
"< 	c #2F75B6",
"[ 	c #3075B5",
"} 	c #3173A8",
"| 	c #327ACA",
"1 	c #327FD3",
"2 	c #3377B3",
"3 	c #3377B5",
"4 	c #337FD2",
"5 	c #337FD3",
"6 	c #3474A8",
"7 	c #3478B1",
"8 	c #3482D9",
"9 	c #3482DA",
"0 	c #3483DC",
"a 	c #3579B3",
"b 	c #3586DD",
"c 	c #3586DE",
"d 	c #3688E4",
"e 	c #377BB0",
"f 	c #3788D9",
"g 	c #3789DA",
"h 	c #387BB1",
"i 	c #388DE6",
"j 	c #3989D2",
"k 	c #3989D4",
"l 	c #3A80B3",
"m 	c #3B80B3",
"n 	c #3B91E7",
"o 	c #3C7EB2",
"p 	c #3C7FB2",
"q 	c #3D83B5",
"r 	c #3D8BCC",
"s 	c #3D8CCC",
"t 	c #3D96E7",
"u 	c #3E83B6",
"v 	c #4086B7",
"w 	c #419BE8",
"x 	c #429FE8",
"y 	c #437FAF",
"z 	c #4389B9",
"A 	c #45A4E9",
"B 	c #4686B6",
"C 	c #468CBC",
"D 	c #47A9E9",
"E 	c #4987B6",
"F 	c #498FBE",
"G 	c #4AADEA",
"H 	c #4B84B2",
"I 	c #4C92C0",
"J 	c #4DB2EA",
"K 	c #4F95C2",
"L 	c #4FB6EB",
"M 	c #52BBEB",
"N 	c #5398C4",
"O 	c #54C0EC",
"P 	c #569BC7",
"Q 	c #5791BD",
"R 	c #5A93BD",
"S 	c #5E9FCA",
"T 	c #5F92BA",
"U 	c #6695BD",
"V 	c #80A7C7",
"W 	c #86ABC9",
"X 	c #A3BDD2",
"Y 	c #A4BFD2",
"Z 	c #A6C0D4",
"` 	c #BBCCDA",
" .	c #BFD0DC",
"..	c #CDD7E0",
"+.	c #CFD9E0",
"@.	c #D8E0E7",
"#.	c #D9E0E7",
"$.	c #DADFE4",
"%.	c #DBDBDB",
"&.	c #DCDCDC",
"*.	c #DCE1E5",
"=.	c #DDDDDD",
"-.	c #DEDEDE",
";.	c #DEE4E9",
">.	c #DFDFDF",
",.	c #DFE5E9",
"'.	c #E0E0E0",
").	c #E1E1E1",
"!.	c #E1E4E6",
"~.	c #E2E2E2",
"{.	c #E3E3E3",
"].	c #E3E5E7",
"^.	c #E4E4E4",
"/.	c #E5E5E5",
"(.	c #E5E8EB",
"_.	c #E6E6E6",
":.	c #E7E7E7",
"<.	c #E8E8E8",
"[.	c #E8EBEC",
"}.	c #E9E9E9",
"|.	c #EAEAEA",
"1.	c #EAECEC",
"2.	c #EBEBEB",
"3.	c #EBEBEC",
"4.	c #ECECEC",
"5.	c #EDEDED",
"6.	c #EEEEEE",
"7.	c #EFEFEF",
"8.	c #F0F0F0",
"9.	c #F1F1F1",
"0.	c #F2F2F2",
"a.	c #F3F3F3",
"b.	c #F4F4F4",
"c.	c #F5F5F5",
"d.	c #FFFFFF",
"              ] ] ] ] ] ] ] ] ] ] ] ] ] ] ] ] ] ] ] ] ] ] ] ] ] ] ] ] ] ] ] ] ] ]               ",
"            { d.d.d.d.d.d.d.d.d.d.d.d.d.d.d.d.d.d.d.d.d.d.d.d.d.d.d.d.d.d.d.d.d.d.{             ",
"            ~ c.0.0.0.0.0.0.0.0.0.0.0.0.0.0.0.0.0.0.0.0.0.0.0.0.0.0.0.0.0.0.0.0.c.~             ",
"            ~ b.9.9.9.9.9.9.9.9.9.9.9.9.9.9.9.9.9.9.9.9.9.9.9.9.9.9.9.9.9.9.9.9.b.~             ",
"            ~ b.9.9.9.9.9.9.9.9.9.9.9.9.9.9.9.9.9.9.9.9.9.9.9.9.9.9.9.9.9.9.9.9.b.~             ",
"            ~ a.8.8.8.8.8.8.8.8.8.8.8.8.8.8.8.8.8.8.8.8.8.8.8.8.8.8.8.8.8.8.8.8.a.~             ",
"            ~ a.8.8.8.8.8.8.8.8.8.8.8.8.8.8.8.8.8.8.8.8.8.8.8.8.8.8.8.8.8.8.8.8.a.~             ",
"            ~ a.7.7.7.7.7.7.7.7.7.7.7.7.7.7.7.7.7.7.7.7.7.7.7.7.7.7.7.7.7.7.7.7.a.~             ",
"            ~ a.7.7.7.7.7.7.7.7.7.7.7.7.7.7.7.7.7.7.7.7.7.7.7.7.7.7.7.7.7.7.7.7.a.~             ",
"            ! 0.6.6.6.6.6.6.6.6.6.6.6.6.6.6.6.6.6.6.6.6.6.6.6.6.6.6.6.6.6.6.6.6.0.!             ",
"            ! 9.5.5.5.5.5.5.5.5.5.5.5.5.5.5.5.5.5.5.5.5.5.5.5.5.5.5.5.5.5.5.5.5.9.!             ",
"            ! 9.5.5.5.5.5.5.5.5.5.5.5.5.5.5.5.5.5.5.5.5.5.5.5.5.5.5.5.5.5.5.5.5.9.!             ",
"            ) 8.4.4.4.4.4.4.4.4.4.4.4.4.4.4.4.4.4.4.4.4.4.4.4.4.4.4.4.4.4.4.4.4.8.)             ",
"            ) 8.4.4.4.4.4.4.4.4.4.4.4.4.4.4.4.4.4.4.4.4.4.4.4.4.4.4.4.4.4.4.4.4.8.)             ",
"            ) 7.2.2.2.2.2.2.2.2.2.2.2.2.2.S P P P P S 2.2.2.2.2.2.2.2.2.2.2.2.2.7.)             ",
"            ) 7.2.2.2.2.2.2.2.2.2.2.2.2.2.N O O O O N 2.2.2.2.2.2.2.2.2.2.2.2.2.7.)             ",
"            ) 6.|.|.|.|.|.|.|.|.|.|.|.|.|.K M M M M K |.|.|.|.|.|.|.|.|.|.|.|.|.6.)             ",
"            ) 6.|.|.|.|.|.|.|.|.|.|.|.|.|.I L L L L I |.|.|.|.|.|.|.|.|.|.|.|.|.6.)             ",
"            ) 5.}.}.}.}.}.}.}.}.}.}.}.}.}.F J J J J F }.}.}.}.}.}.}.}.}.}.}.}.}.5.)             ",
"            ' 5.<.<.<.<.<.<.<.<.<.<.<.<.<.C G G G G C <.<.<.<.<.<.<.<.<.<.<.<.<.5.'             ",
"            ' 5.<.<.<.<.<.<.<.<.<.<.<.<.<.z D D D D z <.<.<.<.<.<.<.<.<.<.<.<.<.5.'             ",
"            ' 4.:.:.:.:.:.:.:.:.:.:.:.:.:.v A A A A v :.:.:.:.:.:.:.:.:.:.:.:.:.4.'             ",
"            ' 4.:.:.:.:.:.:.:.:.:.:.:.:.:.q x x x x q :.:.:.:.:.:.:.:.:.:.:.:.:.4.'             ",
"            , 2._._._._._._._.Z m m m m m u w w w w u m m m l l Z _._._._._._._.2.,             ",
"            , 2._._._._._._._.].R s t t t t t t t t t t t t r Q !._._._._._._._.2.,             ",
"            , |./././././././._.*.E j n n n n n n n n n n k B $._./././././././.|.,             ",
"            , }.^.^.^.^.^.^.^.^._.+.p f i i i i i i i i g o .._.^.^.^.^.^.^.^.^.}.,             ",
"            , }.^.^.^.^.^.^.^.^.^.<. .e b d d d d d d c h ` <.^.^.^.^.^.^.^.^.^.}.,             ",
"            , <.{.{.{.{.{.{.{.{.{.{.}.Y 7 8 0 0 0 0 9 a X }.{.{.{.{.{.{.{.{.{.{.<.,             ",
"            , <.{.{.{.{.{.{.{.{.{.{.^.2.W 2 1 5 5 4 3 V 2.^.{.{.{.{.{.{.{.{.{.{.<.,             ",
"            > :.~.~.~.~.~.~.~.~.~.~.~.{.3.U [ | | < T 1.^.~.~.~.~.~.~.~.~.~.~.~.:.>             ",
"            > :.~.~.~.~.~.~.~.~.~.~.~.~./.[.H _ : y (./.~.~.~.~.~.~.~.~.~.~.~.~.:.>             ",
"            > _.).).).).).).).).).).).).)._.,.6 } ;.:.).).).).).).).).).).).).)._.>             ",
"            ; /.'.'.'.'.'.'.'.'.'.'.'.'.'.'.}.#.@.}.'.'.'.'.'.'.'.'.'.'.'.'.'.'./.;             ",
"            ; /.'.'.'.'.'.'.'.'.'.'.'.'.'.'.'._._.'.'.'.'.'.'.'.'.'.'.'.'.'.'.'./.;             ",
"            ; ^.>.>.>.>.>.>.>.>.>.>.>.>.>.>.>.>.>.>.>.>.>.>.>.>.>.>.>.>.>.>.>.>.^.;             ",
"            ; ^.>.>.>.>.>.>.>.>.>.>.>.>.>.>.>.>.>.>.>.>.>.>.>.>.>.>.>.>.>.>.>.>.^.;             ",
"            - {.-.-.-.-.-.-.-.-.-.-.-.-.-.-.-.-.-.-.-.-.-.-.-.-.-.-.-.-.-.-.-.-.{.-             ",
"            - {.-.-.-.-.-.-.-.-.-.-.-.-.-.-.-.-.-.-.-.-.-.-.-.-.-.-.-.-.-.-.-.-.{.-             ",
"            - ~.=.=.=.=.=.=.=.=.=.=.=.=.=.=.=.=.=.=.=.=.=.=.=.=.=.=.=.=.=.=.=.=.~.-             ",
"            - ~.&.&.&.&.&.&.&.&.&.&.&.&.&.&.&.&.&.&.&.&.&.&.&.&.&.&.&.&.&.&.&.&.~.-             ",
"            - ).&.&.&.&.&.&.&.&.&.&.&.&.&.&.&.&.&.&.&.&.&.&.&.&.&.&.&.&.&.&.&.&.).-             ",
"            - ~.%.%.%.%.%.%.%.%.%.%.%.%.%.%.%.%.%.%.%.%.%.%.%.%.%.%.%.%.%.%.%.%.~.-             ",
"            ^ }.}.}.}.}.}.}.}.}.}.}.}.}.}.}.}.}.}.}.}.}.}.}.}.}.}.}.}.}.}.}.}.}.}.^             ",
"            = / ( ( ( ( ( ( ( ( ( ( ( ( ( ( ( ( ( ( ( ( ( ( ( ( ( ( ( ( ( ( ( ( / =             ",
"                                                                                                ",
"                                                                                                ",
"                                                                                                "};
