/* XPM */
static char * document_properties_xpm[] = {
"48 48 106 2",
"  	g None",
". 	g #AEAEAE",
"+ 	g #AAAAAA",
"@ 	g #ADADAD",
"# 	g #ABABAB",
"$ 	g #E2E2E2",
"% 	g #F5F5F5",
"& 	g #A8A8A8",
"* 	g #F4F4F4",
"= 	g #F3F3F3",
"- 	g #ACACAC",
"; 	g #A7A7A7",
"> 	g #F2F2F2",
", 	g #B6B6B6",
"' 	g #EFEFEF",
") 	g #EDEDED",
"! 	g #B3B3B3",
"~ 	g #A9A9A9",
"{ 	g #C4C4C4",
"] 	g #B5B5B5",
"^ 	g #EEEEEE",
"/ 	g #F1F1F1",
"( 	g #ECECEC",
"_ 	g #B1B1B1",
": 	g #D9D9D9",
"< 	g #B2B2B2",
"[ 	g #F0F0F0",
"} 	g #EBEBEB",
"| 	g #DDDDDD",
"1 	g #B4B4B4",
"2 	g #CCCCCC",
"3 	g #BCBCBC",
"4 	g #CDCDCD",
"5 	g #C6C6C6",
"6 	g #D4D4D4",
"7 	g #DADADA",
"8 	g #E0E0E0",
"9 	g #D3D3D3",
"0 	g #B7B7B7",
"a 	g #E8E8E8",
"b 	g #E4E4E4",
"c 	g #B9B9B9",
"d 	g #E1E1E1",
"e 	g #BABABA",
"f 	g #BDBDBD",
"g 	g #E5E5E5",
"h 	g #AFAFAF",
"i 	g #DEDEDE",
"j 	g #CECECE",
"k 	g #A6A6A6",
"l 	g #A4A4A4",
"m 	g #E7E7E7",
"n 	g #DFDFDF",
"o 	g #D8D8D8",
"p 	g #BBBBBB",
"q 	g #EAEAEA",
"r 	g #C2C2C2",
"s 	g #C3C3C3",
"t 	g #A5A5A5",
"u 	g #D2D2D2",
"v 	g #E9E9E9",
"w 	g #BEBEBE",
"x 	g #A0A0A0",
"y 	g #BFBFBF",
"z 	g #D1D1D1",
"A 	g #A2A2A2",
"B 	g #D5D5D5",
"C 	g #CACACA",
"D 	g #A1A1A1",
"E 	g #9E9E9E",
"F 	g #DCDCDC",
"G 	g #C9C9C9",
"H 	g #DBDBDB",
"I 	g #D6D6D6",
"J 	g #9D9D9D",
"K 	g #E6E6E6",
"L 	g #CBCBCB",
"M 	g #9F9F9F",
"N 	g #9C9C9C",
"O 	g #C8C8C8",
"P 	g #9B9B9B",
"Q 	g #D7D7D7",
"R 	g #9A9A9A",
"S 	g #E3E3E3",
"T 	g #A3A3A3",
"U 	g #CFCFCF",
"V 	g #999999",
"W 	g #B8B8B8",
"X 	g #989898",
"Y 	g #C1C1C1",
"Z 	g #D0D0D0",
"` 	g #C7C7C7",
" .	g #979797",
"..	g #929292",
"+.	g #909090",
"@.	g #919191",
"#.	g #8D8D8D",
"$.	g #C0C0C0",
"%.	g #8B8B8B",
"&.	g #848484",
"*.	g #8E8E8E",
"=.	g #888888",
"-.	g #939393",
";.	g #818181",
">.	g #8F8F8F",
",.	g #8C8C8C",
"                                                                                                ",
"                                        . + + + + + + @                                         ",
"                                      # $ % % % % % % $ @                                       ",
"                                      & * * * * * * * * &                                       ",
"                                      & = = = = = = = = &                                       ",
"                    - @ - #           ; > > > > > > > > ;           - - - -                     ",
"                  # , ' ) ! ~     # ~ { > > > > > > > > { ~ #     ~ ! ) ' , #                   ",
"                # ] ^ / / ( ! ~ _ : ' / / / / / / / / / / ' : < ~ ! ( / / ^ ] #                 ",
"              ~ ] ) [ [ [ [ } | [ [ [ [ [ [ [ [ [ [ [ [ [ [ [ [ | } [ [ [ [ ) ] +               ",
"            & 1 ( ' ' ' ' ' ' ' ' ' ' $ 2 3 ] . . ] 3 4 $ ' ' ' ' ' ' ' ' ' ' ( 1 &             ",
"            + } ^ ^ ^ ^ ^ ^ ^ ^ ^ : , , 5 6 7 8 8 7 9 5 , 0 : ^ ^ ^ ^ ^ ^ ^ ^ ^ } ~             ",
"            & a ) ) ) ) ) ) ) b 3 c 6 d d d d d d d d d d 6 e f g ) ) ) ) ) ) ) a &             ",
"            ; h a ) ) ) ) ) i , 4 d d d d d d d d d d d d d d j 0 i ) ) ) ) ) a h k             ",
"              l @ m ( ( ( i 0 6 8 8 8 8 8 8 8 8 8 8 8 8 8 8 8 8 6 0 n ( ( ( m . l               ",
"                l o } } g p 6 n n n n n n n n n n n n n n n n n n 6 p b } } o l                 ",
"                # q q q r j i i i i i i i i i i i i i i i i i i i i j s q q q @                 ",
"              t u v v o r | | | | | | | o w & x x & y o | | | | | | | r 7 v v z l               ",
"              A a v v s B | | | | | | C A D         A A C | | | | | | 6 { v v m A               ",
"      A E E E p a a 8 r F F F F F F G D                 D G F F F F F F s 8 a a p E E E A       ",
"    D 6 m m m m m m 9 j H H H H H I x                     x I H H H H H j 6 m m m m m m 6 x     ",
"    J K K K K K K K L 6 7 7 7 7 7 3 M                     D 3 7 7 7 7 7 B 4 K K K K K K K J     ",
"    N g g g g g g g O I : : : : : l                         t : : : : : I C g g g g g g g N     ",
"    P b b b b b b b O Q o o o o o N                         N o o o o o Q G b b b b b b b P     ",
"    P b b b b b b b C Q o o o o o N                         N o o o o o Q L b b b b b b b P     ",
"    R S S S S S S S j B Q Q Q Q Q T                         A Q Q Q Q Q B U S S S S S S S R     ",
"    V $ $ $ $ $ $ $ 9 6 I I I I I c J                     J W I I I I I B 9 $ $ $ $ $ $ $ V     ",
"    P U d d d d d d o u I I I I I z R                     P z I I I I I u : d d d d d d j J     ",
"      N X X X 1 8 8 | u B B B B B B Y P                 P r B B B B B B u i 8 8 1 X X X P       ",
"              R n 8 8 B 9 B B B B B B Y V R         P V r B B B B B B B I 8 8 i R               ",
"              N O n n F 6 6 6 6 6 6 6 6 U ] M X X M ] Z 6 6 6 6 6 6 6 I F n n ` P               ",
"                A i i i : B 9 9 9 9 9 9 9 9 9 9 9 9 9 9 9 9 9 9 9 9 B : i i i T                 ",
"                 .L | | F 7 9 u u u u u u u u u u u u u u u u u u 9 7 | | | L X                 ",
"              X D Q F F F F H 9 z z z z z z z z z z z z z z z z 6 H F F F F Q x X               ",
"             .M I H H H H H F | Q Z Z Z Z Z Z Z Z Z Z Z Z Z Z Q | F H H H H H I M X             ",
"             .I H H H H H H H F n | B Z Z Z Z Z Z Z Z Z Z 6 F n H H H H H H H H I X             ",
"            X Q 7 7 7 7 7 7 7 7 7 | d n : 6 u z z u 6 : n d | 7 7 7 7 7 7 7 7 7 Q X             ",
"            ..x I : : : : : : : : : : H i d $ S S $ d n H : : : : : : : : : : I x ..            ",
"              +.M B o o o o 9 5 o o o o o o o o o o o o o o o o 5 9 o o o o B M @.              ",
"                #.E 6 Q Q 9 R @.R $.B Q Q Q Q Q Q Q Q Q Q B $.R @.R 9 Q Q 6 E #.                ",
"                  %.E 6 9 R &.    *...# Q Q Q Q Q Q Q Q # ..#.    &.R 9 6 E %.                  ",
"                    =.-...;.          >.I I I I I I I I >.          ;...-.=.                    ",
"                                      *.B B B B B B B B *.                                      ",
"                                      *.6 6 6 6 6 6 6 6 *.                                      ",
"                                      *.Y 9 9 9 9 9 9 $.*.                                      ",
"                                        #.,.,.,.,.,.,.#.                                        ",
"                                                                                                ",
"                                                                                                ",
"                                                                                                "};
