/* XPM */
static char * folder_drag_accept_xpm[] = {
"48 48 148 2",
"  	c None",
". 	c #FEFEFE",
"+ 	c #FFFFFF",
"@ 	c #F9F9F9",
"# 	c #FCFCFC",
"$ 	c #FAFAFA",
"% 	c #F8F8F8",
"& 	c #F6F6F6",
"* 	c #EFEFEF",
"= 	c #EBEBEB",
"- 	c #E7E7E7",
"; 	c #E0E0E0",
"> 	c #5E6B76",
", 	c #525D66",
"' 	c #8E969C",
") 	c #8B939A",
"! 	c #616F78",
"~ 	c #D2E1EC",
"{ 	c #D5E3EE",
"] 	c #CFDFEB",
"^ 	c #748692",
"/ 	c #5E6C75",
"( 	c #B7CDDE",
"_ 	c #B7D0E2",
": 	c #B5CFE1",
"< 	c #BBD3E4",
"[ 	c #687782",
"} 	c #ADC5D6",
"| 	c #B5CFE2",
"1 	c #B2CDE1",
"2 	c #B4CFE2",
"3 	c #B6CEE0",
"4 	c #5E6D76",
"5 	c #A2BBCD",
"6 	c #B2CEE2",
"7 	c #AECBE0",
"8 	c #B1CDE1",
"9 	c #ACC5D7",
"0 	c #586771",
"a 	c #98B2C5",
"b 	c #AFCCE1",
"c 	c #AAC9DF",
"d 	c #A1BCCF",
"e 	c #8FA9BC",
"f 	c #ADCAE0",
"g 	c #A6C6DE",
"h 	c #ACCAE0",
"i 	c #97B3C7",
"j 	c #829BB0",
"k 	c #A9C9E0",
"l 	c #A1C4DD",
"m 	c #A8C8E0",
"n 	c #8DAABF",
"o 	c #738E9F",
"p 	c #A6C8DF",
"q 	c #9DC2DC",
"r 	c #A5C7DF",
"s 	c #84A2B6",
"t 	c #647E8E",
"u 	c #A3C6DF",
"v 	c #99BFDB",
"w 	c #A2C5DE",
"x 	c #7794A9",
"y 	c #556B7C",
"z 	c #9FC3DD",
"A 	c #96BEDA",
"B 	c #95BDDA",
"C 	c #9FC3DE",
"D 	c #6A869B",
"E 	c #4A6271",
"F 	c #96BDD8",
"G 	c #92BCDA",
"H 	c #90BBD9",
"I 	c #91BCD9",
"J 	c #9AC1DC",
"K 	c #5C798C",
"L 	c #8CB3CF",
"M 	c #8FBAD9",
"N 	c #8CB8D8",
"O 	c #8EB9D9",
"P 	c #95BEDB",
"Q 	c #4F687A",
"R 	c #83AAC6",
"S 	c #8CB9D8",
"T 	c #88B6D7",
"U 	c #8BB8D8",
"V 	c #8DB7D6",
"W 	c #466070",
"X 	c #79A2BF",
"Y 	c #88B7D8",
"Z 	c #83B4D6",
"` 	c #87B7D7",
" .	c #82AECC",
"..	c #719AB7",
"+.	c #86B5D7",
"@.	c #7FB1D5",
"#.	c #85B5D7",
"$.	c #7AA5C4",
"%.	c #6790AD",
"&.	c #83B4D7",
"*.	c #7BAFD4",
"=.	c #82B3D6",
"-.	c #709CBC",
";.	c #5C83A0",
">.	c #80B2D6",
",.	c #77ADD3",
"'.	c #6794B3",
").	c #517891",
"!.	c #7DAFD4",
"~.	c #72A9D1",
"{.	c #71A9D0",
"].	c #7CAFD4",
"^.	c #5C88A6",
"/.	c #43677E",
"(.	c #77ABD0",
"_.	c #6BA4CC",
":.	c #6BA3CB",
"<.	c #77AACF",
"[.	c #4F7693",
"}.	c #38546B",
"|.	c #71A6CA",
"1.	c #669FC7",
"2.	c #659FC7",
"3.	c #659EC6",
"4.	c #669FC6",
"5.	c #70A5CA",
"6.	c #426681",
"7.	c #2D4A5D",
"8.	c #689EC2",
"9.	c #629DC4",
"0.	c #619CC3",
"a.	c #609BC2",
"b.	c #629CC3",
"c.	c #6AA1C6",
"d.	c #355569",
"e.	c #273E4F",
"f.	c #6A9ABB",
"g.	c #7AAACB",
"h.	c #7AA9CA",
"i.	c #78A9CA",
"j.	c #78A8C9",
"k.	c #75A4C7",
"l.	c #2C495D",
"m.	c #2D4B61",
"n.	c #304F67",
"o.	c #2E4D63",
"p.	c #2E4D64",
"q.	c #2D4D63",
"                                                                                                ",
"                                                                                                ",
"                                                                                                ",
"                                                                                                ",
"                                                                                                ",
"                                                                                                ",
"                                                                                                ",
"                                                                                                ",
"                                                                                                ",
"          . + + + + + + + + + + + + + + .                                                       ",
"          . @ @ @ @ @ @ @ @ @ @ @ @ @ @ .                                                       ",
"          # @ @ @ @ @ @ @ @ @ @ @ @ @ @ #                                                       ",
"      $ $ $ @ @ @ @ @ @ @ @ @ @ @ @ @ @ $ $ $ $ $ $ $ $ $ $ $ $ $ $ $ $ $ $ $ $ $ $ $ $ $       ",
"      $ @ @ @ @ @ @ @ @ @ @ @ @ @ @ @ @ @ @ @ @ @ @ @ @ @ @ @ @ @ @ @ @ @ @ @ @ @ @ @ @ $       ",
"      $ @ @ @ @ @ @ @ @ @ @ @ @ @ @ @ @ @ @ @ @ @ @ @ @ @ @ @ @ @ @ @ @ @ @ @ @ @ @ @ @ $       ",
"      $ @ @ @ @ @ @ @ @ @ @ @ @ @ @ @ @ @ @ @ @ @ @ @ @ @ @ @ @ @ @ @ @ @ @ @ @ @ @ @ @ $       ",
"      $ @ @ @ @ @ @ @ @ @ @ @ @ @ @ @ @ @ @ @ @ @ @ @ @ @ @ @ @ @ @ @ @ @ @ @ @ @ @ @ @ $       ",
"      $ @ @ @ @ @ @ @ @ @ @ @ @ @ @ @ @ @ @ @ @ @ @ @ @ @ @ @ @ @ @ @ @ @ @ @ @ @ @ @ @ $       ",
"      % & & & & & & & & & & & & & & & & & & & & & & & & & & & & & & & & & & & & & & & & %       ",
"      * = = = = = = = = = = = = = = = = = = = = = = = = = = = = = = = = = = = = = = = = *       ",
"      - ; ; ; ; ; ; ; ; ; ; ; ; ; ; ; ; ; ; ; ; ; ; ; ; ; ; ; ; ; ; ; ; ; ; ; ; ; ; ; ; -       ",
"  > , ' ) ) ) ) ) ) ) ) ) ) ) ) ) ) ) ) ) ) ) ) ) ) ) ) ) ) ) ) ) ) ) ) ) ) ) ) ) ) ) ) ' , >   ",
"! ~ { { { { { { { { { { { { { { { { { { { { { { { { { { { { { { { { { { { { { { { { { { { { ] ^ ",
"/ ( _ : : : : : : : : : : : : : : : : : : : : : : : : : : : : : : : : : : : : : : : : : : _ < [ ",
"  } | 1 1 1 1 1 1 1 1 1 1 1 1 1 1 1 1 1 1 1 1 1 1 1 1 1 1 1 1 1 1 1 1 1 1 1 1 1 1 1 1 1 1 2 3 4 ",
"  5 6 7 7 7 7 7 7 7 7 7 7 7 7 7 7 7 7 7 7 7 7 7 7 7 7 7 7 7 7 7 7 7 7 7 7 7 7 7 7 7 7 7 7 8 9 0 ",
"  a b c c c c c c c c c c c c c c c c c c c c c c c c c c c c c c c c c c c c c c c c c c b d   ",
"  e f g g g g g g g g g g g g g g g g g g g g g g g g g g g g g g g g g g g g g g g g g g h i   ",
"  j k l l l l l l l l l l l l l l l l l l l l l l l l l l l l l l l l l l l l l l l l l l m n   ",
"  o p q q q q q q q q q q q q q q q q q q q q q q q q q q q q q q q q q q q q q q q q q q r s   ",
"  t u v v v v v v v v v v v v v v v v v v v v v v v v v v v v v v v v v v v v v v v v v v w x   ",
"  y z A B B B B B B B B B B B B B B B B B B B B B B B B B B B B B B B B B B B B B B B B B C D   ",
"  E F G H H H H H H H H H H H H H H H H H H H H H H H H H H H H H H H H H H H H H H H H I J K   ",
"    L M N N N N N N N N N N N N N N N N N N N N N N N N N N N N N N N N N N N N N N N N O P Q   ",
"    R S T T T T T T T T T T T T T T T T T T T T T T T T T T T T T T T T T T T T T T T T U V W   ",
"    X Y Z Z Z Z Z Z Z Z Z Z Z Z Z Z Z Z Z Z Z Z Z Z Z Z Z Z Z Z Z Z Z Z Z Z Z Z Z Z Z Z `  .    ",
"    ..+.@.@.@.@.@.@.@.@.@.@.@.@.@.@.@.@.@.@.@.@.@.@.@.@.@.@.@.@.@.@.@.@.@.@.@.@.@.@.@.@.#.$.    ",
"    %.&.*.*.*.*.*.*.*.*.*.*.*.*.*.*.*.*.*.*.*.*.*.*.*.*.*.*.*.*.*.*.*.*.*.*.*.*.*.*.*.*.=.-.    ",
"    ;.>.,.,.,.,.,.,.,.,.,.,.,.,.,.,.,.,.,.,.,.,.,.,.,.,.,.,.,.,.,.,.,.,.,.,.,.,.,.,.,.,.>.'.    ",
"    ).!.~.~.~.~.~.~.~.~.{.{.{.{.{.{.{.{.{.{.{.{.{.{.{.{.{.{.{.{.{.{.{.{.{.{.{.{.{.{.{.{.].^.    ",
"    /.(._._._._._._._._._._._._._._._._._.:.:.:.:.:.:.:.:.:.:.:.:.:.:.:.:.:.:.:.:.:.:.:.<.[.    ",
"    }.|.1.2.2.2.2.2.2.2.2.2.2.2.2.3.3.3.3.3.3.3.3.3.3.3.3.3.3.3.3.3.3.3.3.3.3.3.3.3.3.4.5.6.    ",
"    7.8.9.0.0.0.0.0.0.0.0.0.0.0.0.0.0.0.0.0.0.0.0.0.a.a.a.a.a.a.a.a.a.a.a.a.a.a.a.a.a.b.c.d.    ",
"    e.f.g.h.i.i.i.i.i.i.i.i.i.i.i.i.i.i.i.i.i.j.j.j.j.j.j.j.j.j.j.j.j.j.j.j.j.j.j.j.j.j.k.l.    ",
"      m.n.o.o.o.o.o.o.o.o.o.o.o.o.o.o.o.o.o.o.o.o.o.o.o.o.o.o.o.o.o.o.o.o.o.o.o.o.o.o.p.q.      ",
"                                                                                                ",
"                                                                                                ",
"                                                                                                "};
