/* XPM */
static char * go_down_xpm[] = {
"48 48 191 2",
"  	c None",
". 	c #367A19",
"+ 	c #4B8B28",
"@ 	c #4D8D28",
"# 	c #DBF9A8",
"$ 	c #4C8D27",
"% 	c #D8F7A3",
"& 	c #C3F373",
"* 	c #4A8B25",
"= 	c #D5F6A0",
"- 	c #BFF16F",
"; 	c #498B24",
"> 	c #D2F49C",
", 	c #BBEF6B",
"' 	c #488A21",
") 	c #CFF398",
"! 	c #B7ED66",
"~ 	c #468A20",
"{ 	c #CBF194",
"] 	c #B3EB62",
"^ 	c #45891F",
"/ 	c #C8F191",
"( 	c #AFEA5E",
"_ 	c #44891D",
": 	c #C5EF8C",
"< 	c #ABE859",
"[ 	c #42871C",
"} 	c #C2EE88",
"| 	c #A7E655",
"1 	c #41871B",
"2 	c #BEEC84",
"3 	c #A3E450",
"4 	c #408619",
"5 	c #BCEA81",
"6 	c #A0E14D",
"7 	c #3E8518",
"8 	c #B8E77D",
"9 	c #9CDE4A",
"0 	c #3D8518",
"a 	c #B5E67B",
"b 	c #98DC48",
"c 	c #3C8317",
"d 	c #B2E377",
"e 	c #95D945",
"f 	c #3A8215",
"g 	c #AEE174",
"h 	c #91D642",
"i 	c #398215",
"j 	c #ABDF71",
"k 	c #8ED440",
"l 	c #388114",
"m 	c #A7DD6E",
"n 	c #8AD13D",
"o 	c #1F6A08",
"p 	c #357F12",
"q 	c #458E1B",
"r 	c #A4DA6A",
"s 	c #87CE3A",
"t 	c #458C1F",
"u 	c #95CF5E",
"v 	c #A1D868",
"w 	c #83CC38",
"x 	c #94CE5C",
"y 	c #448D1C",
"z 	c #4B9223",
"A 	c #95CE5B",
"B 	c #84CB3C",
"C 	c #80C935",
"D 	c #87CC40",
"E 	c #96D05C",
"F 	c #4B9420",
"G 	c #529927",
"H 	c #93CE58",
"I 	c #7FC737",
"J 	c #7CC632",
"K 	c #81C83A",
"L 	c #95D05B",
"M 	c #539924",
"N 	c #5AA02D",
"O 	c #8FCE54",
"P 	c #7AC533",
"Q 	c #78C430",
"R 	c #7BC535",
"S 	c #91CE57",
"T 	c #58A02A",
"U 	c #61A532",
"V 	c #8BCB4F",
"W 	c #76C12E",
"X 	c #75C12D",
"Y 	c #77C22F",
"Z 	c #8CCB51",
"` 	c #5EA42C",
" .	c #267309",
"..	c #69AE36",
"+.	c #84C747",
"@.	c #71BE2A",
"#.	c #72BE2B",
"$.	c #87C84B",
"%.	c #66AB32",
"&.	c #277209",
"*.	c #2B760B",
"=.	c #6EB039",
"-.	c #7FC340",
";.	c #6EBB27",
">.	c #81C443",
",.	c #6BAF37",
"'.	c #2F7A0F",
").	c #71B63D",
"!.	c #77BF39",
"~.	c #6AB925",
"{.	c #7AC13D",
"].	c #6FB43B",
"^.	c #2F7B0D",
"/.	c #348010",
"(.	c #75B93F",
"_.	c #71BB32",
":.	c #66B622",
"<.	c #73BC35",
"[.	c #73B63E",
"}.	c #317D0F",
"|.	c #378113",
"1.	c #74B842",
"2.	c #69B52C",
"3.	c #61B121",
"4.	c #6BB62F",
"5.	c #73B740",
"6.	c #358112",
"7.	c #3B8716",
"8.	c #72B641",
"9.	c #61B027",
"0.	c #5BAD1F",
"a.	c #62B129",
"b.	c #71B740",
"c.	c #398514",
"d.	c #3E8A19",
"e.	c #6EB43F",
"f.	c #5AAB23",
"g.	c #56A91E",
"h.	c #5BAB24",
"i.	c #6FB43F",
"j.	c #3C8A18",
"k.	c #418E1D",
"l.	c #69B23C",
"m.	c #53A620",
"n.	c #50A51C",
"o.	c #68B23D",
"p.	c #3E8D1B",
"q.	c #45921F",
"r.	c #62AD37",
"s.	c #4CA21C",
"t.	c #4BA11A",
"u.	c #42901E",
"v.	c #1E6B07",
"w.	c #479523",
"x.	c #5AA832",
"y.	c #479D1A",
"z.	c #469D19",
"A.	c #469223",
"B.	c #1E6B08",
"C.	c #1E6D06",
"D.	c #489726",
"E.	c #52A32D",
"F.	c #409917",
"G.	c #51A22C",
"H.	c #459424",
"I.	c #1D6B06",
"J.	c #206E0A",
"K.	c #499829",
"L.	c #499C26",
"M.	c #3B9516",
"N.	c #4A9D27",
"O.	c #469627",
"P.	c #1F6C09",
"Q.	c #206F09",
"R.	c #46982A",
"S.	c #419722",
"T.	c #359114",
"U.	c #459629",
"V.	c #1F6D08",
"W.	c #20700C",
"X.	c #45962B",
"Y.	c #39911D",
"Z.	c #43952A",
"`.	c #1F6F0B",
" +	c #20710C",
".+	c #41932A",
"++	c #409329",
"@+	c #21710C",
"#+	c #21740E",
"$+	c #1E720C",
"%+	c #115206",
"                                                                                                ",
"                          . + + + + + + + + + + + + + + + + + + + + .                           ",
"                          @ # # # # # # # # # # # # # # # # # # # # @                           ",
"                          $ % & & & & & & & & & & & & & & & & & & % $                           ",
"                          * = - - - - - - - - - - - - - - - - - - = *                           ",
"                          ; > , , , , , , , , , , , , , , , , , , > ;                           ",
"                          ' ) ! ! ! ! ! ! ! ! ! ! ! ! ! ! ! ! ! ! ) '                           ",
"                          ~ { ] ] ] ] ] ] ] ] ] ] ] ] ] ] ] ] ] ] { ~                           ",
"                          ^ / ( ( ( ( ( ( ( ( ( ( ( ( ( ( ( ( ( ( / ^                           ",
"                          _ : < < < < < < < < < < < < < < < < < < : _                           ",
"                          [ } | | | | | | | | | | | | | | | | | | } [                           ",
"                          1 2 3 3 3 3 3 3 3 3 3 3 3 3 3 3 3 3 3 3 2 1                           ",
"                          4 5 6 6 6 6 6 6 6 6 6 6 6 6 6 6 6 6 6 6 5 4                           ",
"                          7 8 9 9 9 9 9 9 9 9 9 9 9 9 9 9 9 9 9 9 8 7                           ",
"                          0 a b b b b b b b b b b b b b b b b b b a 0                           ",
"                          c d e e e e e e e e e e e e e e e e e e d c                           ",
"                          f g h h h h h h h h h h h h h h h h h h g f                           ",
"                          i j k k k k k k k k k k k k k k k k k k j i                           ",
"                          l m n n n n n n n n n n n n n n n n n n m l                           ",
"        o p p p p p p p p q r s s s s s s s s s s s s s s s s s s r q p p p p p p p p o         ",
"          t u v v v v v v v v w w w w w w w w w w w w w w w w w w v v v v v v v v x y           ",
"            z A B C C C C C C C C C C C C C C C C C C C C C C C C C C C C C C D E F             ",
"              G H I J J J J J J J J J J J J J J J J J J J J J J J J J J J J K L M               ",
"                N O P Q Q Q Q Q Q Q Q Q Q Q Q Q Q Q Q Q Q Q Q Q Q Q Q Q Q R S T                 ",
"                  U V W X X X X X X X X X X X X X X X X X X X X X X X X Y Z `                   ",
"                   ...+.@.@.@.@.@.@.@.@.@.@.@.@.@.@.@.@.@.@.@.@.@.@.@.#.$.%.&.                  ",
"                    *.=.-.;.;.;.;.;.;.;.;.;.;.;.;.;.;.;.;.;.;.;.;.;.;.>.,.*.                    ",
"                      '.).!.~.~.~.~.~.~.~.~.~.~.~.~.~.~.~.~.~.~.~.~.{.].^.                      ",
"                        /.(._.:.:.:.:.:.:.:.:.:.:.:.:.:.:.:.:.:.:.<.[.}.                        ",
"                          |.1.2.3.3.3.3.3.3.3.3.3.3.3.3.3.3.3.3.4.5.6.                          ",
"                            7.8.9.0.0.0.0.0.0.0.0.0.0.0.0.0.0.a.b.c.                            ",
"                              d.e.f.g.g.g.g.g.g.g.g.g.g.g.g.h.i.j.                              ",
"                                k.l.m.n.n.n.n.n.n.n.n.n.n.m.o.p.                                ",
"                                  q.r.s.t.t.t.t.t.t.t.t.s.r.u.                                  ",
"                                  v.w.x.y.z.z.z.z.z.z.y.x.A.B.                                  ",
"                                    C.D.E.F.F.F.F.F.F.G.H.I.                                    ",
"                                      J.K.L.M.M.M.M.N.O.P.                                      ",
"                                        Q.R.S.T.T.S.U.V.                                        ",
"                                          W.X.Y.Y.Z.`.                                          ",
"                                             +.+++@+                                            ",
"                                              #+$+                                              ",
"                                              %+                                                ",
"                                                                                                ",
"                                                                                                ",
"                                                                                                ",
"                                                                                                ",
"                                                                                                ",
"                                                                                                "};
