/* XPM */
static char * go_first_xpm[] = {
"48 48 317 2",
"  	c None",
". 	c #2D7410",
"+ 	c #40871B",
"@ 	c #2D7213",
"# 	c #C3ED8D",
"$ 	c #69A53E",
"% 	c #4F8F29",
"& 	c #A3DA53",
"* 	c #76B04A",
"= 	c #CBEF94",
"- 	c #4C8E28",
"; 	c #C2ED8B",
"> 	c #A3DA52",
", 	c #C1EC8B",
"' 	c #81B850",
") 	c #CCF292",
"! 	c #D1F596",
"~ 	c #4B8E25",
"{ 	c #C0EC8A",
"] 	c #A2D952",
"^ 	c #C1EC89",
"/ 	c #39801A",
"( 	c #8CC157",
"_ 	c #C9F28C",
": 	c #BEF072",
"< 	c #CBF290",
"[ 	c #498C23",
"} 	c #BFEB87",
"| 	c #A1D951",
"1 	c #43871E",
"2 	c #95CA5E",
"3 	c #C4F083",
"4 	c #B7EC67",
"5 	c #B6EC66",
"6 	c #C7F08B",
"7 	c #478B21",
"8 	c #BFEB85",
"9 	c #A1D851",
"0 	c #488C21",
"a 	c #A0D567",
"b 	c #BDED79",
"c 	c #B0E95E",
"d 	c #AFE95D",
"e 	c #B1E960",
"f 	c #C2EE85",
"g 	c #458A1F",
"h 	c #BDEA83",
"i 	c #A0D850",
"j 	c #539629",
"k 	c #A8DC6C",
"l 	c #B6EA6E",
"m 	c #AAE757",
"n 	c #ACE75A",
"o 	c #BEEC80",
"p 	c #448A1D",
"q 	c #BCE982",
"r 	c #A0D750",
"s 	c #BDEA81",
"t 	c #5EA02E",
"u 	c #ACE06C",
"v 	c #ADE761",
"w 	c #A4E451",
"x 	c #A6E554",
"y 	c #B9EA7B",
"z 	c #559B28",
"A 	c #499021",
"B 	c #4A9022",
"C 	c #307711",
"D 	c #BBE97F",
"E 	c #A0D74F",
"F 	c #BBEA7F",
"G 	c #64A734",
"H 	c #ABE26B",
"I 	c #A5E358",
"J 	c #9FE14D",
"K 	c #A1E250",
"L 	c #B6E877",
"M 	c #B6E878",
"N 	c #B7E97A",
"O 	c #B8E97C",
"P 	c #B9E97D",
"Q 	c #B9E97E",
"R 	c #BAE97F",
"S 	c #BBEA81",
"T 	c #BCEA82",
"U 	c #BCEA83",
"V 	c #BEEB87",
"W 	c #40881A",
"X 	c #9FD64F",
"Y 	c #6DAF3A",
"Z 	c #AAE168",
"` 	c #9EDE51",
" .	c #9ADD49",
"..	c #9ADD4A",
"+.	c #B9E883",
"@.	c #3E8618",
"#.	c #B8E77A",
"$.	c #9FD64E",
"%.	c #357E13",
"&.	c #76B63E",
"*.	c #A5DF62",
"=.	c #97DA49",
"-.	c #95D945",
";.	c #95D946",
">.	c #B5E57F",
",.	c #3C8517",
"'.	c #B7E779",
").	c #9ED54D",
"!.	c #398315",
"~.	c #80BF45",
"{.	c #9EDA5A",
"].	c #91D543",
"^.	c #90D541",
"/.	c #90D542",
"(.	c #B1E27B",
"_.	c #3B8415",
":.	c #B6E676",
"<.	c #B7E776",
"[.	c #3F8819",
"}.	c #85C549",
"|.	c #97D752",
"1.	c #8BD23F",
"2.	c #8BD23E",
"3.	c #ADDF78",
"4.	c #3A8215",
"5.	c #B5E674",
"6.	c #9DD44C",
"7.	c #B4E674",
"8.	c #478E1C",
"9.	c #88C84A",
"0.	c #8FD249",
"a.	c #86CE3A",
"b.	c #86CE3B",
"c.	c #A8DC73",
"d.	c #378114",
"e.	c #B3E572",
"f.	c #B3E571",
"g.	c #4D9620",
"h.	c #89C949",
"i.	c #88CD41",
"j.	c #81CA36",
"k.	c #81CA37",
"l.	c #A4D96F",
"m.	c #368013",
"n.	c #B2E570",
"o.	c #9CD34B",
"p.	c #B2E56F",
"q.	c #3F8519",
"r.	c #569E24",
"s.	c #88CA47",
"t.	c #81C939",
"u.	c #7DC733",
"v.	c #7EC734",
"w.	c #A0D66B",
"x.	c #347E11",
"y.	c #B1E36D",
"z.	c #9BD34B",
"A.	c #B0E46C",
"B.	c #4A931E",
"C.	c #7FC440",
"D.	c #7DC537",
"E.	c #78C32F",
"F.	c #9BD366",
"G.	c #337D10",
"H.	c #AFE36B",
"I.	c #9BD24A",
"J.	c #3F8816",
"K.	c #75BB39",
"L.	c #7BC337",
"M.	c #73BF2B",
"N.	c #97D063",
"O.	c #327B0F",
"P.	c #AEE269",
"Q.	c #9AD14A",
"R.	c #AEE268",
"S.	c #347F10",
"T.	c #6BB232",
"U.	c #78C035",
"V.	c #6FBB28",
"W.	c #6EBB27",
"X.	c #92CC5E",
"Y.	c #2F7A0D",
"Z.	c #ACE266",
"`.	c #9AD149",
" +	c #ACE165",
".+	c #2D7A0C",
"++	c #5EA929",
"@+	c #75BE35",
"#+	c #6AB926",
"$+	c #69B824",
"%+	c #8DCA5A",
"&+	c #2E7A0C",
"*+	c #ABE264",
"=+	c #99D149",
"-+	c #ABE164",
";+	c #287209",
">+	c #509A1F",
",+	c #70B934",
"'+	c #64B324",
")+	c #62B221",
"!+	c #87C456",
"~+	c #2B770B",
"{+	c #AAE061",
"]+	c #99D048",
"^+	c #AAE060",
"/+	c #43921A",
"(+	c #68B232",
"_+	c #5EAF24",
":+	c #5AAD1F",
"<+	c #7FC053",
"[+	c #28760B",
"}+	c #A8DE5F",
"|+	c #98D048",
"1+	c #A8DF5F",
"2+	c #398614",
"3+	c #60AB2F",
"4+	c #58AA24",
"5+	c #53A71D",
"6+	c #54A81F",
"7+	c #55A820",
"8+	c #56A821",
"9+	c #79BB50",
"0+	c #277509",
"a+	c #A7DE5C",
"b+	c #98CF47",
"c+	c #2F7E11",
"d+	c #55A32B",
"e+	c #54A526",
"f+	c #4CA11B",
"g+	c #4DA21D",
"h+	c #65AE3B",
"i+	c #64AE39",
"j+	c #66AF3C",
"k+	c #67AF3D",
"l+	c #67AF3E",
"m+	c #69B040",
"n+	c #69B041",
"o+	c #6AB141",
"p+	c #6BB142",
"q+	c #6CB244",
"r+	c #6DB245",
"s+	c #6EB346",
"t+	c #6EB347",
"u+	c #6FB348",
"v+	c #70B449",
"w+	c #247209",
"x+	c #A6DE5B",
"y+	c #97CF47",
"z+	c #A5DD5A",
"A+	c #26760C",
"B+	c #4A9B24",
"C+	c #50A226",
"D+	c #449C18",
"E+	c #459D1A",
"F+	c #5BA734",
"G+	c #26760A",
"H+	c #216E07",
"I+	c #1A6605",
"J+	c #A4DD58",
"K+	c #97CE46",
"L+	c #A4DC57",
"M+	c #206E09",
"N+	c #41911F",
"O+	c #4B9D26",
"P+	c #3E9617",
"Q+	c #3D9616",
"R+	c #3F9718",
"S+	c #53A130",
"T+	c #1F6E08",
"U+	c #A2DB56",
"V+	c #96CE46",
"W+	c #A2DC55",
"X+	c #1B6805",
"Y+	c #338718",
"Z+	c #459926",
"`+	c #379117",
" @	c #359014",
".@	c #379116",
"+@	c #4B9B2E",
"@@	c #1C6A07",
"#@	c #A1DB53",
"$@	c #96CD45",
"%@	c #A1DB52",
"&@	c #156004",
"*@	c #2A7D12",
"=@	c #3E9426",
"-@	c #328D17",
";@	c #308C14",
">@	c #43962A",
",@	c #1A6907",
"'@	c #A0DA51",
")@	c #95CD45",
"!@	c #9FDA50",
"~@	c #3F871A",
"{@	c #20750D",
"]@	c #378E23",
"^@	c #2E8918",
"/@	c #3A8F26",
"(@	c #176505",
"_@	c #9ED84E",
":@	c #95CC44",
"<@	c #9ED84D",
"[@	c #196D09",
"}@	c #2F861F",
"|@	c #328923",
"1@	c #156305",
"2@	c #9CD84C",
"3@	c #94CB44",
"4@	c #9CD84B",
"5@	c #166607",
"6@	c #29831A",
"7@	c #136204",
"8@	c #9EDD4C",
"9@	c #9BD749",
"0@	c #156505",
"a@	c #2C7410",
"b@	c #0F5402",
"                                                                                                ",
"                                                                                                ",
"                                                                                                ",
"                                                                                                ",
"                                                                                                ",
"                                                                                                ",
"      . + + + .                                       @                                         ",
"      + # # # +                                     $ %                                         ",
"      + # & # +                                   * = -                                         ",
"      + ; > , +                                 ' ) ! ~                                         ",
"      + { ] ^ +                             / ( _ : < [                                         ",
"      + } | } +                           1 2 3 4 5 6 7                                         ",
"      + 8 9 8 +                         0 a b c d e f g                                         ",
"      + h i h +                       j k l m m m n o p                                         ",
"      + q r s +                     t u v w w w w x y z A A A A A A A A A A B B B B C           ",
"      + D E F +                   G H I J J J J J K L M M N N O O P Q R R S S T U V W           ",
"      + P X P +                 Y Z `  . . . . . . . . . . . . . . . . . . . . ...+.@.          ",
"      + #.$.#.+             %.&.*.=.-.-.-.-.-.-.-.-.-.-.-.-.-.-.-.-.-.-.-.-.-.-.;.>.,.          ",
"      + '.).'.+           !.~.{.].^.^.^.^.^.^.^.^.^.^.^.^.^.^.^.^.^.^.^.^.^.^.^./.(._.          ",
"      + :.).<.+         [.}.|.1.2.2.2.2.2.2.2.2.2.2.2.2.2.2.2.2.2.2.2.2.2.2.2.2.1.3.4.          ",
"      + 5.6.7.+       8.9.0.a.a.a.a.a.a.a.a.a.a.a.a.a.a.a.a.a.a.a.a.a.a.a.a.a.a.b.c.d.          ",
"      + e.6.f.+     g.h.i.j.j.j.j.j.j.j.j.j.j.j.j.j.j.j.j.j.j.j.j.j.j.j.j.j.j.j.k.l.m.          ",
"      + n.o.p.q.  r.s.t.u.u.u.u.u.u.u.u.u.u.u.u.u.u.u.u.u.u.u.u.u.u.u.u.u.u.u.u.v.w.x.          ",
"      + y.z.A.+   B.C.D.E.E.E.E.E.E.E.E.E.E.E.E.E.E.E.E.E.E.E.E.E.E.E.E.E.E.E.E.E.F.G.          ",
"      + H.I.H.+     J.K.L.M.M.M.M.M.M.M.M.M.M.M.M.M.M.M.M.M.M.M.M.M.M.M.M.M.M.M.M.N.O.          ",
"      + P.Q.R.+       S.T.U.V.W.W.W.W.W.W.W.W.W.W.W.W.W.W.W.W.W.W.W.W.W.W.W.W.W.W.X.Y.          ",
"      + Z.`. ++         .+++@+#+$+$+$+$+$+$+$+$+$+$+$+$+$+$+$+$+$+$+$+$+$+$+$+$+$+%+&+          ",
"      + *+=+-++           ;+>+,+'+)+)+)+)+)+)+)+)+)+)+)+)+)+)+)+)+)+)+)+)+)+)+)+)+!+~+          ",
"      + {+]+^++               /+(+_+:+:+:+:+:+:+:+:+:+:+:+:+:+:+:+:+:+:+:+:+:+:+:+<+[+          ",
"      + }+|+1++                 2+3+4+5+5+5+5+5+5+5+6+6+7+7+7+7+7+7+7+7+8+8+8+8+8+9+0+          ",
"      + a+b+a++                   c+d+e+f+f+f+f+f+g+h+i+h+j+k+l+m+n+o+p+q+r+s+t+u+v+w+          ",
"      + x+y+z++                     A+B+C+D+D+D+D+E+F+G+H+H+H+H+H+H+H+H+H+H+H+H+H+H+I+          ",
"      + J+K+L++                       M+N+O+P+Q+Q+R+S+T+                                        ",
"      + U+V+W++                         X+Y+Z+`+ @.@+@@@                                        ",
"      + #@$@%@+                           &@*@=@-@;@>@,@                                        ",
"      + '@)@!@~@                              {@]@^@/@(@                                        ",
"      + _@:@<@~@                                [@}@|@1@                                        ",
"      + 2@3@4@~@                                  5@6@7@                                        ",
"      + 8@9@8@~@                                    0@7@                                        ",
"      . + + + a@                                      b@                                        ",
"                                                                                                ",
"                                                                                                ",
"                                                                                                ",
"                                                                                                ",
"                                                                                                ",
"                                                                                                ",
"                                                                                                ",
"                                                                                                "};
