/* XPM */
static char * go_last_xpm[] = {
"48 48 317 2",
"  	c None",
". 	c #2D7213",
"+ 	c #2D7410",
"@ 	c #40871B",
"# 	c #4F8F29",
"$ 	c #6BA53F",
"% 	c #C3ED8D",
"& 	c #4C8E28",
"* 	c #CCF094",
"= 	c #7AB34B",
"- 	c #A3DA53",
"; 	c #4B8E25",
"> 	c #D1F596",
", 	c #CEF393",
"' 	c #83BA52",
") 	c #C1EC8B",
"! 	c #A3DA52",
"~ 	c #C2ED8B",
"{ 	c #498C23",
"] 	c #CBF290",
"^ 	c #BEF072",
"/ 	c #C8F28B",
"( 	c #90C55C",
"_ 	c #3C831C",
": 	c #C1EC89",
"< 	c #A2D952",
"[ 	c #C0EC8A",
"} 	c #478B21",
"| 	c #C7F08B",
"1 	c #B6EC66",
"2 	c #C4F083",
"3 	c #9BCE64",
"4 	c #428820",
"5 	c #BFEB87",
"6 	c #A1D951",
"7 	c #458A1F",
"8 	c #C2EE85",
"9 	c #B1E960",
"0 	c #AFE95D",
"a 	c #B0E95E",
"b 	c #BCED78",
"c 	c #A4D769",
"d 	c #4C9226",
"e 	c #BFEB85",
"f 	c #A1D851",
"g 	c #448A1D",
"h 	c #BEEC80",
"i 	c #ACE75A",
"j 	c #AAE757",
"k 	c #B4EA6B",
"l 	c #A8DC6C",
"m 	c #559929",
"n 	c #BDEA83",
"o 	c #A0D850",
"p 	c #307711",
"q 	c #4A9022",
"r 	c #499021",
"s 	c #559B28",
"t 	c #B9EA7B",
"u 	c #A6E554",
"v 	c #A4E451",
"w 	c #ADE761",
"x 	c #ACE06C",
"y 	c #5EA02E",
"z 	c #BDEA81",
"A 	c #A0D750",
"B 	c #BCE982",
"C 	c #40881A",
"D 	c #BEEB87",
"E 	c #BCEA83",
"F 	c #BCEA82",
"G 	c #BBEA81",
"H 	c #BAE97F",
"I 	c #B9E97E",
"J 	c #B9E97D",
"K 	c #B8E97C",
"L 	c #B7E97A",
"M 	c #B6E878",
"N 	c #B6E877",
"O 	c #A1E250",
"P 	c #9FE14D",
"Q 	c #A5E358",
"R 	c #ACE26B",
"S 	c #68AA35",
"T 	c #BBEA7F",
"U 	c #A0D74F",
"V 	c #BBE97F",
"W 	c #3E8618",
"X 	c #B9E883",
"Y 	c #9ADD4A",
"Z 	c #9ADD49",
"` 	c #9EDE4F",
" .	c #AAE168",
"..	c #72B23E",
"+.	c #317B12",
"@.	c #9FD64F",
"#.	c #3C8517",
"$.	c #B5E57F",
"%.	c #95D946",
"&.	c #95D945",
"*.	c #97DA49",
"=.	c #A4DE61",
"-.	c #7BBC43",
";.	c #357E14",
">.	c #B8E77A",
",.	c #9FD64E",
"'.	c #3B8415",
").	c #B1E27B",
"!.	c #90D542",
"~.	c #90D541",
"{.	c #91D542",
"].	c #9EDA59",
"^.	c #81C146",
"/.	c #3C8317",
"(.	c #B7E779",
"_.	c #9ED54D",
":.	c #3A8215",
"<.	c #ADDF78",
"[.	c #8BD23F",
"}.	c #8BD23E",
"|.	c #96D651",
"1.	c #87C64A",
"2.	c #42891B",
"3.	c #B7E776",
"4.	c #B6E676",
"5.	c #378114",
"6.	c #A8DC73",
"7.	c #86CE3B",
"8.	c #86CE3A",
"9.	c #8FD148",
"0.	c #8ACA4C",
"a.	c #49921E",
"b.	c #B4E674",
"c.	c #9DD44C",
"d.	c #B5E674",
"e.	c #368013",
"f.	c #A4D96F",
"g.	c #81CA37",
"h.	c #81CA36",
"i.	c #87CD40",
"j.	c #8ACA4A",
"k.	c #4F9721",
"l.	c #B3E571",
"m.	c #B3E572",
"n.	c #347E11",
"o.	c #A0D66B",
"p.	c #7EC734",
"q.	c #7DC733",
"r.	c #81C939",
"s.	c #88CA47",
"t.	c #569E24",
"u.	c #3F8519",
"v.	c #B2E56F",
"w.	c #9CD34B",
"x.	c #B2E570",
"y.	c #337D10",
"z.	c #9BD366",
"A.	c #78C32F",
"B.	c #7DC537",
"C.	c #7FC440",
"D.	c #4A951E",
"E.	c #B0E46C",
"F.	c #9BD34B",
"G.	c #B1E36D",
"H.	c #327B0F",
"I.	c #97D063",
"J.	c #73BF2B",
"K.	c #7AC235",
"L.	c #77BC3A",
"M.	c #3F8A17",
"N.	c #AFE36B",
"O.	c #9BD24A",
"P.	c #2F7A0D",
"Q.	c #92CC5E",
"R.	c #6EBB27",
"S.	c #77BF35",
"T.	c #6DB332",
"U.	c #378112",
"V.	c #AEE268",
"W.	c #9AD14A",
"X.	c #AEE269",
"Y.	c #2E7A0C",
"Z.	c #8DCA5A",
"`.	c #69B824",
" +	c #6AB825",
".+	c #74BD34",
"++	c #61A92A",
"@+	c #ACE165",
"#+	c #9AD149",
"$+	c #ACE266",
"%+	c #2B770B",
"&+	c #87C456",
"*+	c #62B221",
"=+	c #64B324",
"-+	c #70B834",
";+	c #549F22",
">+	c #26730A",
",+	c #ABE164",
"'+	c #99D149",
")+	c #ABE264",
"!+	c #28760B",
"~+	c #7FC053",
"{+	c #5AAD1F",
"]+	c #5DAF23",
"^+	c #67B232",
"/+	c #46921C",
"(+	c #216E08",
"_+	c #AAE060",
":+	c #99D048",
"<+	c #AAE061",
"[+	c #277509",
"}+	c #79BB50",
"|+	c #56A821",
"1+	c #55A820",
"2+	c #54A81F",
"3+	c #53A71D",
"4+	c #58AA24",
"5+	c #61AC2F",
"6+	c #398715",
"7+	c #A8DF5F",
"8+	c #98D048",
"9+	c #A8DE5F",
"0+	c #247209",
"a+	c #70B449",
"b+	c #6FB348",
"c+	c #6EB347",
"d+	c #6EB346",
"e+	c #6DB245",
"f+	c #6CB244",
"g+	c #6BB142",
"h+	c #6AB141",
"i+	c #69B041",
"j+	c #69B040",
"k+	c #67AF3E",
"l+	c #67AF3D",
"m+	c #66AF3C",
"n+	c #65AE3B",
"o+	c #64AE39",
"p+	c #4DA21D",
"q+	c #4CA11B",
"r+	c #54A526",
"s+	c #56A32C",
"t+	c #307E11",
"u+	c #A7DE5C",
"v+	c #98CF47",
"w+	c #1A6605",
"x+	c #216E07",
"y+	c #26760A",
"z+	c #5BA734",
"A+	c #459D1A",
"B+	c #449C18",
"C+	c #4FA226",
"D+	c #4B9C25",
"E+	c #26760C",
"F+	c #A5DD5A",
"G+	c #97CF47",
"H+	c #A6DE5B",
"I+	c #1F6E08",
"J+	c #53A130",
"K+	c #3F9718",
"L+	c #3D9616",
"M+	c #3E9617",
"N+	c #4B9D26",
"O+	c #419220",
"P+	c #217108",
"Q+	c #A4DC57",
"R+	c #97CE46",
"S+	c #A4DD58",
"T+	c #1C6A07",
"U+	c #4B9B2E",
"V+	c #379116",
"W+	c #359014",
"X+	c #449826",
"Y+	c #36891A",
"Z+	c #1A6806",
"`+	c #A2DC55",
" @	c #96CE46",
".@	c #A2DB56",
"+@	c #1A6907",
"@@	c #43962A",
"#@	c #308C14",
"$@	c #328D17",
"%@	c #3F9526",
"&@	c #2C7F14",
"*@	c #156003",
"=@	c #A1DB52",
"-@	c #96CD45",
";@	c #A1DB53",
">@	c #176505",
",@	c #3A8F26",
"'@	c #2D8917",
")@	c #378E23",
"!@	c #22750F",
"~@	c #145A02",
"{@	c #3F871A",
"]@	c #9FDA50",
"^@	c #95CD45",
"/@	c #A0DA51",
"(@	c #156305",
"_@	c #328923",
":@	c #2F861F",
"<@	c #1A6C0A",
"[@	c #9ED84D",
"}@	c #95CC44",
"|@	c #9ED84E",
"1@	c #136204",
"2@	c #2A831A",
"3@	c #176707",
"4@	c #9CD84B",
"5@	c #94CB44",
"6@	c #9CD84C",
"7@	c #136304",
"8@	c #146705",
"9@	c #9EDD4C",
"0@	c #9BD749",
"a@	c #0F5402",
"b@	c #2C7410",
"                                                                                                ",
"                                                                                                ",
"                                                                                                ",
"                                                                                                ",
"                                                                                                ",
"                                                                                                ",
"                                        .                                       + @ @ @ +       ",
"                                        # $                                     @ % % % @       ",
"                                        & * =                                   @ % - % @       ",
"                                        ; > , '                                 @ ) ! ~ @       ",
"                                        { ] ^ / ( _                             @ : < [ @       ",
"                                        } | 1 1 2 3 4                           @ 5 6 5 @       ",
"                                        7 8 9 0 a b c d                         @ e f e @       ",
"                                        g h i j j j k l m                       @ n o n @       ",
"          p q q q q r r r r r r r r r r s t u v v v v w x y                     @ z A B @       ",
"          C D E F G G H H I J K K L L M M N O P P P P P Q R S                   @ T U V @       ",
"          W X Y Z Z Z Z Z Z Z Z Z Z Z Z Z Z Z Z Z Z Z Z Z `  ...+.              @ J @.J @       ",
"          #.$.%.&.&.&.&.&.&.&.&.&.&.&.&.&.&.&.&.&.&.&.&.&.&.*.=.-.;.            @ >.,.>.@       ",
"          '.).!.~.~.~.~.~.~.~.~.~.~.~.~.~.~.~.~.~.~.~.~.~.~.~.{.].^./.          @ (._.(.@       ",
"          :.<.[.}.}.}.}.}.}.}.}.}.}.}.}.}.}.}.}.}.}.}.}.}.}.}.}.[.|.1.2.        @ 3._.4.@       ",
"          5.6.7.8.8.8.8.8.8.8.8.8.8.8.8.8.8.8.8.8.8.8.8.8.8.8.8.8.8.9.0.a.      @ b.c.d.@       ",
"          e.f.g.h.h.h.h.h.h.h.h.h.h.h.h.h.h.h.h.h.h.h.h.h.h.h.h.h.h.h.i.j.k.    @ l.c.m.@       ",
"          n.o.p.q.q.q.q.q.q.q.q.q.q.q.q.q.q.q.q.q.q.q.q.q.q.q.q.q.q.q.q.r.s.t.  u.v.w.x.@       ",
"          y.z.A.A.A.A.A.A.A.A.A.A.A.A.A.A.A.A.A.A.A.A.A.A.A.A.A.A.A.A.A.B.C.D.  @ E.F.G.@       ",
"          H.I.J.J.J.J.J.J.J.J.J.J.J.J.J.J.J.J.J.J.J.J.J.J.J.J.J.J.J.J.K.L.M.    @ N.O.N.@       ",
"          P.Q.R.R.R.R.R.R.R.R.R.R.R.R.R.R.R.R.R.R.R.R.R.R.R.R.R.R.R.S.T.U.      @ V.W.X.@       ",
"          Y.Z.`.`.`.`.`.`.`.`.`.`.`.`.`.`.`.`.`.`.`.`.`.`.`.`.`. +.+++P.        @ @+#+$+@       ",
"          %+&+*+*+*+*+*+*+*+*+*+*+*+*+*+*+*+*+*+*+*+*+*+*+*+*+=+-+;+>+          @ ,+'+)+@       ",
"          !+~+{+{+{+{+{+{+{+{+{+{+{+{+{+{+{+{+{+{+{+{+{+{+{+]+^+/+(+            @ _+:+<+@       ",
"          [+}+|+|+|+|+|+1+1+1+1+1+1+1+1+2+2+3+3+3+3+3+3+3+4+5+6+                @ 7+8+9+@       ",
"          0+a+b+c+d+e+f+g+h+i+j+k+l+m+n+o+n+p+q+q+q+q+q+r+s+t+                  @ u+v+u+@       ",
"          w+x+x+x+x+x+x+x+x+x+x+x+x+x+x+y+z+A+B+B+B+B+C+D+E+                    @ F+G+H+@       ",
"                                        I+J+K+L+L+M+N+O+P+                      @ Q+R+S+@       ",
"                                        T+U+V+W+V+X+Y+Z+                        @ `+ @.@@       ",
"                                        +@@@#@$@%@&@*@                          @ =@-@;@@       ",
"                                        >@,@'@)@!@~@                            {@]@^@/@@       ",
"                                        (@_@:@<@                                {@[@}@|@@       ",
"                                        1@2@3@                                  {@4@5@6@@       ",
"                                        7@8@                                    {@9@0@9@@       ",
"                                        a@                                      b@@ @ @ +       ",
"                                                                                                ",
"                                                                                                ",
"                                                                                                ",
"                                                                                                ",
"                                                                                                ",
"                                                                                                ",
"                                                                                                ",
"                                                                                                "};
