/* XPM */
static char * go_previous_xpm[] = {
"48 48 275 2",
"  	c None",
". 	c #599832",
"+ 	c #51912B",
"@ 	c #6DA742",
"# 	c #C7EB93",
"$ 	c #52912C",
"% 	c #7CB24E",
"& 	c #CFF19A",
"* 	c #D9F8A5",
"= 	c #51912A",
"- 	c #3B801B",
"; 	c #8BBF5B",
"> 	c #D1F49A",
", 	c #C4F378",
"' 	c #D6F6A1",
") 	c #509129",
"! 	c #458722",
"~ 	c #9DCD69",
"{ 	c #CEF393",
"] 	c #BFF071",
"^ 	c #BDF06C",
"/ 	c #D4F59F",
"( 	c #4E8F27",
"_ 	c #4D8D28",
": 	c #ABD777",
"< 	c #C9F28C",
"[ 	c #BAEE6A",
"} 	c #B9EE68",
"| 	c #D1F49C",
"1 	c #4C8F26",
"2 	c #5A9932",
"3 	c #B5E182",
"4 	c #C4F083",
"5 	c #B5EC65",
"6 	c #B5EC64",
"7 	c #CFF399",
"8 	c #4B8E25",
"9 	c #68A63B",
"0 	c #BEE889",
"a 	c #BBED74",
"b 	c #B1EA5F",
"c 	c #CCF196",
"d 	c #4A8E23",
"e 	c #77B246",
"f 	c #C2EB8B",
"g 	c #B4EA6A",
"h 	c #ADE85B",
"i 	c #C9F094",
"j 	c #488D21",
"k 	c #367C16",
"l 	c #84BD50",
"m 	c #C1ED89",
"n 	c #AEE860",
"o 	c #A9E757",
"p 	c #C7EF91",
"q 	c #478D20",
"r 	c #42891E",
"s 	c #96CC60",
"t 	c #BEEC82",
"u 	c #A7E658",
"v 	c #A5E553",
"w 	c #C4EE8E",
"x 	c #559B27",
"y 	c #438A1D",
"z 	c #438B1D",
"A 	c #337B15",
"B 	c #498E22",
"C 	c #A3D76E",
"D 	c #B6E977",
"E 	c #A2E350",
"F 	c #A1E34F",
"G 	c #C0EC89",
"H 	c #BDE986",
"I 	c #BAE784",
"J 	c #B8E781",
"K 	c #458B1D",
"L 	c #569A2B",
"M 	c #ABDC76",
"N 	c #AFE56B",
"O 	c #9EE04C",
"P 	c #A0E04F",
"Q 	c #A0E150",
"R 	c #BFEA88",
"S 	c #63A634",
"T 	c #B2E07B",
"U 	c #A7E15F",
"V 	c #9BDD49",
"W 	c #BCE885",
"X 	c #42891C",
"Y 	c #6FAF3E",
"Z 	c #B3E37C",
"` 	c #9FDE55",
" .	c #97DB47",
"..	c #B8E782",
"+.	c #40871A",
"@.	c #347C12",
"#.	c #7CBA49",
"$.	c #B0E377",
"%.	c #99DA4D",
"&.	c #94D844",
"*.	c #B5E47E",
"=.	c #3F8719",
"-.	c #3E851A",
";.	c #8CC757",
">.	c #ABE06F",
",.	c #93D746",
"'.	c #90D642",
").	c #B2E27B",
"!.	c #3E8619",
"~.	c #468E1E",
"{.	c #95CD5F",
"].	c #A2DB63",
"^.	c #8ED341",
"/.	c #8DD33F",
"(.	c #AFE077",
"_.	c #3C8518",
":.	c #519725",
"<.	c #9CD366",
"[.	c #9AD758",
"}.	c #89D03C",
"|.	c #ABDD74",
"1.	c #3B8316",
"2.	c #5DA12D",
"3.	c #A1D76A",
"4.	c #92D34D",
"5.	c #86CE3A",
"6.	c #A8DC71",
"7.	c #3A8315",
"8.	c #2C740F",
"9.	c #68AB36",
"0.	c #9FD668",
"a.	c #8ACE44",
"b.	c #82CB37",
"c.	c #A3D96C",
"d.	c #398215",
"e.	c #27710B",
"f.	c #65A931",
"g.	c #A0D668",
"h.	c #84CA3C",
"i.	c #7FC834",
"j.	c #A0D669",
"k.	c #398114",
"l.	c #347D13",
"m.	c #77B744",
"n.	c #95D15A",
"o.	c #7EC736",
"p.	c #7BC632",
"q.	c #9CD465",
"r.	c #378112",
"s.	c #2D770C",
"t.	c #66AA34",
"u.	c #94D05C",
"v.	c #7DC537",
"w.	c #78C32F",
"x.	c #99D262",
"y.	c #368012",
"z.	c #589D28",
"A.	c #90CB58",
"B.	c #7EC53A",
"C.	c #75C12D",
"D.	c #95D05E",
"E.	c #357E11",
"F.	c #48911E",
"G.	c #88C651",
"H.	c #7EC43E",
"I.	c #71BE2A",
"J.	c #91CD5A",
"K.	c #337D10",
"L.	c #3C8516",
"M.	c #7CBD48",
"N.	c #80C442",
"O.	c #6EBB27",
"P.	c #8DCA56",
"Q.	c #337C0E",
"R.	c #317D0F",
"S.	c #6EB23B",
"T.	c #80C345",
"U.	c #6BBA27",
"V.	c #6AB925",
"W.	c #89C852",
"X.	c #327C0E",
"Y.	c #2B760B",
"Z.	c #5FA72F",
"`.	c #7FC147",
" +	c #6AB827",
".+	c #66B622",
"++	c #85C54E",
"@+	c #317A0D",
"#+	c #247008",
"$+	c #4E9823",
"%+	c #7BBD46",
"&+	c #67B52A",
"*+	c #61B221",
"=+	c #7FC14C",
"-+	c #2E7A0C",
";+	c #418D1B",
">+	c #74B843",
",+	c #66B32C",
"'+	c #5CAE1F",
")+	c #7ABD48",
"!+	c #2C780C",
"~+	c #368214",
"{+	c #69B13D",
"]+	c #63B130",
"^+	c #56AA1E",
"/+	c #70B740",
"(+	c #72B843",
"_+	c #73B945",
":+	c #29770C",
"<+	c #2C780E",
"[+	c #5DA733",
"}+	c #63AF33",
"|+	c #52A61D",
"1+	c #51A61C",
"2+	c #6EB541",
"3+	c #338311",
"4+	c #29790D",
"5+	c #28780C",
"6+	c #206C06",
"7+	c #24710A",
"8+	c #4F9C29",
"9+	c #61AD36",
"0+	c #4DA31D",
"a+	c #4CA21B",
"b+	c #68B13F",
"c+	c #26730A",
"d+	c #1E6705",
"e+	c #418E1E",
"f+	c #5EAB37",
"g+	c #4BA01E",
"h+	c #479E19",
"i+	c #62AC3B",
"j+	c #237109",
"k+	c #358317",
"l+	c #58A535",
"m+	c #489E20",
"n+	c #419A18",
"o+	c #5CA839",
"p+	c #216F09",
"q+	c #297910",
"r+	c #509F30",
"s+	c #469B22",
"t+	c #3C9616",
"u+	c #56A435",
"v+	c #206D09",
"w+	c #22700B",
"x+	c #459628",
"y+	c #459A26",
"z+	c #379215",
"A+	c #4F9F31",
"B+	c #1E6B09",
"C+	c #1C6708",
"D+	c #3A8D21",
"E+	c #429726",
"F+	c #338E14",
"G+	c #328E13",
"H+	c #499B2E",
"I+	c #1C6908",
"J+	c #176006",
"K+	c #2F821A",
"L+	c #3E9426",
"M+	c #2E8B14",
"N+	c #42962B",
"O+	c #1B6808",
"P+	c #165A05",
"Q+	c #267912",
"R+	c #3A8F24",
"S+	c #3C9227",
"T+	c #186706",
"U+	c #1E730D",
"V+	c #348A21",
"W+	c #166505",
"X+	c #166905",
"Y+	c #156405",
"Z+	c #115D03",
"                                                                                                ",
"                                                                                                ",
"                                                  . +                                           ",
"                                                @ # $                                           ",
"                                              % & * =                                           ",
"                                          - ; > , ' )                                           ",
"                                        ! ~ { ] ^ / (                                           ",
"                                      _ : < [ } } | 1                                           ",
"                                    2 3 4 5 6 6 6 7 8                                           ",
"                                  9 0 a b b b b b c d                                           ",
"                                e f g h h h h h h i j                                           ",
"                            k l m n o o o o o o o p q                                           ",
"                          r s t u v v v v v v v v w x y z z z z z z z z z z z z z z z z z z A   ",
"                        B C D E F F F F F F F F F G H I I I I I I I I I I I I I I I I I I J K   ",
"                      L M N O O O O O O O O O O O P Q Q Q Q Q Q Q Q Q Q Q Q Q Q Q Q Q Q Q R y   ",
"                    S T U V V V V V V V V V V V V V V V V V V V V V V V V V V V V V V V V W X   ",
"                  Y Z `  . . . . . . . . . . . . . . . . . . . . . . . . . . . . . . . . ...+.  ",
"              @.#.$.%.&.&.&.&.&.&.&.&.&.&.&.&.&.&.&.&.&.&.&.&.&.&.&.&.&.&.&.&.&.&.&.&.&.&.*.=.  ",
"            -.;.>.,.'.'.'.'.'.'.'.'.'.'.'.'.'.'.'.'.'.'.'.'.'.'.'.'.'.'.'.'.'.'.'.'.'.'.'.).!.  ",
"          ~.{.].^././././././././././././././././././././././././././././././././././././.(._.  ",
"        :.<.[.}.}.}.}.}.}.}.}.}.}.}.}.}.}.}.}.}.}.}.}.}.}.}.}.}.}.}.}.}.}.}.}.}.}.}.}.}.}.|.1.  ",
"      2.3.4.5.5.5.5.5.5.5.5.5.5.5.5.5.5.5.5.5.5.5.5.5.5.5.5.5.5.5.5.5.5.5.5.5.5.5.5.5.5.5.6.7.  ",
"  8.9.0.a.b.b.b.b.b.b.b.b.b.b.b.b.b.b.b.b.b.b.b.b.b.b.b.b.b.b.b.b.b.b.b.b.b.b.b.b.b.b.b.b.c.d.  ",
"e.f.g.h.i.i.i.i.i.i.i.i.i.i.i.i.i.i.i.i.i.i.i.i.i.i.i.i.i.i.i.i.i.i.i.i.i.i.i.i.i.i.i.i.i.j.k.  ",
"  l.m.n.o.p.p.p.p.p.p.p.p.p.p.p.p.p.p.p.p.p.p.p.p.p.p.p.p.p.p.p.p.p.p.p.p.p.p.p.p.p.p.p.p.q.r.  ",
"    s.t.u.v.w.w.w.w.w.w.w.w.w.w.w.w.w.w.w.w.w.w.w.w.w.w.w.w.w.w.w.w.w.w.w.w.w.w.w.w.w.w.w.x.y.  ",
"        z.A.B.C.C.C.C.C.C.C.C.C.C.C.C.C.C.C.C.C.C.C.C.C.C.C.C.C.C.C.C.C.C.C.C.C.C.C.C.C.C.D.E.  ",
"          F.G.H.I.I.I.I.I.I.I.I.I.I.I.I.I.I.I.I.I.I.I.I.I.I.I.I.I.I.I.I.I.I.I.I.I.I.I.I.I.J.K.  ",
"            L.M.N.O.O.O.O.O.O.O.O.O.O.O.O.O.O.O.O.O.O.O.O.O.O.O.O.O.O.O.O.O.O.O.O.O.O.O.O.P.Q.  ",
"              R.S.T.U.V.V.V.V.V.V.V.V.V.V.V.V.V.V.V.V.V.V.V.V.V.V.V.V.V.V.V.V.V.V.V.V.V.V.W.X.  ",
"                Y.Z.`. +.+.+.+.+.+.+.+.+.+.+.+.+.+.+.+.+.+.+.+.+.+.+.+.+.+.+.+.+.+.+.+.+.+++@+  ",
"                  #+$+%+&+*+*+*+*+*+*+*+*+*+*+*+*+*+*+*+*+*+*+*+*+*+*+*+*+*+*+*+*+*+*+*+*+=+-+  ",
"                      ;+>+,+'+'+'+'+'+'+'+'+'+'+'+'+'+'+'+'+'+'+'+'+'+'+'+'+'+'+'+'+'+'+'+)+!+  ",
"                        ~+{+]+^+^+^+^+^+^+^+^+^+^+/+(+(+(+(+(+(+(+(+(+(+(+(+(+(+(+(+(+(+(+_+:+  ",
"                          <+[+}+|+1+1+1+1+1+1+1+1+2+3+4+4+4+4+4+4+4+4+4+4+4+4+4+4+4+4+4+4+5+6+  ",
"                            7+8+9+0+a+a+a+a+a+a+a+b+c+                                          ",
"                              d+e+f+g+h+h+h+h+h+h+i+j+                                          ",
"                                  k+l+m+n+n+n+n+n+o+p+                                          ",
"                                    q+r+s+t+t+t+t+u+v+                                          ",
"                                      w+x+y+z+z+z+A+B+                                          ",
"                                        C+D+E+F+G+H+I+                                          ",
"                                          J+K+L+M+N+O+                                          ",
"                                            P+Q+R+S+T+                                          ",
"                                                U+V+W+                                          ",
"                                                  X+Y+                                          ",
"                                                    Z+                                          ",
"                                                                                                ",
"                                                                                                "};
