/* XPM */
static char * go_top_xpm[] = {
"48 48 260 2",
"  	c None",
". 	c #35791A",
"+ 	c #4E8E29",
"@ 	c #DFFAAC",
"# 	c #BFE772",
"$ 	c #BFE771",
"% 	c #BEE671",
"& 	c #BDE670",
"* 	c #BDE570",
"= 	c #BCE56F",
"- 	c #BCE46F",
"; 	c #BCE46E",
"> 	c #BBE36E",
", 	c #BBE36D",
"' 	c #BAE26C",
") 	c #B9E16B",
"! 	c #B8E06A",
"~ 	c #B7E06A",
"{ 	c #B7DF69",
"] 	c #B6DE69",
"^ 	c #B6DE68",
"/ 	c #B5DE68",
"( 	c #B5DD67",
"_ 	c #B4DD67",
": 	c #B4DC66",
"< 	c #B3DC66",
"[ 	c #B3DB65",
"} 	c #B2DB65",
"| 	c #B2DA64",
"1 	c #B1DA64",
"2 	c #B1D963",
"3 	c #B0D863",
"4 	c #4D8C29",
"5 	c #4D8D29",
"6 	c #7EB54F",
"7 	c #80B652",
"8 	c #6BA53F",
"9 	c #CFF196",
"0 	c #D0F296",
"a 	c #70A942",
"b 	c #5B9B34",
"c 	c #C4EB8C",
"d 	c #C9F481",
"e 	c #C9F47F",
"f 	c #C6EC8C",
"g 	c #5F9D36",
"h 	c #4F912A",
"i 	c #B7E27F",
"j 	c #C6F380",
"k 	c #BEF16E",
"l 	c #C5F27D",
"m 	c #B8E47F",
"n 	c #509129",
"o 	c #438720",
"p 	c #A6D76F",
"q 	c #C5F181",
"r 	c #B9EE68",
"s 	c #C3F07D",
"t 	c #A8D86E",
"u 	c #438722",
"v 	c #38801A",
"w 	c #98CC60",
"x 	c #C2F080",
"y 	c #B4EC63",
"z 	c #B4EC62",
"A 	c #C0EF7C",
"B 	c #95CB5D",
"C 	c #378018",
"D 	c #83BE4F",
"E 	c #BFEE7F",
"F 	c #AFE95F",
"G 	c #AEE95D",
"H 	c #AFE95E",
"I 	c #BDED7A",
"J 	c #84BF4E",
"K 	c #73B141",
"L 	c #BCEB7C",
"M 	c #ABE85B",
"N 	c #A9E757",
"O 	c #ABE75A",
"P 	c #B8EB76",
"Q 	c #71B03D",
"R 	c #63A633",
"S 	c #B7E678",
"T 	c #A8E559",
"U 	c #A4E451",
"V 	c #A7E557",
"W 	c #B1E66F",
"X 	c #61A432",
"Y 	c #549829",
"Z 	c #ADE070",
"` 	c #A5E359",
" .	c #9FE14D",
"..	c #A4E356",
"+.	c #A7DE66",
"@.	c #549A27",
"#.	c #488F20",
"$.	c #A2D867",
"%.	c #A3E059",
"&.	c #9ADD49",
"*.	c #A1DF56",
"=.	c #9BD55C",
"-.	c #458D1E",
";.	c #3B8419",
">.	c #96CF5D",
",.	c #A2DE5B",
"'.	c #96DA46",
").	c #A0DD57",
"!.	c #8ECC50",
"~.	c #3C8518",
"{.	c #367E12",
"].	c #85C34F",
"^.	c #A1DC5E",
"/.	c #91D642",
"(.	c #9DDA56",
"_.	c #80C044",
":.	c #347D11",
"<.	c #2D760E",
"[.	c #77B743",
"}.	c #A0DA5F",
"|.	c #8CD23F",
"1.	c #8CD23E",
"2.	c #9AD755",
"3.	c #6EB137",
"4.	c #67AA37",
"5.	c #9ED761",
"6.	c #89D03E",
"7.	c #87CF3B",
"8.	c #88D03D",
"9.	c #94D552",
"0.	c #5EA52C",
"a.	c #599D2A",
"b.	c #9BD45F",
"c.	c #86CC3C",
"d.	c #83CB37",
"e.	c #85CC3B",
"f.	c #8FCF4C",
"g.	c #539923",
"h.	c #4E9422",
"i.	c #95D05C",
"j.	c #85CB3F",
"k.	c #80C937",
"l.	c #7EC834",
"m.	c #7FC836",
"n.	c #83CA3C",
"o.	c #87CA46",
"p.	c #47901C",
"q.	c #408A19",
"r.	c #8AC853",
"s.	c #95D05B",
"t.	c #94D05A",
"u.	c #94D059",
"v.	c #93D059",
"w.	c #92CF57",
"x.	c #92CF56",
"y.	c #7AC431",
"z.	c #79C430",
"A.	c #8BCC4C",
"B.	c #89CB48",
"C.	c #88CB48",
"D.	c #88CA47",
"E.	c #87CA45",
"F.	c #86CA44",
"G.	c #7ABF3C",
"H.	c #3A8514",
"I.	c #1D6907",
"J.	c #337D10",
"K.	c #3B8713",
"L.	c #8DCB54",
"M.	c #76C12E",
"N.	c #75C12D",
"O.	c #86C947",
"P.	c #3F8B15",
"Q.	c #1A6506",
"R.	c #307B0D",
"S.	c #88C84F",
"T.	c #70BD29",
"U.	c #80C541",
"V.	c #348110",
"W.	c #2F790C",
"X.	c #84C44B",
"Y.	c #6BB925",
"Z.	c #7BC13D",
"`.	c #33800E",
" +	c #2D780C",
".+	c #7FC046",
"++	c #66B522",
"@+	c #75BC38",
"#+	c #307E0D",
"$+	c #2B770B",
"%+	c #78BB43",
"&+	c #5FB020",
"*+	c #6EB735",
"=+	c #2E7C0D",
"-+	c #28750B",
";+	c #71B740",
">+	c #58AB1E",
",+	c #66B231",
"'+	c #2B7A0C",
")+	c #257309",
"!+	c #69B13C",
"~+	c #50A51C",
"{+	c #5EAC2E",
"]+	c #29780A",
"^+	c #237109",
"/+	c #61AC39",
"(+	c #49A01A",
"_+	c #56A72A",
":+	c #267609",
"<+	c #217008",
"[+	c #5AA635",
"}+	c #429A18",
"|+	c #4EA026",
"1+	c #237409",
"2+	c #1E6C08",
"3+	c #52A031",
"4+	c #3B9516",
"5+	c #469B23",
"6+	c #1F7108",
"7+	c #1C6A07",
"8+	c #4A9A2E",
"9+	c #348F14",
"0+	c #3E941F",
"a+	c #1C6D08",
"b+	c #196907",
"c+	c #42952A",
"d+	c #2D8A12",
"e+	c #358F1B",
"f+	c #1A6C06",
"g+	c #176505",
"h+	c #3A8F26",
"i+	c #268510",
"j+	c #2D8917",
"k+	c #176906",
"l+	c #156404",
"m+	c #318922",
"n+	c #1E7F0D",
"o+	c #238213",
"p+	c #146705",
"q+	c #136404",
"r+	c #2F8720",
"s+	c #2F8820",
"t+	c #2D871E",
"u+	c #2C871D",
"v+	c #2B861C",
"w+	c #2A861B",
"x+	c #29851A",
"y+	c #298519",
"z+	c #288418",
"A+	c #278417",
"B+	c #268316",
"C+	c #258316",
"D+	c #248215",
"E+	c #238214",
"F+	c #228113",
"G+	c #218112",
"H+	c #136605",
"I+	c #125F03",
"J+	c #136304",
"K+	c #136204",
"                                                                                                ",
"                                                                                                ",
"                                                                                                ",
"              . + + + + + + + + + + + + + + + + + + + + + + + + + + + + + + + + .               ",
"              + @ @ @ @ @ @ @ @ @ @ @ @ @ @ @ @ @ @ @ @ @ @ @ @ @ @ @ @ @ @ @ @ +               ",
"              + @ # $ % & * = - ; > , ' ' ) ) ! ~ { ] ^ / ( _ : < [ } | 1 2 3 @ +               ",
"              + @ @ @ @ @ @ @ @ @ @ @ @ @ @ @ @ @ @ @ @ @ @ @ @ @ @ @ @ @ @ @ @ +               ",
"              . + + + + + + + + + + + + + + + 4 5 + + + + + + + + + + + + + + + .               ",
"                                                                                                ",
"                                              6 7                                               ",
"                                            8 9 0 a                                             ",
"                                          b c d e f g                                           ",
"                                        h i j k k l m n                                         ",
"                                      o p q r r r r s t u                                       ",
"                                    v w x y z z z z z A B C                                     ",
"                                    D E F G G G G G G H I J                                     ",
"                                  K L M N N N N N N N N O P Q                                   ",
"                                R S T U U U U U U U U U U V W X                                 ",
"                              Y Z `  . . . . . . . . . . . ...+.@.                              ",
"                            #.$.%.&.&.&.&.&.&.&.&.&.&.&.&.&.&.*.=.-.                            ",
"                          ;.>.,.'.'.'.'.'.'.'.'.'.'.'.'.'.'.'.'.).!.~.                          ",
"                        {.].^././././././././././././././././././.(._.:.                        ",
"                      <.[.}.|.1.1.1.1.1.1.1.1.1.1.1.1.1.1.1.1.1.1.|.2.3.                        ",
"                      4.5.6.7.7.7.7.7.7.7.7.7.7.7.7.7.7.7.7.7.7.7.7.8.9.0.                      ",
"                    a.b.c.d.d.d.d.d.d.d.d.d.d.d.d.d.d.d.d.d.d.d.d.d.d.e.f.g.                    ",
"                  h.i.j.k.k.k.k.k.l.l.l.l.l.l.l.l.l.l.l.l.l.l.m.m.m.m.m.n.o.p.                  ",
"                q.r.s.t.u.v.w.x.v.y.z.z.z.z.z.z.z.z.z.z.z.z.z.A.B.C.D.o.E.F.G.H.                ",
"              I.J.J.J.J.J.J.J.K.L.M.N.N.N.N.N.N.N.N.N.N.N.N.N.O.P.J.J.J.J.J.J.J.Q.              ",
"                              R.S.T.T.T.T.T.T.T.T.T.T.T.T.T.T.U.V.                              ",
"                              W.X.Y.Y.Y.Y.Y.Y.Y.Y.Y.Y.Y.Y.Y.Y.Z.`.                              ",
"                               +.+++++++++++++++++++++++++++++@+#+                              ",
"                              $+%+&+&+&+&+&+&+&+&+&+&+&+&+&+&+*+=+                              ",
"                              -+;+>+>+>+>+>+>+>+>+>+>+>+>+>+>+,+'+                              ",
"                              )+!+~+~+~+~+~+~+~+~+~+~+~+~+~+~+{+]+                              ",
"                              ^+/+(+(+(+(+(+(+(+(+(+(+(+(+(+(+_+:+                              ",
"                              <+[+}+}+}+}+}+}+}+}+}+}+}+}+}+}+|+1+                              ",
"                              2+3+4+4+4+4+4+4+4+4+4+4+4+4+4+4+5+6+                              ",
"                              7+8+9+9+9+9+9+9+9+9+9+9+9+9+9+9+0+a+                              ",
"                              b+c+d+d+d+d+d+d+d+d+d+d+d+d+d+d+e+f+                              ",
"                              g+h+i+i+i+i+i+i+i+i+i+i+i+i+i+i+j+k+                              ",
"                              l+m+n+n+n+n+n+n+n+n+n+n+n+n+n+n+o+p+                              ",
"                              q+r+s+t+u+v+w+x+y+z+A+B+C+D+E+F+G+H+                              ",
"                              I+J+J+J+J+K+K+K+K+K+K+K+K+J+J+J+J+I+                              ",
"                                                                                                ",
"                                                                                                ",
"                                                                                                ",
"                                                                                                ",
"                                                                                                "};
