/* XPM */
static char * go_up_xpm[] = {
"48 48 196 2",
"  	c None",
". 	c #83B952",
"+ 	c #7AB14C",
"@ 	c #73AE46",
"# 	c #D4F49E",
"$ 	c #D1F29C",
"% 	c #6DA640",
"& 	c #66A239",
"* 	c #CBEE96",
"= 	c #C8F482",
"- 	c #C7EC93",
"; 	c #609E36",
"> 	c #589930",
", 	c #C2E88D",
"' 	c #C7F283",
") 	c #BDF06D",
"! 	c #C7F284",
"~ 	c #BDE489",
"{ 	c #53942B",
"] 	c #4E9127",
"^ 	c #B6E181",
"/ 	c #C6F185",
"( 	c #B9EE69",
"_ 	c #C7F186",
": 	c #B0DD7C",
"< 	c #4A8D24",
"[ 	c #42871F",
"} 	c #A9D872",
"| 	c #C6F087",
"1 	c #B5EC64",
"2 	c #A2D36E",
"3 	c #41841D",
"4 	c #398019",
"5 	c #9ACE64",
"6 	c #C5EF89",
"7 	c #B2EA61",
"8 	c #B1EA60",
"9 	c #94C960",
"0 	c #387E18",
"a 	c #8BC356",
"b 	c #C3EE87",
"c 	c #AEE85E",
"d 	c #ADE85B",
"e 	c #AFE85E",
"f 	c #C4EE89",
"g 	c #86BF52",
"h 	c #7BB749",
"i 	c #C1ED86",
"j 	c #ACE75C",
"k 	c #A9E657",
"l 	c #C0EC87",
"m 	c #76B445",
"n 	c #6CAC3B",
"o 	c #BCEA83",
"p 	c #A9E65A",
"q 	c #A5E552",
"r 	c #AAE65B",
"s 	c #BDEA83",
"t 	c #69AA38",
"u 	c #5FA130",
"v 	c #B6E57C",
"w 	c #A7E459",
"x 	c #A1E24E",
"y 	c #A8E45C",
"z 	c #5BA02E",
"A 	c #539729",
"B 	c #AFE178",
"C 	c #A6E35B",
"D 	c #9EE04C",
"E 	c #A8E35F",
"F 	c #AEDF76",
"G 	c #519626",
"H 	c #488F21",
"I 	c #A6D96F",
"J 	c #A5E15E",
"K 	c #9ADD49",
"L 	c #A7E160",
"M 	c #A4D86B",
"N 	c #448E1E",
"O 	c #3E851A",
"P 	c #9AD063",
"Q 	c #A4DF5F",
"R 	c #96DA46",
"S 	c #A7E064",
"T 	c #97CE60",
"U 	c #3D8519",
"V 	c #367E14",
"W 	c #8DC658",
"X 	c #A5DE63",
"Y 	c #93D743",
"Z 	c #A7DE66",
"` 	c #8AC655",
" .	c #377D13",
"..	c #2D7811",
"+.	c #81BD4D",
"@.	c #A4DD64",
"#.	c #8FD542",
"$.	c #8FD541",
"%.	c #90D542",
"&.	c #A6DE68",
"*.	c #7CBB48",
"=.	c #2F7A11",
"-.	c #72B240",
";.	c #A4DB66",
">.	c #8DD240",
",.	c #8CD23E",
"'.	c #8ED341",
").	c #A6DC6A",
"!.	c #70B23D",
"~.	c #65A736",
"{.	c #A2D966",
"].	c #8AD03E",
"^.	c #88CF3B",
"/.	c #8BD040",
"(.	c #A3D968",
"_.	c #63A632",
":.	c #579C2C",
"<.	c #9DD563",
"[.	c #87CD3D",
"}.	c #84CC38",
"|.	c #89CE41",
"1.	c #9FD666",
"2.	c #579C2A",
"3.	c #4D9424",
"4.	c #98D161",
"5.	c #86CC3E",
"6.	c #81CA36",
"7.	c #89CD43",
"8.	c #9AD261",
"9.	c #4C9420",
"0.	c #448C1D",
"a.	c #91CB5D",
"b.	c #9ED566",
"c.	c #7DC733",
"d.	c #91CC5B",
"e.	c #408B19",
"f.	c #226C08",
"g.	c #347E11",
"h.	c #418B17",
"i.	c #9AD262",
"j.	c #7AC430",
"k.	c #317C0F",
"l.	c #96D05F",
"m.	c #76C22E",
"n.	c #307C0F",
"o.	c #92CE5B",
"p.	c #72BF2B",
"q.	c #307A0D",
"r.	c #8FCB57",
"s.	c #6FBC28",
"t.	c #2E790C",
"u.	c #8BC854",
"v.	c #6BB925",
"w.	c #2D780C",
"x.	c #87C551",
"y.	c #67B623",
"z.	c #2B760B",
"A.	c #81C14D",
"B.	c #62B221",
"C.	c #29750B",
"D.	c #7BBE4B",
"E.	c #5CAE20",
"F.	c #287409",
"G.	c #77BA48",
"H.	c #57AA1E",
"I.	c #257209",
"J.	c #70B645",
"K.	c #51A61C",
"L.	c #247109",
"M.	c #6BB242",
"N.	c #4CA21B",
"O.	c #217008",
"P.	c #64AD3F",
"Q.	c #469D19",
"R.	c #206E08",
"S.	c #60A93D",
"T.	c #419918",
"U.	c #1E6C07",
"V.	c #59A53A",
"W.	c #3B9516",
"X.	c #1B6A07",
"Y.	c #53A136",
"Z.	c #369114",
"`.	c #1A6807",
" +	c #4C9D33",
".+	c #308D13",
"++	c #196605",
"@+	c #479931",
"#+	c #2B8911",
"$+	c #166505",
"%+	c #40932D",
"&+	c #135E05",
"*+	c #146404",
"=+	c #146304",
"-+	c #156305",
";+	c #156205",
"                                                                                                ",
"                                                                                                ",
"                                              . +                                               ",
"                                            @ # $ %                                             ",
"                                          & * = = - ;                                           ",
"                                        > , ' ) ) ! ~ {                                         ",
"                                      ] ^ / ( ( ( ( _ : <                                       ",
"                                    [ } | 1 1 1 1 1 1 | 2 3                                     ",
"                                  4 5 6 7 8 8 8 8 8 8 7 6 9 0                                   ",
"                                  a b c d d d d d d d d e f g                                   ",
"                                h i j k k k k k k k k k k j l m                                 ",
"                              n o p q q q q q q q q q q q q r s t                               ",
"                            u v w x x x x x x x x x x x x x x y v z                             ",
"                          A B C D D D D D D D D D D D D D D D D E F G                           ",
"                        H I J K K K K K K K K K K K K K K K K K K L M N                         ",
"                      O P Q R R R R R R R R R R R R R R R R R R R R S T U                       ",
"                    V W X Y Y Y Y Y Y Y Y Y Y Y Y Y Y Y Y Y Y Y Y Y Y Z `  .                    ",
"                  ..+.@.#.$.$.$.$.$.$.$.$.$.$.$.$.$.$.$.$.$.$.$.$.$.$.%.&.*.=.                  ",
"                  -.;.>.,.,.,.,.,.,.,.,.,.,.,.,.,.,.,.,.,.,.,.,.,.,.,.,.'.).!.                  ",
"                ~.{.].^.^.^.^.^.^.^.^.^.^.^.^.^.^.^.^.^.^.^.^.^.^.^.^.^.^./.(._.                ",
"              :.<.[.}.}.}.}.}.}.}.}.}.}.}.}.}.}.}.}.}.}.}.}.}.}.}.}.}.}.}.}.|.1.2.              ",
"            3.4.5.6.6.6.6.6.6.6.6.6.6.6.6.6.6.6.6.6.6.6.6.6.6.6.6.6.6.6.6.6.6.7.8.9.            ",
"          0.a.b.b.b.b.b.b.b.b.c.c.c.c.c.c.c.c.c.c.c.c.c.c.c.c.c.c.b.b.b.b.b.b.b.b.d.e.          ",
"        f.g.g.g.g.g.g.g.g.h.i.j.j.j.j.j.j.j.j.j.j.j.j.j.j.j.j.j.j.i.h.g.g.g.g.g.g.g.g.f.        ",
"                          k.l.m.m.m.m.m.m.m.m.m.m.m.m.m.m.m.m.m.m.l.k.                          ",
"                          n.o.p.p.p.p.p.p.p.p.p.p.p.p.p.p.p.p.p.p.o.n.                          ",
"                          q.r.s.s.s.s.s.s.s.s.s.s.s.s.s.s.s.s.s.s.r.q.                          ",
"                          t.u.v.v.v.v.v.v.v.v.v.v.v.v.v.v.v.v.v.v.u.t.                          ",
"                          w.x.y.y.y.y.y.y.y.y.y.y.y.y.y.y.y.y.y.y.x.w.                          ",
"                          z.A.B.B.B.B.B.B.B.B.B.B.B.B.B.B.B.B.B.B.A.z.                          ",
"                          C.D.E.E.E.E.E.E.E.E.E.E.E.E.E.E.E.E.E.E.D.C.                          ",
"                          F.G.H.H.H.H.H.H.H.H.H.H.H.H.H.H.H.H.H.H.G.F.                          ",
"                          I.J.K.K.K.K.K.K.K.K.K.K.K.K.K.K.K.K.K.K.J.I.                          ",
"                          L.M.N.N.N.N.N.N.N.N.N.N.N.N.N.N.N.N.N.N.M.L.                          ",
"                          O.P.Q.Q.Q.Q.Q.Q.Q.Q.Q.Q.Q.Q.Q.Q.Q.Q.Q.Q.P.O.                          ",
"                          R.S.T.T.T.T.T.T.T.T.T.T.T.T.T.T.T.T.T.T.S.R.                          ",
"                          U.V.W.W.W.W.W.W.W.W.W.W.W.W.W.W.W.W.W.W.V.U.                          ",
"                          X.Y.Z.Z.Z.Z.Z.Z.Z.Z.Z.Z.Z.Z.Z.Z.Z.Z.Z.Z.Y.X.                          ",
"                          `. +.+.+.+.+.+.+.+.+.+.+.+.+.+.+.+.+.+.+ +`.                          ",
"                          ++@+#+#+#+#+#+#+#+#+#+#+#+#+#+#+#+#+#+#+@+++                          ",
"                          $+%+%+%+%+%+%+%+%+%+%+%+%+%+%+%+%+%+%+%+%+$+                          ",
"                          &+*+*+*+=+-+-+-+-+-+;+;+-+-+-+-+-+=+*+*+*+&+                          ",
"                                                                                                ",
"                                                                                                ",
"                                                                                                ",
"                                                                                                ",
"                                                                                                ",
"                                                                                                "};
