/* XPM */
static char * gtk_edit_xpm[] = {
"48 48 256 2",
"  	c None",
". 	c #A75C95",
"+ 	c #AE5F9A",
"@ 	c #915182",
"# 	c #AB5D98",
"$ 	c #CF80BC",
"% 	c #E99AD5",
"& 	c #CE7EBB",
"* 	c #AE619C",
"= 	c #814874",
"- 	c #AA5D98",
"; 	c #EFA1DD",
"> 	c #EB9DD9",
", 	c #F7A9E5",
"' 	c #F1A2DE",
") 	c #B669A4",
"! 	c #905081",
"~ 	c #F9ABE7",
"{ 	c #E395D1",
"] 	c #B96CA6",
"^ 	c #905180",
"/ 	c #A95B96",
"( 	c #BA6AA7",
"_ 	c #DD8FCA",
": 	c #E899D5",
"< 	c #E597D3",
"[ 	c #E496D2",
"} 	c #E394D1",
"| 	c #B668A4",
"1 	c #814774",
"2 	c #010001",
"3 	c #4A3F48",
"4 	c #B3A7B0",
"5 	c #B98EAE",
"6 	c #DD90CB",
"7 	c #ED9EDB",
"8 	c #E99BD7",
"9 	c #232323",
"0 	c #707070",
"a 	c #8B8B8B",
"b 	c #838383",
"c 	c #D5D5D5",
"d 	c #DFD5DD",
"e 	c #D08ABF",
"f 	c #D284BF",
"g 	c #E495D1",
"h 	c #EEA0DC",
"i 	c #EC9EDA",
"j 	c #CB7BB8",
"k 	c #8A4C7C",
"l 	c #2B2B2B",
"m 	c #565656",
"n 	c #878787",
"o 	c #A4A4A4",
"p 	c #C4C4C4",
"q 	c #A2A2A2",
"r 	c #AAAAAA",
"s 	c #837F82",
"t 	c #B879A9",
"u 	c #D788C4",
"v 	c #181818",
"w 	c #454545",
"x 	c #AEAEAE",
"y 	c #C2C2C2",
"z 	c #CDCDCD",
"A 	c #9D9D9D",
"B 	c #7A7A7A",
"C 	c #807C7F",
"D 	c #C681B6",
"E 	c #E193CE",
"F 	c #DC8ECA",
"G 	c #C778B4",
"H 	c #A0588F",
"I 	c #080808",
"J 	c #5F5F5F",
"K 	c #A7A7A7",
"L 	c #989898",
"M 	c #A3A3A3",
"N 	c #DDDDDD",
"O 	c #C0C0C0",
"P 	c #7F7F7F",
"Q 	c #BCBCBC",
"R 	c #9A9A9A",
"S 	c #8E8E8E",
"T 	c #AFA5AC",
"U 	c #D083BE",
"V 	c #E192CE",
"W 	c #C87AB6",
"X 	c #000000",
"Y 	c #292929",
"Z 	c #A6A6A6",
"` 	c #D2D2D2",
" .	c #D3D3D3",
"..	c #979797",
"+.	c #969696",
"@.	c #CACACA",
"#.	c #7C7C7C",
"$.	c #BBBBBB",
"%.	c #8D8D8D",
"&.	c #A1A1A1",
"*.	c #A47A9A",
"=.	c #C97AB6",
"-.	c #141414",
";.	c #444444",
">.	c #9F9F9F",
",.	c #E0E0E0",
"'.	c #B2B2B2",
").	c #929292",
"!.	c #B4B4B4",
"~.	c #6C6C6C",
"{.	c #61545E",
"].	c #B465A1",
"^.	c #3F3F3F",
"/.	c #545454",
"(.	c #5A5A5A",
"_.	c #646464",
":.	c #7B7B7B",
"<.	c #797979",
"[.	c #868686",
"}.	c #636363",
"|.	c #30262E",
"1.	c #A95C98",
"2.	c #464646",
"3.	c #333333",
"4.	c #949494",
"5.	c #B9B9B9",
"6.	c #848484",
"7.	c #939393",
"8.	c #505050",
"9.	c #575757",
"0.	c #474747",
"a.	c #303030",
"b.	c #323232",
"c.	c #535353",
"d.	c #A8A8A8",
"e.	c #656565",
"f.	c #434343",
"g.	c #202020",
"h.	c #3A3A3A",
"i.	c #787878",
"j.	c #767676",
"k.	c #343434",
"l.	c #131313",
"m.	c #414141",
"n.	c #353535",
"o.	c #4E4E4E",
"p.	c #161616",
"q.	c #404040",
"r.	c #5B5B5B",
"s.	c #424242",
"t.	c #313131",
"u.	c #171717",
"v.	c #0A0A0A",
"w.	c #212121",
"x.	c #0C0C0C",
"y.	c #121212",
"z.	c #525252",
"A.	c #484848",
"B.	c #111111",
"C.	c #0D0D0D",
"D.	c #5C5C5C",
"E.	c #393939",
"F.	c #515151",
"G.	c #222222",
"H.	c #605A13",
"I.	c #4C4713",
"J.	c #45443B",
"K.	c #BBAE2D",
"L.	c #D7CD5D",
"M.	c #CEC351",
"N.	c #C2B62C",
"O.	c #726C2D",
"P.	c #5C5C5A",
"Q.	c #CCBF2F",
"R.	c #F3EEC1",
"S.	c #F4F0C8",
"T.	c #EDE6AB",
"U.	c #C5B944",
"V.	c #968C26",
"W.	c #393832",
"X.	c #CCBE2E",
"Y.	c #DFD572",
"Z.	c #F3EFC3",
"`.	c #F1ECBB",
" +	c #EFE9B1",
".+	c #C7BE56",
"++	c #9B9124",
"@+	c #35352E",
"#+	c #0E0E0E",
"$+	c #CCBF2D",
"%+	c #F0EBB9",
"&+	c #F0EAB3",
"*+	c #EEE8AB",
"=+	c #ECE6A3",
"-+	c #C1B851",
";+	c #887D20",
">+	c #444442",
",+	c #CDBF2C",
"'+	c #DACF61",
")+	c #EBE49B",
"!+	c #E8E091",
"~+	c #ADA338",
"{+	c #625D22",
"]+	c #CDBF2D",
"^+	c #ECE7AA",
"/+	c #E9E293",
"(+	c #E7DF8B",
"_+	c #DED477",
":+	c #988D20",
"<+	c #2C2B1E",
"[+	c #D4C851",
"}+	c #E6DD83",
"|+	c #E4DB7B",
"1+	c #B3A940",
"2+	c #4A4511",
"3+	c #C9BD2E",
"4+	c #E5DF97",
"5+	c #C0B64C",
"6+	c #625C15",
"7+	c #C9BF3F",
"8+	c #E3D979",
"9+	c #CAC059",
"0+	c #A59B2A",
"a+	c #998F21",
"b+	c #C0B42D",
"c+	c #E0D785",
"d+	c #E1D87D",
"e+	c #C3BA52",
"f+	c #A09724",
"g+	c #9F9622",
"h+	c #252209",
"i+	c #D8D29A",
"j+	c #DDD57B",
"k+	c #BAB046",
"l+	c #9E9320",
"m+	c #9F9422",
"n+	c #29270A",
"o+	c #030301",
"p+	c #16150F",
"q+	c #D3CD8B",
"r+	c #D9D177",
"s+	c #B6AC3F",
"t+	c #9D9221",
"u+	c #968C1D",
"v+	c #070601",
"w+	c #020201",
"x+	c #1E1C09",
"y+	c #9C9322",
"z+	c #837C1B",
"A+	c #312F0C",
"B+	c #010100",
"C+	c #050501",
"D+	c #232107",
"E+	c #3E3A0B",
"F+	c #0B0A02",
"G+	c #302E0A",
"                                                                              . + @             ",
"                                                                            # $ % & * =         ",
"                                                                          - $ ; > , ' ) !       ",
"                                                                        - $ ; > , ~ ; { ] ^     ",
"                                                                      / ( _ : , ~ ; < [ } | 1   ",
"                                                                    2 3 4 5 6 7 ; < [ < 8 : *   ",
"                                                                  9 0 a b c d e f g < 8 h i j k ",
"                                                                l m n o p q r s t f 8 h i [ u / ",
"                                                              v w r x q y z A B C D E i [ F G H ",
"                                                            I J K L M N O P Q R S T U V F W -   ",
"                                                          X Y Z A `  ...+.@.#.$.%.&.*.W =.-     ",
"                                                        X -.;.w >.,.'.p R ).!.L r ~.{.].#       ",
"                                                      X -.;.^./.(._.:.<.O a !.S [.}.|.1.        ",
"                                                    X -.;.^./.(.2.3.^.<.4.5.6.7.8.9.X           ",
"                                                  X -.;.^./.(.0.3.a.b.c.d.K 6.e.f.g.            ",
"                                                X -.;.^./.(.0.3.a.b.h.;.i.B j.k.9               ",
"                                              X l.f.^./.(.0.3.a.b.h.;.m.n.o.;.p.                ",
"                                            X -.f.q./.r.0.3.a.b.h.;.s.t.g.u.v.                  ",
"                                          X l.f.q.c.r.0.3.a.b.h.f.s.t.w.x.X                     ",
"                                        X l.f.q.c.r.0.3.a.b.h.f.s.t.w.x.X                       ",
"                                      X l.f.q.c.r.0.k.a.b.h.f.s.t.w.x.X                         ",
"                                    X y.s.q.c.r.0.k.a.b.h.f.s.t.w.x.X                           ",
"                                  X y.s.q.c.r.0.k.a.b.h.f.s.t.w.x.X                             ",
"                                X y.s.q.z.r.A.k.a.b.h.f.s.b.w.x.X                               ",
"                              X y.s.q.z.r.A.k.a.b.h.f.s.b.w.x.X                                 ",
"                            X B.s.q.z.r.A.k.a.b.h.f.s.b.w.C.X                                   ",
"                          X B.s.q.z.D.A.k.a.b.E.f.s.b.w.C.X                                     ",
"                        X B.s.q.z.D.A.k.a.b.E.f.s.b.w.C.X                                       ",
"                      X B.s.q.z.D.A.k.a.b.E.f.s.b.w.C.X                                         ",
"                    X B.m.q.F.D.A.k.a.b.E.f.s.b.G.C.X                                           ",
"                  X B.m.m.F.D.A.k.a.b.E.f.s.b.G.C.X                                             ",
"                X B.m.m.F.D.A.k.a.b.E.f.s.b.G.C.X                                               ",
"              H.I.J.m.F.D.A.k.a.b.E.f.s.b.G.C.X                                                 ",
"            K.L.M.N.O.P.A.n.a.b.E.f.f.b.G.C.X                                                   ",
"            Q.R.S.T.U.V.W.a.b.E.f.f.b.G.C.X                                                     ",
"          X.Y.S.Z.`. +.+++@+E.f.f.b.G.#+X                                                       ",
"          $+%+Z.`.&+*+=+-+;+>+f.b.G.#+X                                                         ",
"        ,+'+Z.`.&+*+=+)+!+~+{+b.G.#+X                                                           ",
"        ]+^+`.&+*+=+)+/+(+_+:+<+#+X                                                             ",
"        [+`.&+*+=+)+/+(+}+|+1+2+X                                                               ",
"      3+4+&+*+=+)+/+(+}+|+|+5+6+                                                                ",
"      7+&+*+=+)+/+(+}+8+9+0+a+                                                                  ",
"    b+c+*+=+)+/+(+d+e+f+g+                                                                      ",
"    h+i+=+)+/+j+k+l+m+                                                                          ",
"  n+o+p+q+r+s+t+u+                                                                              ",
"  v+X w+x+y+z+                                                                                  ",
"A+B+C+D+E+                                                                                      ",
"F+G+                                                                                            "};
