/* XPM */
static char * help_about_xpm[] = {
"48 48 591 2",
"  	c None",
". 	c #CAA907",
"+ 	c #CAA809",
"@ 	c #E7CD6C",
"# 	c #E6CE6C",
"$ 	c #CBAA09",
"% 	c #CEAF1C",
"& 	c #FEEABC",
"* 	c #FEEABB",
"= 	c #CEAD1A",
"- 	c #C9A50B",
"; 	c #F2DA8F",
"> 	c #FFE8B4",
", 	c #FFE8B3",
"' 	c #F1D687",
") 	c #C8A50A",
"! 	c #D3B02B",
"~ 	c #FFEDC2",
"{ 	c #FFE4A5",
"] 	c #FFE3A2",
"^ 	c #FFEABD",
"/ 	c #D1AF24",
"( 	c #C8A30B",
"_ 	c #F5DF9B",
": 	c #FFEAB6",
"< 	c #FFE4A3",
"[ 	c #FFE3A1",
"} 	c #FFE7B1",
"| 	c #F4D990",
"1 	c #C7A20A",
"2 	c #D4B438",
"3 	c #FFEFC4",
"4 	c #FFE7A8",
"5 	c #FFE4A4",
"6 	c #FFE2A1",
"7 	c #FFEABC",
"8 	c #D3AF30",
"9 	c #C5A00C",
"0 	c #F5E2A1",
"a 	c #FFEBB6",
"b 	c #FFE6A6",
"c 	c #FFE19F",
"d 	c #FFE5AE",
"e 	c #F4D992",
"f 	c #C59E0A",
"g 	c #D4B23D",
"h 	c #FFEFC3",
"i 	c #FFE7A9",
"j 	c #FFE6A5",
"k 	c #FFE19E",
"l 	c #FFE8B8",
"m 	c #D3AD31",
"n 	c #C59E0F",
"o 	c #F4E1A2",
"p 	c #FFEBB5",
"q 	c #FFE7A7",
"r 	c #FFE5A4",
"s 	c #FFE09C",
"t 	c #FFE4AB",
"u 	c #F3D890",
"v 	c #C49C0B",
"w 	c #D1AF3B",
"x 	c #FFEEC1",
"y 	c #FFE5A5",
"z 	c #FFE1A0",
"A 	c #FFE19D",
"B 	c #FFDF9B",
"C 	c #FFDE9B",
"D 	c #FFE6B4",
"E 	c #D1AB33",
"F 	c #C3990F",
"G 	c #F3DD9C",
"H 	c #FFE9B2",
"I 	c #FFE2A0",
"J 	c #FFE09D",
"K 	c #FFDE9A",
"L 	c #FFDD98",
"M 	c #FFE1A5",
"N 	c #F3D58C",
"O 	c #C2990C",
"P 	c #D3B041",
"Q 	c #FFECBD",
"R 	c #FFDD99",
"S 	c #FFDD96",
"T 	c #FFE4AF",
"U 	c #D2AA34",
"V 	c #C1980F",
"W 	c #C29811",
"X 	c #F9E0A2",
"Y 	c #FFE7AD",
"Z 	c #FFDD9A",
"` 	c #FFDD97",
" .	c #FFDC95",
"..	c #FFDB93",
"+.	c #FFDF9F",
"@.	c #F9D68E",
"#.	c #C1960F",
"$.	c #C2960E",
"%.	c #BF940E",
"&.	c #C29612",
"*.	c #C19511",
"=.	c #BE930C",
"-.	c #C79F24",
";.	c #D8B34D",
">.	c #E7C872",
",.	c #F9DE9D",
"'.	c #FFE9B6",
").	c #FFDF9C",
"!.	c #FFDB92",
"~.	c #FFDA8F",
"{.	c #FFD98D",
"].	c #FFE1A6",
"^.	c #F9D488",
"/.	c #E6C062",
"(.	c #D6AF41",
"_.	c #C79E23",
":.	c #BF930D",
"<.	c #C1930E",
"[.	c #C2940E",
"}.	c #C1930C",
"|.	c #BE910D",
"1.	c #C19512",
"2.	c #C0930F",
"3.	c #BE910E",
"4.	c #CBA22D",
"5.	c #DBB551",
"6.	c #E8C571",
"7.	c #F1D38A",
"8.	c #F8DDA1",
"9.	c #FEE7B3",
"0.	c #FFE6B0",
"a.	c #FFE5AC",
"b.	c #FFE4A8",
"c.	c #FFE1A1",
"d.	c #FFDA91",
"e.	c #FFD98E",
"f.	c #FFD88B",
"g.	c #FFD788",
"h.	c #FFD88A",
"i.	c #FFD88E",
"j.	c #FFD991",
"k.	c #FFDA93",
"l.	c #FFDB96",
"m.	c #FEDA95",
"n.	c #F8D286",
"o.	c #F1C872",
"p.	c #E7BD5D",
"q.	c #DCB044",
"r.	c #CCA129",
"s.	c #C09310",
"t.	c #C0920D",
"u.	c #C1940E",
"v.	c #BE920C",
"w.	c #C09211",
"x.	c #C99E2A",
"y.	c #E2BA5B",
"z.	c #F0CD7E",
"A.	c #FADB98",
"B.	c #FFE3AB",
"C.	c #FFE3AC",
"D.	c #FFE2A9",
"E.	c #FFE1A2",
"F.	c #FFE09F",
"G.	c #FFDC96",
"H.	c #FFDC93",
"I.	c #FFDB91",
"J.	c #FFDA8E",
"K.	c #FFD98C",
"L.	c #FFD889",
"M.	c #FFD686",
"N.	c #FFD583",
"O.	c #FFD481",
"P.	c #FFD27D",
"Q.	c #FFD179",
"R.	c #FFD078",
"S.	c #FFCF74",
"T.	c #FFCE71",
"U.	c #FFCE73",
"V.	c #FFCE74",
"W.	c #FFCF77",
"X.	c #FFD07A",
"Y.	c #FFD27E",
"Z.	c #FFD281",
"`.	c #F9CB73",
" +	c #EFBF5E",
".+	c #E1AF42",
"++	c #C8991F",
"@+	c #C0910F",
"#+	c #BF9110",
"$+	c #F3D186",
"%+	c #FFDFA2",
"&+	c #FFDC97",
"*+	c #FFDB94",
"=+	c #FFDC94",
"-+	c #FFDA90",
";+	c #FFD88C",
">+	c #FFD78A",
",+	c #FFD787",
"'+	c #FFD685",
")+	c #FFD581",
"!+	c #FFD47F",
"~+	c #FFD37B",
"{+	c #FFCF75",
"]+	c #FFCE72",
"^+	c #FFCD70",
"/+	c #FFCC6C",
"(+	c #FFCB68",
"_+	c #FFC864",
":+	c #FFC761",
"<+	c #FFC65E",
"[+	c #FFC559",
"}+	c #FFC356",
"|+	c #FFC359",
"1+	c #FFC55E",
"2+	c #FFC970",
"3+	c #F1BD5F",
"4+	c #BF8F0E",
"5+	c #C2931B",
"6+	c #FAD993",
"7+	c #FFDB95",
"8+	c #FFD888",
"9+	c #FFD584",
"0+	c #FFD482",
"a+	c #FFD380",
"b+	c #FFD27C",
"c+	c #FFD17A",
"d+	c #FFD077",
"e+	c #FFCF73",
"f+	c #FFCC6E",
"g+	c #FFCB6A",
"h+	c #FFCA67",
"i+	c #FFC964",
"j+	c #FFC860",
"k+	c #FFC55C",
"l+	c #FFC459",
"m+	c #FFC355",
"n+	c #FFC251",
"o+	c #FFBF4E",
"p+	c #FFC25A",
"q+	c #F9C364",
"r+	c #C19218",
"s+	c #C69922",
"t+	c #FBD996",
"u+	c #FFD78B",
"v+	c #FFD47E",
"w+	c #FFD37D",
"x+	c #FFD27B",
"y+	c #FFCD6E",
"z+	c #FFCA68",
"A+	c #FFC965",
"B+	c #FFC862",
"C+	c #FFC75F",
"D+	c #FFC55A",
"E+	c #FFC458",
"F+	c #FFC253",
"G+	c #FFC14F",
"H+	c #FFC04D",
"I+	c #FFC258",
"J+	c #FAC264",
"K+	c #C39319",
"L+	c #C79827",
"M+	c #FCD996",
"N+	c #FFD789",
"O+	c #FFD786",
"P+	c #FFD582",
"Q+	c #FFD074",
"R+	c #FFCF71",
"S+	c #FFCE6F",
"T+	c #FFCB69",
"U+	c #FFCA66",
"V+	c #FFC963",
"W+	c #FFC65D",
"X+	c #FFC152",
"Y+	c #FFC04F",
"Z+	c #FFBF4A",
"`+	c #FBC361",
" @	c #C5931C",
".@	c #BC8A10",
"+@	c #BC8911",
"@@	c #C79929",
"#@	c #FCD994",
"$@	c #FFD88D",
"%@	c #FFD585",
"&@	c #FFD684",
"*@	c #FFD480",
"=@	c #FFD37E",
"-@	c #FFD27A",
";@	c #FFD177",
">@	c #FFD076",
",@	c #FFCD6F",
"'@	c #FFCC69",
")@	c #FFC75D",
"!@	c #FFC55B",
"~@	c #FFBE47",
"{@	c #FFBC45",
"]@	c #FFBE4D",
"^@	c #FCC25F",
"/@	c #C5931E",
"(@	c #BB880F",
"_@	c #BB8613",
":@	c #C8982B",
"<@	c #FCD68E",
"[@	c #FFD586",
"}@	c #FFD37F",
"|@	c #FFD075",
"1@	c #FFCD6B",
"2@	c #FFC863",
"3@	c #FFC75E",
"4@	c #FFC65A",
"5@	c #FFC456",
"6@	c #FFC14E",
"7@	c #FFC04B",
"8@	c #FFBF49",
"9@	c #FFBD46",
"0@	c #FFBC44",
"a@	c #FFBF4C",
"b@	c #FBC25E",
"c@	c #C7921F",
"d@	c #BA8710",
"e@	c #B98812",
"f@	c #C69629",
"g@	c #FBD388",
"h@	c #FFD178",
"i@	c #FFC65C",
"j@	c #FFC558",
"k@	c #FFC354",
"l@	c #FFC252",
"m@	c #FFBF4B",
"n@	c #FFBE49",
"o@	c #FFBE4C",
"p@	c #FBC15D",
"q@	c #C69220",
"r@	c #BA8611",
"s@	c #B98513",
"t@	c #C5942A",
"u@	c #FBD283",
"v@	c #FFD079",
"w@	c #FFCF72",
"x@	c #FFCE70",
"y@	c #FFCD6C",
"z@	c #FFC961",
"A@	c #FFC85E",
"B@	c #FFC65B",
"C@	c #FFC557",
"D@	c #FFC250",
"E@	c #FFC04C",
"F@	c #FFBE48",
"G@	c #FFBC43",
"H@	c #FFBD4A",
"I@	c #FAC05A",
"J@	c #C38E1F",
"K@	c #B98312",
"L@	c #B88411",
"M@	c #C29128",
"N@	c #FBCF7C",
"O@	c #FFCC6B",
"P@	c #FFC455",
"Q@	c #FFBD45",
"R@	c #FFBD48",
"S@	c #FABE58",
"T@	c #C28E1F",
"U@	c #B98313",
"V@	c #B88013",
"W@	c #C49029",
"X@	c #FCC96C",
"Y@	c #FFC457",
"Z@	c #FFC353",
"`@	c #FFBB42",
" #	c #FFBB47",
".#	c #FBBF58",
"+#	c #C28C21",
"@#	c #B68112",
"##	c #B68114",
"$#	c #CA962D",
"%#	c #FFC150",
"&#	c #FFBA41",
"*#	c #FFBA44",
"=#	c #FFC158",
"-#	c #CB9227",
";#	c #B78013",
">#	c #B67E14",
",#	c #F7C25F",
"'#	c #FFBD44",
")#	c #FFB940",
"!#	c #FFB73F",
"~#	c #FFB843",
"{#	c #F7B64A",
"]#	c #B67D13",
"^#	c #B78018",
"/#	c #F7BF5A",
"(#	c #FFB83F",
"_#	c #FFB63D",
":#	c #FFB53C",
"<#	c #FFB43C",
"[#	c #F7B44B",
"}#	c #B67D16",
"|#	c #B47D19",
"1#	c #FEC357",
"2#	c #FFB73E",
"3#	c #FFB33A",
"4#	c #FFB239",
"5#	c #FFB038",
"6#	c #FEB74B",
"7#	c #B37B15",
"8#	c #BC8421",
"9#	c #FFB63E",
"0#	c #FFB43B",
"a#	c #FFAF36",
"b#	c #FFAD35",
"c#	c #FFB345",
"d#	c #B97F1C",
"e#	c #C88D2B",
"f#	c #FFBC4A",
"g#	c #FFB138",
"h#	c #FFB037",
"i#	c #FFAC33",
"j#	c #FFAB32",
"k#	c #FFAF3F",
"l#	c #C68724",
"m#	c #A46F14",
"n#	c #D89A33",
"o#	c #FFB53D",
"p#	c #FFB33B",
"q#	c #FFAE35",
"r#	c #FFAD34",
"s#	c #FFAA32",
"t#	c #FFA931",
"u#	c #FFA82F",
"v#	c #FFAA38",
"w#	c #D69129",
"x#	c #A46E15",
"y#	c #AE7318",
"z#	c #E5A139",
"A#	c #FFB43E",
"B#	c #FFB23A",
"C#	c #FFAF37",
"D#	c #FFAA31",
"E#	c #FFA930",
"F#	c #FFA72F",
"G#	c #FFA62E",
"H#	c #FFA52C",
"I#	c #FFA632",
"J#	c #E3972D",
"K#	c #AD7116",
"L#	c #B07518",
"M#	c #F2A93C",
"N#	c #FFAF38",
"O#	c #FFAE36",
"P#	c #FFB03B",
"Q#	c #FFB241",
"R#	c #FFB140",
"S#	c #FFAD39",
"T#	c #FFA72E",
"U#	c #FFA62D",
"V#	c #FFA42C",
"W#	c #FFA32B",
"X#	c #FFA22A",
"Y#	c #FFA22B",
"Z#	c #F19C2F",
"`#	c #AF7418",
" $	c #AE7117",
".$	c #FDAF3D",
"+$	c #FFAB33",
"@$	c #FFAE39",
"#$	c #FFB64D",
"$$	c #FFB242",
"%$	c #FFAD3A",
"&$	c #F8A631",
"*$	c #F8A530",
"=$	c #FFAB38",
"-$	c #FFB24A",
";$	c #FFB044",
">$	c #FFA42B",
",$	c #FFA32A",
"'$	c #FFA129",
")$	c #FFA028",
"!$	c #FF9F27",
"~$	c #FCA02F",
"{$	c #B4751C",
"]$	c #FFAC38",
"^$	c #FFA830",
"/$	c #FFA933",
"($	c #FFB34B",
"_$	c #FFBE65",
":$	c #FFC36F",
"<$	c #FFBC5E",
"[$	c #EB9E35",
"}$	c #BC7A1D",
"|$	c #AC6F19",
"1$	c #BD7A1C",
"2$	c #ECA341",
"3$	c #FFBA61",
"4$	c #FFC06E",
"5$	c #FFB657",
"6$	c #FFA93A",
"7$	c #FFA027",
"8$	c #FF9E26",
"9$	c #FF9D25",
"0$	c #FF9C24",
"a$	c #FF9B22",
"b$	c #FF9E2B",
"c$	c #B17218",
"d$	c #BD7A1F",
"e$	c #FFB24B",
"f$	c #FFBF69",
"g$	c #FFBA5C",
"h$	c #FFAE42",
"i$	c #EC992B",
"j$	c #BA771D",
"k$	c #AA6C19",
"l$	c #744C11",
"m$	c #754B11",
"n$	c #BB761C",
"o$	c #ED9729",
"p$	c #FFAC45",
"q$	c #FFB861",
"r$	c #FFB45B",
"s$	c #FFA335",
"t$	c #FF9A22",
"u$	c #FF9921",
"v$	c #FF9820",
"w$	c #FF9925",
"x$	c #BC751C",
"y$	c #CD8323",
"z$	c #FFA22C",
"A$	c #FFAC42",
"B$	c #FFBD66",
"C$	c #FFA837",
"D$	c #F19927",
"E$	c #C17A1E",
"F$	c #AA6C1A",
"G$	c #7F5112",
"H$	c #AB6C1A",
"I$	c #BD761B",
"J$	c #EF9122",
"K$	c #FFA53C",
"L$	c #FFB45D",
"M$	c #FFB055",
"N$	c #FF9B29",
"O$	c #FF951D",
"P$	c #FF951F",
"Q$	c #CA7B1C",
"R$	c #A3641A",
"S$	c #DA8822",
"T$	c #FFA22F",
"U$	c #FFB457",
"V$	c #FFB65D",
"W$	c #FFA434",
"X$	c #F19525",
"Y$	c #C47A1E",
"Z$	c #AC6A1A",
"`$	c #885416",
" %	c #895516",
".%	c #AC6A19",
"+%	c #C4781B",
"@%	c #F18D1E",
"#%	c #FFA239",
"$%	c #FFB25D",
"%%	c #FFA33D",
"&%	c #FF931E",
"*%	c #D9811C",
"=%	c #A26417",
"-%	c #A96819",
";%	c #E08A23",
">%	c #FFB55C",
",%	c #FFAA43",
"'%	c #F09322",
")%	c #C3781C",
"!%	c #AB6B19",
"~%	c #925B18",
"{%	c #935C18",
"]%	c #AA6A19",
"^%	c #C2751A",
"/%	c #F18F22",
"(%	c #FFAB4E",
"_%	c #FFA440",
":%	c #DF831B",
"<%	c #A96818",
"[%	c #AA681C",
"}%	c #DF851D",
"|%	c #E68B22",
"1%	c #BF741C",
"2%	c #AB681B",
"3%	c #985D1A",
"4%	c #975E1A",
"5%	c #AA681A",
"6%	c #C0741B",
"7%	c #E5871E",
"8%	c #DE811A",
"9%	c #A9671D",
"0%	c #AA671B",
"                                                                                                ",
"                                              . .                                               ",
"                                            + @ # $                                             ",
"                                            % & * =                                             ",
"                                          - ; > , ' )                                           ",
"                                          ! ~ { ] ^ /                                           ",
"                                        ( _ : < [ } | 1                                         ",
"                                        2 3 4 5 [ 6 7 8                                         ",
"                                      9 0 a b 5 [ c d e f                                       ",
"                                      g h i j 5 [ c k l m                                       ",
"                                    n o p q r < 6 k s t u v                                     ",
"                                    w x 4 y 5 [ z A B C D E                                     ",
"                                  F G H y 5 ] I k J K L M N O                                   ",
"                                  P Q { < [ I k J C R S S T U                                   ",
"                              V W X Y ] 6 z k J B Z `  ...+.@.#.$.                              ",
"                  %.&.*.=.-.;.>.,.'.6 c k A ).K R `  .!.~.{.].^./.(._.:.<.[.}.                  ",
"      |.1.2.3.4.5.6.7.8.9.> 0.a.b.c.A J ).B K `  ...d.e.f.g.h.i.j.k.l.m.n.o.p.q.r.s.t.u.v.      ",
"  w.x.y.z.A.B.C.D.M E.F.).K B B B B C K R ` G.H.I.J.K.L.M.N.O.P.Q.R.S.T.U.V.W.X.Y.Z.`. +.+++@+  ",
"  #+$+%+&+*+d.d...=+ .S ` L L R R ` `  .H.!.-+e.;+>+,+'+)+!+~+Q.{+]+^+/+(+_+:+<+[+}+|+1+2+3+4+  ",
"    5+6+7+;+{.~.-+d.....=+ .=+ .*+!.I.-+e.{.f.8+,+9+0+a+b+c+d+e+T.f+g+h+i+j+k+l+m+n+o+p+q+r+    ",
"      s+t+k.u+;+{.~.~.~.~.-+e.~.e.;+;+h.8+,+'+9+O.v+w+x+d+S.T.y+/+z+A+B+C+D+E+F+G+H+I+J+K+      ",
"        L+M+d.N+>+>+L.h.>+h.L.N+g.,+O+9+9+P+!+v+b+Q.d+Q+R+S+/+T+U+V+C+W+[+m+X+Y+Z+X+`+ @.@      ",
"        +@@@#@$@9+9+%@9+&@9+N.N.0+O.*@v+=@b+-@;@>@e+T.,@/+'@h+i+j+)@!@m+n+H+~@{@]@^@/@(@        ",
"          _@:@<@[@}@=@!+=@=@w+P.b+x+-@Q.;@|@S.]+S+y+1@T+h+2@3@4@5@n+6@7@8@9@0@a@b@c@d@          ",
"            e@f@g@}@Q.Q.R.h@;@d+>@|@Q+e+T.S+y+/+(+V+j+i@j@5@k@l@G+H+m@n@9@0@o@p@q@r@            ",
"              s@t@u@v@U.w@]+T.T.x@y+y@(+i+z@A@B@4@[+C@5@k@l@D@6@E@Z+F@9@G@H@I@J@K@              ",
"                L@M@N@T.O@T+A+B+C+i@B@B@4@[+j@C@5@P@k@l@n+G+H+m@8@~@Q@G@R@S@T@U@                ",
"                  V@W@X@i@Y@C@j@j@C@C@Y@5@P@m+k@Z@n+D@G+H+7@Z+F@9@0@`@ #.#+#@#                  ",
"                    ##$#T+P@Z@k@k@Z@Z@Z@l@l@n+%#G+6@E@m@Z+F@9@Q@G@&#*#=#-#;#                    ",
"                      >#,#n+G+%#%#G+G+G+6@6@H+E@m@Z+n@~@9@'#G@&#)#!#~#{#]#                      ",
"                      ^#/#m@7@E@E@7@m@m@Z+Z+8@F@~@9@Q@0@`@&#)#(#_#:#<#[#}#                      ",
"                      |#1#~@~@F@F@~@~@~@9@9@Q@'#G@`@`@&#(#2#_#:#3#4#5#6#7#                      ",
"                      8#%#G@G@0@0@G@G@G@G@`@`@&#)#(#2#9#:#0#3#4#5#a#b#c#d#                      ",
"                      e#f#)#)#)#)#)#)#)#(#(#2#2#_#:#0#3#4#g#h#a#b#i#j#k#l#                      ",
"                    m#n#~#o#_#_#_#_#o#:#:#<#0#p#3#4#g#h#a#q#r#i#s#t#u#v#w#x#                    ",
"                    y#z#A#4#B#B#B#B#4#4#4#g#g#h#C#a#q#r#i#j#D#E#F#G#H#I#J#K#                    ",
"                    L#M#N#a#a#a#a#a#a#a#O#O#P#Q#R#S#j#D#E#u#T#U#V#W#X#Y#Z#`#                    ",
"                     $.$+$+$i#i#i#i#+$@$#$$$%$&$*$=$-$;$F#H#>$,$'$)$!$!$~$ $                    ",
"                    {$]$u#^$^$^$/$($_$:$<$[$}$|$|$1$2$3$4$5$6$7$8$9$0$a$b$c$                    ",
"                    d$I#V#H#G#e$f$g$h$i$j$k$l$    m$k$n$o$p$q$r$s$t$u$v$w$x$                    ",
"                    y$z$'$A$B$5$C$D$E$F$G$              H$I$J$K$L$M$N$O$P$Q$                    ",
"                  R$S$T$U$V$W$X$Y$Z$`$                     %.%+%@%#%$%%%&%*%=%                  ",
"                  -%;%>%,%'%)%!%~%                            {%]%^%/%(%_%:%<%                  ",
"                  [%}%|%1%2%3%                                    4%5%6%7%8%-%                  ",
"                    9%2%                                                0%9%                    ",
"                                                                                                ",
"                                                                                                ",
"                                                                                                "};
