/* XPM */
static char * help_info_xpm[] = {
"48 48 504 2",
"  	c None",
". 	c #59A1CA",
"+ 	c #5AA0CA",
"@ 	c #589FCA",
"# 	c #589DC8",
"$ 	c #59A0CB",
"% 	c #579CC7",
"& 	c #569EC8",
"* 	c #67AAD1",
"= 	c #80C1E0",
"- 	c #92D0EA",
"; 	c #A1DAEF",
"> 	c #ACE0F2",
", 	c #B0E3F4",
"' 	c #7EC0DF",
") 	c #67AAD2",
"! 	c #579DC8",
"~ 	c #539CC7",
"{ 	c #599FC8",
"] 	c #79BDDE",
"^ 	c #98D5EF",
"/ 	c #9BDBF3",
"( 	c #87D4F0",
"_ 	c #77CEEE",
": 	c #6DCBED",
"< 	c #66C9EC",
"[ 	c #63C8EB",
"} 	c #97D5EF",
"| 	c #78BDDE",
"1 	c #599EC9",
"2 	c #549AC7",
"3 	c #71B9DE",
"4 	c #93D6F1",
"5 	c #7FD1F0",
"6 	c #61C6EC",
"7 	c #52C1EA",
"8 	c #55C2EA",
"9 	c #57C3EB",
"0 	c #59C4EB",
"a 	c #5AC4EB",
"b 	c #5BC5EB",
"c 	c #80D1F0",
"d 	c #70B7DD",
"e 	c #549AC8",
"f 	c #5199C7",
"g 	c #5DA0CC",
"h 	c #87CDED",
"i 	c #7DCFF1",
"j 	c #4FBFEB",
"k 	c #46BCEA",
"l 	c #49BDEA",
"m 	c #4CBEEA",
"n 	c #4FC0EA",
"o 	c #51C0EA",
"p 	c #53C1EA",
"q 	c #54C2EA",
"r 	c #85CCEC",
"s 	c #5DA1CC",
"t 	c #5199C6",
"u 	c #4E96C4",
"v 	c #63AAD3",
"w 	c #89D0F1",
"x 	c #60C1ED",
"y 	c #41B7EA",
"z 	c #42B8EA",
"A 	c #42BAEA",
"B 	c #44BBEA",
"C 	c #47BCEA",
"D 	c #4BBEEA",
"E 	c #4DBFEA",
"F 	c #4EBFEA",
"G 	c #89CFF1",
"H 	c #63A8D2",
"I 	c #4F98C4",
"J 	c #4E95C3",
"K 	c #63ACD6",
"L 	c #83CCF0",
"M 	c #4FB8EB",
"N 	c #40B4E9",
"O 	c #41B5EA",
"P 	c #41B6EA",
"Q 	c #41B8EA",
"R 	c #42B9EA",
"S 	c #43BBEA",
"T 	c #45BBEA",
"U 	c #48BCEA",
"V 	c #48BDEA",
"W 	c #48BCE8",
"X 	c #499FCE",
"Y 	c #4990BF",
"Z 	c #4897C6",
"` 	c #44B4E3",
" .	c #50B8EB",
"..	c #84CDF0",
"+.	c #64ABD6",
"@.	c #4D96C2",
"#.	c #4D93C2",
"$.	c #5EA5D1",
"%.	c #7FC8F0",
"&.	c #4AB4EA",
"*.	c #40B1E9",
"=.	c #40B2E9",
"-.	c #40B3E9",
";.	c #41B4EA",
">.	c #48A5D3",
",.	c #AEC8D8",
"'.	c #DFE2E4",
").	c #CBD7DF",
"!.	c #60A7CF",
"~.	c #80C8F0",
"{.	c #5EA5D0",
"].	c #4D93C1",
"^.	c #5399C7",
"/.	c #7DC4EF",
"(.	c #4DB2EB",
"_.	c #3FADE9",
":.	c #3FAFE9",
"<.	c #40B0E9",
"[.	c #9BC1D9",
"}.	c #F2F2F2",
"|.	c #FEFEFE",
"1.	c #F7F7F7",
"2.	c #BBD2E0",
"3.	c #7DC5EE",
"4.	c #5299C6",
"5.	c #4990C1",
"6.	c #72BBE8",
"7.	c #57B4EC",
"8.	c #3EAAE9",
"9.	c #3EACE9",
"0.	c #3FAEE9",
"a.	c #CEDFE9",
"b.	c #FCFCFC",
"c.	c #FFFFFF",
"d.	c #FDFDFD",
"e.	c #D1E2EB",
"f.	c #58B5EC",
"g.	c #72BAE8",
"h.	c #4990C0",
"i.	c #478FC0",
"j.	c #5EA6D6",
"k.	c #68B9ED",
"l.	c #3DA7E8",
"m.	c #3EA8E9",
"n.	c #3EABE9",
"o.	c #3FACE9",
"p.	c #C3E2F1",
"q.	c #FAFAFA",
"r.	c #9ED6F0",
"s.	c #69B9ED",
"t.	c #5EA6D5",
"u.	c #488FC0",
"v.	c #4890BE",
"w.	c #70B9EC",
"x.	c #45A8E9",
"y.	c #3DA5E8",
"z.	c #3EA9E9",
"A.	c #5FBEED",
"B.	c #D9EFFA",
"C.	c #F0F8FC",
"D.	c #ACDCF5",
"E.	c #43B1E9",
"F.	c #46A8E9",
"G.	c #71B9EC",
"H.	c #498FBE",
"I.	c #448ABB",
"J.	c #59A0D4",
"K.	c #5EB1EC",
"L.	c #3CA2E8",
"M.	c #3CA3E8",
"N.	c #3DA6E8",
"O.	c #58A1D5",
"P.	c #448BBD",
"Q.	c #438ABB",
"R.	c #66AFE7",
"S.	c #46A4E9",
"T.	c #3CA0E8",
"U.	c #3CA1E8",
"V.	c #3DA4E8",
"W.	c #47A5E9",
"X.	c #65AFE7",
"Y.	c #4289BA",
"Z.	c #498EC1",
"`.	c #62B0ED",
" +	c #3B9DE8",
".+	c #3B9EE8",
"++	c #3EA6E3",
"@+	c #3E99D3",
"#+	c #3EA3E2",
"$+	c #488EC0",
"%+	c #5198D0",
"&+	c #52A6EA",
"*+	c #3A9BE7",
"=+	c #3B9CE8",
"-+	c #3B9FE8",
";+	c #3CA5E4",
">+	c #3C93CB",
",+	c #4E8DB9",
"'+	c #89AECB",
")+	c #5594C2",
"!+	c #53A7EA",
"~+	c #5099D0",
"{+	c #3D86B9",
"]+	c #539EDC",
"^+	c #479FE9",
"/+	c #3A99E7",
"(+	c #3C98D6",
"_+	c #488AB9",
":+	c #99B7CC",
"<+	c #E3E5E7",
"[+	c #F0F0F0",
"}+	c #D1DAE1",
"|+	c #3EA2E5",
"1+	c #489FE9",
"2+	c #549FDB",
"3+	c #3E86BA",
"4+	c #3C83B8",
"5+	c #56A1E3",
"6+	c #3F99E8",
"7+	c #3A97E7",
"8+	c #3A9AE7",
"9+	c #3C9FE8",
"0+	c #3CA0E5",
"a+	c #3A8CC5",
"b+	c #79A5C6",
"c+	c #DADFE4",
"d+	c #F5F5F5",
"e+	c #E8E8E8",
"f+	c #49A7E9",
"g+	c #409AE8",
"h+	c #55A1E2",
"i+	c #3B83B7",
"j+	c #3C82B5",
"k+	c #54A1E7",
"l+	c #3B95E7",
"m+	c #3995E7",
"n+	c #3997E7",
"o+	c #3A98E7",
"p+	c #3A99DD",
"q+	c #4287BD",
"r+	c #ADC6D8",
"s+	c #EDEDED",
"t+	c #F6F6F6",
"u+	c #D5DDE4",
"v+	c #55A1E7",
"w+	c #3B82B6",
"x+	c #3A80B3",
"y+	c #529FE9",
"z+	c #3992E7",
"A+	c #3993E7",
"B+	c #3996E7",
"C+	c #5C98C6",
"D+	c #D1DDE6",
"E+	c #DBE7F0",
"F+	c #92C8F1",
"G+	c #D9E0E6",
"H+	c #F8F8F8",
"I+	c #A9C9E1",
"J+	c #529EE9",
"K+	c #3980B3",
"L+	c #397EB2",
"M+	c #4F9CE8",
"N+	c #3990E7",
"O+	c #3891E7",
"P+	c #3893E7",
"Q+	c #3994E7",
"R+	c #D0E4F4",
"S+	c #9AC9ED",
"T+	c #419FE8",
"U+	c #3B99E4",
"V+	c #CCD7DF",
"W+	c #FBFBFB",
"X+	c #F4F4F4",
"Y+	c #7BB7E6",
"Z+	c #4E9BE8",
"`+	c #387FB2",
" @	c #367CB2",
".@	c #4C97E5",
"+@	c #398FE6",
"@@	c #388FE7",
"#@	c #3892E7",
"$@	c #3C99E7",
"%@	c #4696D7",
"&@	c #E9EAEA",
"*@	c #EFEFF0",
"=@	c #4AA0E6",
"-@	c #4C98E5",
";@	c #377DB2",
">@	c #347CB3",
",@	c #4893E0",
"'@	c #3C8FE7",
")@	c #378DE6",
"!@	c #378FE6",
"~@	c #3890E7",
"{@	c #70A7D3",
"]@	c #F1F1F1",
"^@	c #CCDAE6",
"/@	c #4993DF",
"(@	c #357BB2",
"_@	c #3479B1",
":@	c #438CD6",
"<@	c #3E8FE7",
"[@	c #378BE6",
"}@	c #378CE6",
"|@	c #378EE6",
"1@	c #9DBCD6",
"2@	c #9EC4E5",
"3@	c #3379B2",
"4@	c #3D84C7",
"5@	c #438FE7",
"6@	c #3689E6",
"7@	c #368AE6",
"8@	c #3791E4",
"9@	c #CAD7E2",
"0@	c #6DADE7",
"a@	c #3E84C6",
"b@	c #357CB4",
"c@	c #4791E3",
"d@	c #3587E2",
"e@	c #3688E4",
"f@	c #368BE6",
"g@	c #3F8DD7",
"h@	c #EEEFF0",
"i@	c #EFF1F3",
"j@	c #4093E7",
"k@	c #357BB3",
"l@	c #2E74AC",
"m@	c #448AD7",
"n@	c #3A88DF",
"o@	c #3586E0",
"p@	c #3689E5",
"q@	c #69A1D4",
"r@	c #C2D6E9",
"s@	c #448AD8",
"t@	c #2B74AA",
"u@	c #397FC0",
"v@	c #418ADB",
"w@	c #3483DB",
"x@	c #3584DD",
"y@	c #3585DF",
"z@	c #3586E1",
"A@	c #94B8D7",
"B@	c #F9F9F9",
"C@	c #91BBE4",
"D@	c #3A7EC0",
"E@	c #2C74AA",
"F@	c #2C73A8",
"G@	c #448AD5",
"H@	c #3783D8",
"I@	c #3482D9",
"J@	c #3483DA",
"K@	c #3484DC",
"L@	c #3584DE",
"M@	c #3587E1",
"N@	c #3688E3",
"O@	c #3687E4",
"P@	c #C3D6E4",
"Q@	c #66A4E8",
"R@	c #3281D4",
"S@	c #2C77BB",
"T@	c #3687E5",
"U@	c #4489D5",
"V@	c #2D73A9",
"W@	c #2A6FA8",
"X@	c #357ABA",
"Y@	c #4187D5",
"Z@	c #337FD4",
"`@	c #3380D6",
" #	c #3481D7",
".#	c #3585DE",
"+#	c #3683D5",
"@#	c #F0F3F5",
"##	c #F8F9FA",
"$#	c #3983CE",
"%#	c #2C76B9",
"&#	c #5387B1",
"*#	c #A7C0D9",
"=#	c #3686DF",
"-#	c #367BBA",
";#	c #2A70A7",
">#	c #2870A5",
",#	c #3F82CA",
"'#	c #3982D1",
")#	c #337ED1",
"!#	c #337ED3",
"~#	c #3380D5",
"{#	c #3481D8",
"]#	c #3482DA",
"^#	c #5A94CE",
"/#	c #F6F9FB",
"(#	c #6899BE",
"_#	c #A3BDD3",
":#	c #F0F0F1",
"<#	c #9FC2E9",
"[#	c #3784DB",
"}#	c #3F82C9",
"|#	c #2870A7",
"1#	c #4184CD",
"2#	c #367ECD",
"3#	c #327CCE",
"4#	c #327DCF",
"5#	c #337DD1",
"6#	c #337ED2",
"7#	c #337FD3",
"8#	c #8BB3DB",
"9#	c #E6EFF8",
"0#	c #68A1E1",
"a#	c #3481D6",
"b#	c #4083CD",
"c#	c #2B6FA9",
"d#	c #24679D",
"e#	c #2D72AE",
"f#	c #4082CB",
"g#	c #337BCA",
"h#	c #327ACB",
"i#	c #327BCC",
"j#	c #327BCD",
"k#	c #327CCF",
"l#	c #337DD0",
"m#	c #8FB8E4",
"n#	c #FBFCFE",
"o#	c #A5C6EB",
"p#	c #3E85D4",
"q#	c #23659C",
"r#	c #23679F",
"s#	c #2F72AE",
"t#	c #4383C8",
"u#	c #357AC7",
"v#	c #3178C7",
"w#	c #3179C8",
"x#	c #3179C9",
"y#	c #327ACA",
"z#	c #327BCB",
"A#	c #4084CF",
"B#	c #CEDFF3",
"C#	c #F5F8FC",
"D#	c #ACCAEB",
"E#	c #4C8CD3",
"F#	c #327CCD",
"G#	c #2F73AE",
"H#	c #22669E",
"I#	c #20649A",
"J#	c #2E6FAA",
"K#	c #4483C6",
"L#	c #3A7CC5",
"M#	c #3176C3",
"N#	c #3177C4",
"O#	c #3177C5",
"P#	c #3178C6",
"Q#	c #3178C8",
"R#	c #4482C6",
"S#	c #2D71AA",
"T#	c #20659B",
"U#	c #1E5E94",
"V#	c #256AA4",
"W#	c #4280BE",
"X#	c #4481C4",
"Y#	c #3577C1",
"Z#	c #3074C0",
"`#	c #3075C1",
" $	c #3075C2",
".$	c #3076C2",
"+$	c #3076C3",
"@$	c #427FBF",
"#$	c #256AA3",
"$$	c #1D5D93",
"%$	c #1F659D",
"&$	c #3473AE",
"*$	c #4A84C1",
"=$	c #4380C2",
"-$	c #3677BE",
";$	c #3073BD",
">$	c #3073BE",
",$	c #4A84C2",
"'$	c #3273AF",
")$	c #1B5B91",
"!$	c #1F649E",
"~$	c #3473AD",
"{$	c #4A82BD",
"]$	c #4E85C3",
"^$	c #447FBF",
"/$	c #3B78BD",
"($	c #3676BB",
"_$	c #3173BA",
":$	c #3072B9",
"<$	c #3273BA",
"[$	c #1A5B91",
"}$	c #19578D",
"|$	c #1B609B",
"1$	c #2567A1",
"2$	c #3573AD",
"3$	c #427DB6",
"4$	c #4B82BB",
"5$	c #5186C0",
"6$	c #5487C2",
"7$	c #3574AD",
"8$	c #2467A1",
"9$	c #1B619C",
"0$	c #185589",
"a$	c #195C96",
"b$	c #1A5F99",
"c$	c #19609A",
"d$	c #18609B",
"e$	c #185688",
"                                                                                                ",
"                                                                                                ",
"                                                                                                ",
"                                                                                                ",
"                                                                                                ",
"                                        . + @ # # @ + $                                         ",
"                                % & * = - ; > , , > ; - ' ) ! !                                 ",
"                            ~ { ] ^ / ( _ : < [ [ < : _ ( / } | 1 ~                             ",
"                          2 3 4 5 6 7 8 9 0 a b b a 0 9 8 7 6 c 4 d e                           ",
"                      f g h i j k l m n o p q 8 8 q p o n m l k j i r s t                       ",
"                    u v w x y z A B C l D E F F F F E D l C B A z y x G H I                     ",
"                  J K L M N O P Q R A S T C U V W X Y Z ` A R Q P O N  ...+.@.                  ",
"                #.$.%.&.*.=.-.;.P y Q z R R A A >.,.'.).!.Q y P ;.-.=.*.&.~.{.].                ",
"                ^./.(._.:.<.*.-.N O O P y y y Q [.}.|.1.2.O O N -.*.<.:._.(.3.4.                ",
"              5.6.7.8.9._.0.:.<.=.=.-.;.;.O O O a.b.c.d.e.-.=.=.<.:.0._.9.8.f.g.h.              ",
"            i.j.k.l.m.8.n.o._.0.:.<.*.=.=.-.-.-.p.b.c.q.r.*.<.:.0._.o.n.8.m.l.s.t.u.            ",
"            v.w.x.y.l.m.z.8.n.o._.0.:.:.<.<.*.*.A.B.C.D.E.:.0._.o.n.8.z.m.l.y.F.G.H.            ",
"          I.J.K.L.M.y.N.l.m.z.8.n.o._._.0.0.0.0.0.0.0.0._._.o.n.8.z.m.l.N.y.M.L.K.O.P.          ",
"          Q.R.S.T.U.M.V.y.N.l.m.z.8.8.n.n.9.o.o.o.o.9.n.n.8.8.z.m.l.N.y.V.M.U.T.W.X.Y.          ",
"          Z.`. +.+T.U.L.M.V.y.N.l.l.m.z.z.z.8.8.++@+#+z.z.m.l.l.N.y.V.M.L.U.T..+ +`.$+          ",
"          %+&+*+=+.+-+T.U.L.M.V.y.y.N.N.l.l.;+>+,+'+)+l.N.N.y.y.V.M.L.U.T.-+.+=+*+!+~+          ",
"        {+]+^+/+*+=+ +.+-+T.U.L.L.M.V.V.V.(+_+:+<+[+}+|+V.V.M.L.L.U.T.-+.+ +=+*+/+1+2+3+        ",
"        4+5+6+7+/+8+*+=+ +.+-+9+T.U.U.0+a+b+c+d+c.c.e+f+L.U.U.T.9+-+.+ +=+*+8+/+7+g+h+i+        ",
"        j+k+l+m+n+o+/+8+*+=+ + +.+-+p+q+r+s+t+c.c.d.u+T.9+-+-+.+ + +=+*+8+/+o+n+m+l+v+w+        ",
"        x+y+z+A+m+B+n+o+/+8+8+*+=+=+C+D+E+F+G+q.c.H+I+.+ + +=+=+*+8+8+/+o+n+B+m+A+z+J+K+        ",
"        L+M+N+O+P+Q+m+B+n+7+o+/+/+8+R+S+T+U+V+W+c.X+Y+*+*+*+8+/+/+o+7+n+B+m+Q+P+O+N+Z+`+        ",
"         @.@+@@@O+#@P+Q+Q+m+B+n+n+o+$@/+/+%@&@c.c.*@=@/+/+o+o+n+n+B+m+Q+Q+P+#@O+@@+@-@;@        ",
"        >@,@'@)@!@~@~@O+#@P+Q+Q+m+m+B+B+n+{@]@c.d.^@n+n+B+B+m+m+Q+Q+P+#@O+~@~@!@)@'@/@(@        ",
"        _@:@<@[@}@)@|@@@~@O+#@#@P+A+Q+Q+Q+1@t+c.q.2@m+Q+Q+Q+A+P+#@#@O+~@@@|@)@}@[@<@:@3@        ",
"          4@5@6@7@[@}@)@|@!@@@~@~@O+O+#@8@9@W+c.1.0@#@#@#@O+O+~@~@@@!@|@)@}@[@7@6@5@a@          ",
"          b@c@d@e@6@7@f@}@}@)@|@|@!@!@@@g@h@|.c.i@j@~@~@@@!@!@|@|@)@}@}@f@7@6@e@d@c@k@          ",
"          l@m@n@o@d@e@p@6@7@f@[@}@}@)@)@q@d+c.d.r@|@|@)@)@)@}@}@[@f@7@6@p@e@d@o@n@s@l@          ",
"          t@u@v@w@x@y@z@d@e@p@6@7@7@7@f@A@B@c.W+C@[@[@f@f@7@7@7@6@p@e@d@z@y@x@w@v@D@E@          ",
"            F@G@H@I@J@K@L@y@o@M@d@N@e@O@P@b.c.W+Q@6@R@S@T@e@N@d@M@o@y@L@K@J@I@H@U@V@            ",
"            W@X@Y@Z@`@ #I@J@w@x@L@.#y@+#@#|.c.##$#%#&#*#=#y@.#L@x@w@J@I@ #`@Z@Y@-#;#            ",
"              >#,#'#)#!#Z@~# #{#I@]#J@^#q.c.c./#(#_#:#<#[#J@]#I@{# #~#Z@!#)#'#}#|#              ",
"                W@1#2#3#4#5#6#7#Z@~#~#8#b.c.c.c.|.9#0#a#`@~#~#Z@7#6#5#4#3#2#b#c#                ",
"                d#e#f#g#h#i#j#3#k#l#l#m#d.|.c.n#o#p#6#)#)#l#l#k#3#j#i#h#g#f#e#q#                ",
"                  r#s#t#u#v#w#x#y#h#z#A#B#C#D#E#F#j#j#j#i#z#h#y#x#w#v#u#t#G#H#                  ",
"                    I#J#K#L#M#N#O#P#v#v#Q#w#w#w#w#w#w#Q#v#v#P#O#N#M#L#R#S#T#                    ",
"                      U#V#W#X#Y#Z#`# $.$+$+$M#M#M#M#+$+$.$ $`#Z#Y#X#@$#$$$                      ",
"                          %$&$*$=$-$;$;$>$>$>$>$>$>$>$>$;$;$-$=$,$'$%$                          ",
"                            )$!$~${$]$^$/$($_$:$:$<$($/$^$]${$&$!$[$                            ",
"                                }$|$1$2$3$4$5$6$6$5$4$3$7$8$9$}$                                ",
"                                      0$a$b$c$d$d$c$b$a$e$                                      ",
"                                                                                                ",
"                                                                                                ",
"                                                                                                "};
