/* XPM */
static char * media_skip_backward_xpm[] = {
"48 48 261 2",
"  	c None",
". 	c #1F5AB9",
"+ 	c #235CBB",
"@ 	c #B1DCFF",
"# 	c #215FBC",
"$ 	c #235DBB",
"% 	c #1D57B8",
"& 	c #215CBB",
"* 	c #74BFFE",
"= 	c #61B6FD",
"- 	c #215DBC",
"; 	c #174FB2",
"> 	c #518CD6",
", 	c #9CCDF8",
"' 	c #205BBB",
") 	c #1850B3",
"! 	c #508AD6",
"~ 	c #9DCDF8",
"{ 	c #205BBA",
"] 	c #71BDFD",
"^ 	c #5FB4FC",
"/ 	c #72BDFD",
"( 	c #205CBB",
"_ 	c #3671C6",
": 	c #88BCF0",
"< 	c #A6D5FE",
"[ 	c #1F59BA",
"} 	c #3571C7",
"| 	c #A5D5FE",
"1 	c #70BBFC",
"2 	c #5DB2FB",
"3 	c #225CBA",
"4 	c #6CA4E5",
"5 	c #A7D5FC",
"6 	c #8CC9FC",
"7 	c #5EB3FB",
"8 	c #245CBB",
"9 	c #A6D5FC",
"0 	c #88C7FC",
"a 	c #6DB9FB",
"b 	c #5BB0FA",
"c 	c #6EB9FB",
"d 	c #1F5BBB",
"e 	c #1950B3",
"f 	c #528CD8",
"g 	c #9BCCF8",
"h 	c #95CDFC",
"i 	c #5EB1FA",
"j 	c #1D58BA",
"k 	c #518BD7",
"l 	c #9BCBF8",
"m 	c #6BB7FA",
"n 	c #59AEF9",
"o 	c #3772C8",
"p 	c #83B8EE",
"q 	c #A0D1FC",
"r 	c #5FB1F9",
"s 	c #83B7EF",
"t 	c #A1D2FC",
"u 	c #1D58B8",
"v 	c #69B5F9",
"w 	c #57ACF8",
"x 	c #6AB5F9",
"y 	c #1D59BB",
"z 	c #265FBC",
"A 	c #72A9E7",
"B 	c #A5D2FB",
"C 	c #81C1FA",
"D 	c #58ACF8",
"E 	c #68B4F9",
"F 	c #1C57B8",
"G 	c #215CB9",
"H 	c #6AA2E4",
"I 	c #A3D1FA",
"J 	c #67B3F8",
"K 	c #55AAF7",
"L 	c #194FB4",
"M 	c #558FD9",
"N 	c #9DCCF8",
"O 	c #91C9FA",
"P 	c #58ABF7",
"Q 	c #65B2F8",
"R 	c #174EB3",
"S 	c #4F8AD6",
"T 	c #99C9F7",
"U 	c #65B1F7",
"V 	c #53A8F6",
"W 	c #1C58BA",
"X 	c #3B77CC",
"Y 	c #8ABDF2",
"Z 	c #9ACCFA",
"` 	c #58AAF6",
" .	c #63B0F7",
"..	c #1C55B8",
"+.	c #3872C8",
"@.	c #83B7EE",
"#.	c #9DCEFA",
"$.	c #59ABF6",
"%.	c #1C57B7",
"&.	c #62AEF5",
"*.	c #51A5F4",
"=.	c #63AEF5",
"-.	c #1C57BA",
";.	c #255EBC",
">.	c #71A8E7",
",.	c #A0CEF9",
"'.	c #5AAAF5",
").	c #52A5F4",
"!.	c #60ADF5",
"~.	c #1B55B7",
"{.	c #235CBC",
"].	c #6EA5E5",
"^.	c #A1CEF9",
"/.	c #5BAAF5",
"(.	c #1C55B7",
"_.	c #60ACF4",
":.	c #4FA3F3",
"<.	c #61ADF5",
"[.	c #2565C1",
"}.	c #5C96DC",
"|.	c #9DCAF7",
"1.	c #84BEF6",
"2.	c #50A4F3",
"3.	c #5DAAF4",
"4.	c #2261C0",
"5.	c #568FDA",
"6.	c #9AC9F6",
"7.	c #88C1F7",
"8.	c #51A4F3",
"9.	c #1B54B7",
"0.	c #5FAAF4",
"a.	c #4DA1F2",
"b.	c #2363C1",
"c.	c #5B95DC",
"d.	c #5CA7F0",
"e.	c #5AA8F3",
"f.	c #4EA2F2",
"g.	c #5EAAF4",
"h.	c #215FC0",
"i.	c #558EDA",
"j.	c #5CA5EF",
"k.	c #4FA2F2",
"l.	c #1954B7",
"m.	c #5CA8F3",
"n.	c #4B9FF1",
"o.	c #5DA9F3",
"p.	c #1B55B8",
"q.	c #1E5ABA",
"r.	c #458CDE",
"s.	c #5CA8F2",
"t.	c #54A4F2",
"u.	c #4C9FF1",
"v.	c #5FAAF3",
"w.	c #1953B7",
"x.	c #1C56B9",
"y.	c #4389DD",
"z.	c #55A4F2",
"A.	c #1954B6",
"B.	c #5AA6F2",
"C.	c #499DF0",
"D.	c #1954B8",
"E.	c #2868C3",
"F.	c #4D96E7",
"G.	c #57A5F1",
"H.	c #4D9FF0",
"I.	c #60AAF2",
"J.	c #1853B6",
"K.	c #2562C0",
"L.	c #4991E3",
"M.	c #58A5F1",
"N.	c #4EA0F0",
"O.	c #1953B6",
"P.	c #58A4F1",
"Q.	c #479BEF",
"R.	c #1854B8",
"S.	c #144CB1",
"T.	c #3174CF",
"U.	c #529DEC",
"V.	c #52A1F0",
"W.	c #499CEF",
"X.	c #61A9F2",
"Y.	c #1851B6",
"Z.	c #134AB1",
"`.	c #2F71CD",
" +	c #4F9AEB",
".+	c #55A2F0",
"++	c #4599EE",
"@+	c #56A2F0",
"#+	c #1853B7",
"$+	c #1955B7",
"%+	c #3D84DA",
"&+	c #53A0EF",
"*+	c #4E9EEF",
"=+	c #4699EE",
"-+	c #62A9F1",
";+	c #1751B6",
">+	c #1854B7",
",+	c #377DD6",
"'+	c #519EEE",
")+	c #4397ED",
"!+	c #54A1EF",
"~+	c #1753B7",
"{+	c #215FBF",
"]+	c #458DE0",
"^+	c #56A2EF",
"/+	c #4A9BEE",
"(+	c #64A9F0",
"_+	c #1750B6",
":+	c #215FBE",
"<+	c #4B9CEE",
"[+	c #1750B4",
"}+	c #519DEE",
"|+	c #4194EC",
"1+	c #1751B7",
"2+	c #1249AF",
"3+	c #2E70CC",
"4+	c #549AE9",
"5+	c #56A0EE",
"6+	c #4597ED",
"7+	c #66A8EF",
"8+	c #154FB4",
"9+	c #104AAF",
"0+	c #2E6ECB",
"a+	c #5399E9",
"b+	c #57A0EF",
"c+	c #4697ED",
"d+	c #4F9BED",
"e+	c #3F92EB",
"f+	c #509CED",
"g+	c #1550B7",
"h+	c #3D7ED5",
"i+	c #5EA2EC",
"j+	c #549EEE",
"k+	c #4193EB",
"l+	c #65A7EF",
"m+	c #3C7ED6",
"n+	c #4C99EC",
"o+	c #3D90EA",
"p+	c #4D99EC",
"q+	c #1550B6",
"r+	c #205DBC",
"s+	c #4C8EDF",
"t+	c #5FA2ED",
"u+	c #63A5EE",
"v+	c #144DB4",
"w+	c #205CBC",
"x+	c #4A97EB",
"y+	c #3B8EE9",
"z+	c #144FB6",
"A+	c #0E46AC",
"B+	c #2D6CC8",
"C+	c #5699E6",
"D+	c #0E47AF",
"E+	c #2B69C7",
"F+	c #5698E6",
"G+	c #144DB3",
"H+	c #60A2EC",
"I+	c #154FB5",
"J+	c #1149B1",
"K+	c #124EB4",
"L+	c #124DB4",
"                                                                                                ",
"                                                                                                ",
"                                                                                                ",
"                                                                                                ",
"                                                                                                ",
"                                                                                                ",
"                                                                                                ",
"                                                                                                ",
"                                                                                                ",
"                                                                                                ",
"                                                                                                ",
"                                                                                                ",
"        . . . .                                                                                 ",
"      + @ @ @ @ #                                 $ %                                 $ %       ",
"      & * = = * -                             ; > , '                             ) ! ~ '       ",
"      { ] ^ ^ / (                           _ : < / [                           } : | / [       ",
"      { 1 2 2 1 (                       3 4 5 6 7 1 [                       8 4 9 0 7 1 [       ",
"      [ a b b c d                   e f g h i b b a j                   ) k l h i b b a j       ",
"      [ m n n m d                 o p q r n n n n m j                 } s t r n n n n m j       ",
"      u v w w x y             z A B C D w w w w w E F             G H I C D w w w w w E F       ",
"      u J K K J y         L M N O P K K K K K K K Q F         R S T O P K K K K K K K Q F       ",
"      % U V V U W       X Y Z ` V V V V V V V V V  ...      +.@.#.$.V V V V V V V V V  ...      ",
"      %.&.*.*.=.-.  ;.>.,.'.).*.*.*.*.*.*.*.*.*.*.!.~.  {.].^./.).*.*.*.*.*.*.*.*.*.*.!.~.      ",
"      (._.:.:.<.[.}.|.1.2.:.:.:.:.:.:.:.:.:.:.:.:.3.4.5.6.7.8.:.:.:.:.:.:.:.:.:.:.:.:.3.9.      ",
"      ~.0.a.a.0.b.c.d.e.f.a.a.a.a.a.a.a.a.a.a.a.a.g.h.i.j.e.k.a.a.a.a.a.a.a.a.a.a.a.a.g.l.      ",
"      9.m.n.n.o.p.  q.r.s.t.u.n.n.n.n.n.n.n.n.n.n.v.w.  x.y.s.z.u.n.n.n.n.n.n.n.n.n.n.v.w.      ",
"      A.B.C.C.B.D.      E.F.G.H.C.C.C.C.C.C.C.C.C.I.J.      K.L.M.N.C.C.C.C.C.C.C.C.C.I.J.      ",
"      O.P.Q.Q.P.R.        S.T.U.V.W.Q.Q.Q.Q.Q.Q.Q.X.Y.        Z.`. +V.W.Q.Q.Q.Q.Q.Q.Q.X.Y.      ",
"      J..+++++@+#+            $+%+&+*+=+++++++++++-+;+            >+,+'+*+=+++++++++++-+;+      ",
"      Y.&+)+)+!+~+                {+]+^+/+)+)+)+)+(+_+                :+]+^+<+)+)+)+)+(+_+      ",
"      [+}+|+|+}+1+                  2+3+4+5+6+|+|+7+8+                  9+0+a+b+c+|+|+7+8+      ",
"      [+d+e+e+f+g+                      ;+h+i+j+k+l+8+                      1+m+i+j+k+l+8+      ",
"      8+n+o+o+p+q+                          r+s+t+u+v+                          w+s+t+u+v+      ",
"      8+x+y+y+x+z+                            A+B+C+v+                            D+E+F+v+      ",
"      G+H+H+H+H+z+                                I+J+                                I+J+      ",
"        K+L+L+K+                                                                                ",
"                                                                                                ",
"                                                                                                ",
"                                                                                                ",
"                                                                                                ",
"                                                                                                ",
"                                                                                                ",
"                                                                                                ",
"                                                                                                ",
"                                                                                                ",
"                                                                                                ",
"                                                                                                ",
"                                                                                                "};
