/* XPM */
static char * media_skip_forward_xpm[] = {
"48 48 258 2",
"  	c None",
". 	c #1F5AB9",
"+ 	c #1D57B8",
"@ 	c #235DBB",
"# 	c #215FBC",
"$ 	c #B1DCFF",
"% 	c #235CBB",
"& 	c #205BBB",
"* 	c #9DCDF8",
"= 	c #538ED8",
"- 	c #1851B3",
"; 	c #9CCEF9",
"> 	c #538FD9",
", 	c #1A51B3",
"' 	c #215DBC",
") 	c #74BFFE",
"! 	c #61B6FD",
"~ 	c #215CBB",
"{ 	c #1F59BA",
"] 	c #72BDFD",
"^ 	c #A5D6FE",
"/ 	c #8ABEF2",
"( 	c #3872C8",
"_ 	c #A6D6FE",
": 	c #89BEF2",
"< 	c #3876CA",
"[ 	c #205CBB",
"} 	c #5FB4FC",
"| 	c #71BDFD",
"1 	c #205BBA",
"2 	c #70BBFC",
"3 	c #5EB2FB",
"4 	c #83C5FC",
"5 	c #A7D5FC",
"6 	c #74ACE9",
"7 	c #2863C0",
"8 	c #86C6FC",
"9 	c #2862BF",
"0 	c #5DB2FB",
"a 	c #1D58BA",
"b 	c #6DB9FB",
"c 	c #5BB0FA",
"d 	c #5DB1FA",
"e 	c #8FCAFC",
"f 	c #9ECDF9",
"g 	c #5791DB",
"h 	c #5892DB",
"i 	c #1953B3",
"j 	c #1F5BBB",
"k 	c #6EB9FB",
"l 	c #6BB7FA",
"m 	c #59AEF9",
"n 	c #5EB1F9",
"o 	c #9FD1FC",
"p 	c #8CBEF1",
"q 	c #3975CB",
"r 	c #9ED1FC",
"s 	c #3A76CC",
"t 	c #1C57B8",
"u 	c #68B4F9",
"v 	c #57ACF8",
"w 	c #58ACF8",
"x 	c #7CBEF9",
"y 	c #A3D2FB",
"z 	c #71A9E7",
"A 	c #2561BE",
"B 	c #A5D3FB",
"C 	c #7AAFEB",
"D 	c #2762BE",
"E 	c #1D59BB",
"F 	c #6AB5F9",
"G 	c #69B5F9",
"H 	c #1D58B8",
"I 	c #65B2F8",
"J 	c #55AAF7",
"K 	c #57ABF7",
"L 	c #8BC6F9",
"M 	c #9BCAF7",
"N 	c #558FDA",
"O 	c #184FB5",
"P 	c #9FCEF8",
"Q 	c #5F98DF",
"R 	c #1A57B6",
"S 	c #67B3F8",
"T 	c #1C55B8",
"U 	c #63B0F7",
"V 	c #53A8F6",
"W 	c #58ABF6",
"X 	c #9BCDFA",
"Y 	c #8CBEF2",
"Z 	c #3C77CC",
"` 	c #57AAF6",
" .	c #98CBFA",
"..	c #8EC0F3",
"+.	c #407BCD",
"@.	c #1C58BA",
"#.	c #65B1F7",
"$.	c #1B55B7",
"%.	c #60ADF5",
"&.	c #51A5F4",
"*.	c #52A5F4",
"=.	c #5AAAF5",
"-.	c #A1CEF9",
";.	c #75AAE6",
">.	c #2560BE",
",.	c #59A9F5",
"'.	c #9FCEF9",
").	c #77ACE8",
"!.	c #2864BF",
"~.	c #1C57BA",
"{.	c #63AEF5",
"].	c #62AEF5",
"^.	c #1C57B7",
"/.	c #1B54B7",
"(.	c #5DAAF4",
"_.	c #4FA3F3",
":.	c #51A4F3",
"<.	c #88C1F7",
"[.	c #9AC9F6",
"}.	c #568FDA",
"|.	c #2261C0",
"1.	c #50A4F3",
"2.	c #84BEF6",
"3.	c #9DCAF7",
"4.	c #5C96DC",
"5.	c #2565C1",
"6.	c #61ADF5",
"7.	c #60ACF4",
"8.	c #1C55B7",
"9.	c #1954B7",
"0.	c #5EAAF4",
"a.	c #4DA1F2",
"b.	c #4FA2F2",
"c.	c #5AA8F3",
"d.	c #5CA5EF",
"e.	c #558EDA",
"f.	c #215FC0",
"g.	c #4EA2F2",
"h.	c #5CA7F0",
"i.	c #5B95DC",
"j.	c #2363C1",
"k.	c #5FAAF4",
"l.	c #1953B7",
"m.	c #5FAAF3",
"n.	c #4B9FF1",
"o.	c #4C9FF1",
"p.	c #54A4F2",
"q.	c #5CA8F2",
"r.	c #4589DC",
"s.	c #1F59BB",
"t.	c #52A3F2",
"u.	c #478DDF",
"v.	c #215CBD",
"w.	c #1B55B8",
"x.	c #5DA9F3",
"y.	c #5CA8F3",
"z.	c #1853B6",
"A.	c #60AAF2",
"B.	c #499DF0",
"C.	c #4D9FF0",
"D.	c #58A5F1",
"E.	c #4D96E7",
"F.	c #2868C4",
"G.	c #57A5F1",
"H.	c #4E98E7",
"I.	c #296AC7",
"J.	c #1954B8",
"K.	c #5AA6F2",
"L.	c #1954B6",
"M.	c #1851B6",
"N.	c #61A9F2",
"O.	c #479BEF",
"P.	c #489CEF",
"Q.	c #51A1F0",
"R.	c #519CEB",
"S.	c #3274CE",
"T.	c #144CB1",
"U.	c #529EEC",
"V.	c #367BD3",
"W.	c #1650B3",
"X.	c #1854B8",
"Y.	c #58A4F1",
"Z.	c #1953B6",
"`.	c #1751B6",
" +	c #62A9F1",
".+	c #4599EE",
"++	c #4699EE",
"@+	c #4C9DEF",
"#+	c #529FEE",
"$+	c #3C84DB",
"%+	c #1B58B8",
"&+	c #53A0EF",
"*+	c #4087DD",
"=+	c #1C59B9",
"-+	c #1853B7",
";+	c #56A2F0",
">+	c #55A2F0",
",+	c #1750B6",
"'+	c #64A9F0",
")+	c #4397ED",
"!+	c #4A9BEE",
"~+	c #56A2EF",
"{+	c #4991E3",
"]+	c #2361C0",
"^+	c #56A1EF",
"/+	c #2463C2",
"(+	c #1753B7",
"_+	c #54A1EF",
":+	c #154FB4",
"<+	c #66A8EF",
"[+	c #4194EC",
"}+	c #4597ED",
"|+	c #56A0EE",
"1+	c #559CEA",
"2+	c #3172CE",
"3+	c #114CB0",
"4+	c #4596EC",
"5+	c #549FEE",
"6+	c #3273CE",
"7+	c #134AAE",
"8+	c #1751B7",
"9+	c #519DEE",
"0+	c #1750B4",
"a+	c #65A7EF",
"b+	c #4193EB",
"c+	c #529DED",
"d+	c #5FA2ED",
"e+	c #4084D9",
"f+	c #1954B9",
"g+	c #5FA2EC",
"h+	c #1955B8",
"i+	c #1550B7",
"j+	c #509CED",
"k+	c #3F92EB",
"l+	c #4F9BED",
"m+	c #144DB4",
"n+	c #63A5EE",
"o+	c #4E90E2",
"p+	c #225DBE",
"q+	c #225FBF",
"r+	c #1550B6",
"s+	c #4D99EC",
"t+	c #3D90EA",
"u+	c #4C99EC",
"v+	c #5699E6",
"w+	c #2D6EC9",
"x+	c #0F48AE",
"y+	c #569BE8",
"z+	c #2E6ECB",
"A+	c #144FB6",
"B+	c #4A97EB",
"C+	c #3B8EE9",
"D+	c #1149B1",
"E+	c #154FB5",
"F+	c #60A2EC",
"G+	c #144DB3",
"H+	c #124EB4",
"I+	c #124DB4",
"                                                                                                ",
"                                                                                                ",
"                                                                                                ",
"                                                                                                ",
"                                                                                                ",
"                                                                                                ",
"                                                                                                ",
"                                                                                                ",
"                                                                                                ",
"                                                                                                ",
"                                                                                                ",
"                                                                                                ",
"                                                                                . . . .         ",
"      + @                                 + @                                 # $ $ $ $ %       ",
"      & * = -                             & ; > ,                             ' ) ! ! ) ~       ",
"      { ] ^ / (                           { ] _ : <                           [ ] } } | 1       ",
"      { 2 3 4 5 6 7                       { 2 3 8 5 6 9                       [ 2 0 0 2 1       ",
"      a b c c d e f g -                   a b c c d e f h i                   j k c c b {       ",
"      a l m m m m n o p q                 a l m m m m n r p s                 j l m m l {       ",
"      t u v v v v v w x y z A             t u v v v v v w x B C D             E F v v G H       ",
"      t I J J J J J J J K L M N O         t I J J J J J J J K L P Q R         E S J J S H       ",
"      T U V V V V V V V V V W X Y Z       T U V V V V V V V V V `  ...+.      @.#.V V #.+       ",
"      $.%.&.&.&.&.&.&.&.&.&.&.*.=.-.;.>.  $.%.&.&.&.&.&.&.&.&.&.&.&.,.'.).!.  ~.{.&.&.].^.      ",
"      /.(._._._._._._._._._._._._.:.<.[.}.|.(._._._._._._._._._._._._.1.2.3.4.5.6._._.7.8.      ",
"      9.0.a.a.a.a.a.a.a.a.a.a.a.a.b.c.d.e.f.0.a.a.a.a.a.a.a.a.a.a.a.a.g.c.h.i.j.k.a.a.k.$.      ",
"      l.m.n.n.n.n.n.n.n.n.n.n.o.p.q.r.s.  l.m.n.n.n.n.n.n.n.n.n.n.n.t.q.u.v.  w.x.n.n.y./.      ",
"      z.A.B.B.B.B.B.B.B.B.B.C.D.E.F.      z.A.B.B.B.B.B.B.B.B.B.C.G.H.I.      J.K.B.B.K.L.      ",
"      M.N.O.O.O.O.O.O.O.P.Q.R.S.T.        M.N.O.O.O.O.O.O.O.P.Q.U.V.W.        X.Y.O.O.Y.Z.      ",
"      `. +.+.+.+.+.+++@+#+$+%+            `. +.+.+.+.+.+++@+&+*+=+            -+;+.+.+>+z.      ",
"      ,+'+)+)+)+)+!+~+{+]+                ,+'+)+)+)+)+!+^+{+/+                (+_+)+)+&+M.      ",
"      :+<+[+[+}+|+1+2+3+                  :+<+[+[+4+5+1+6+7+                  8+9+[+[+9+0+      ",
"      :+a+b+c+d+e+f+                      :+a+b+c+g+e+h+                      i+j+k+k+l+0+      ",
"      m+n+d+o+p+                          m+n+d+o+q+                          r+s+t+t+u+:+      ",
"      m+v+w+x+                            m+y+z+x+                            A+B+C+C+B+:+      ",
"      D+E+                                D+E+                                A+F+F+F+F+G+      ",
"                                                                                H+I+I+H+        ",
"                                                                                                ",
"                                                                                                ",
"                                                                                                ",
"                                                                                                ",
"                                                                                                ",
"                                                                                                ",
"                                                                                                ",
"                                                                                                ",
"                                                                                                ",
"                                                                                                ",
"                                                                                                ",
"                                                                                                "};
