/* XPM */
static char * media_seek_backward_xpm[] = {
"48 48 201 2",
"  	c None",
". 	c #215BB9",
"+ 	c #1C55B7",
"@ 	c #174EB1",
"# 	c #518DD7",
"$ 	c #9CCDF8",
"% 	c #205BBB",
"& 	c #1850B3",
"* 	c #508AD6",
"= 	c #9DCDF8",
"- 	c #3570C6",
"; 	c #88BCF0",
"> 	c #A6D5FE",
", 	c #72BDFD",
"' 	c #1F59BA",
") 	c #3571C7",
"! 	c #A5D5FE",
"~ 	c #225ABA",
"{ 	c #6DA5E5",
"] 	c #A7D5FC",
"^ 	c #8CC9FC",
"/ 	c #5EB3FB",
"( 	c #70BBFC",
"_ 	c #245CBB",
": 	c #6CA4E5",
"< 	c #A6D5FC",
"[ 	c #88C7FC",
"} 	c #174FB2",
"| 	c #528CD8",
"1 	c #9BCCF8",
"2 	c #95CDFC",
"3 	c #5EB1FA",
"4 	c #5BB0FA",
"5 	c #6DB9FB",
"6 	c #1D58BA",
"7 	c #518BD7",
"8 	c #9BCBF8",
"9 	c #3874C9",
"0 	c #84B8F0",
"a 	c #A0D1FC",
"b 	c #5FB1F9",
"c 	c #59AEF9",
"d 	c #6BB7FA",
"e 	c #83B7EF",
"f 	c #A1D2FC",
"g 	c #255DB9",
"h 	c #72ABE8",
"i 	c #A5D2FB",
"j 	c #81C1FA",
"k 	c #58ACF8",
"l 	c #57ACF8",
"m 	c #68B4F9",
"n 	c #1C57B8",
"o 	c #215CB9",
"p 	c #6AA2E4",
"q 	c #A3D1FA",
"r 	c #154CB1",
"s 	c #558FD9",
"t 	c #9DCCF8",
"u 	c #91C9FA",
"v 	c #58ABF7",
"w 	c #55AAF7",
"x 	c #65B2F8",
"y 	c #174EB3",
"z 	c #4F8AD6",
"A 	c #99C9F7",
"B 	c #3B76CB",
"C 	c #8ABDF2",
"D 	c #9ACCFA",
"E 	c #58AAF6",
"F 	c #53A8F6",
"G 	c #63B0F7",
"H 	c #1C55B8",
"I 	c #3872C8",
"J 	c #83B7EE",
"K 	c #9DCEFA",
"L 	c #59ABF6",
"M 	c #245BB9",
"N 	c #70A8E8",
"O 	c #A0CFF9",
"P 	c #5AAAF5",
"Q 	c #52A5F4",
"R 	c #51A5F4",
"S 	c #60ADF5",
"T 	c #1B55B7",
"U 	c #235CBC",
"V 	c #6EA5E5",
"W 	c #A1CEF9",
"X 	c #5BAAF5",
"Y 	c #1751B3",
"Z 	c #5D95DE",
"` 	c #9DCAF7",
" .	c #84BEF6",
"..	c #50A4F3",
"+.	c #4FA3F3",
"@.	c #5DAAF4",
"#.	c #2261C0",
"$.	c #568FDA",
"%.	c #9AC9F6",
"&.	c #88C1F7",
"*.	c #51A4F3",
"=.	c #1B54B7",
"-.	c #174EB2",
";.	c #5D94DD",
">.	c #5DA7F1",
",.	c #5AA8F3",
"'.	c #4EA2F2",
").	c #4DA1F2",
"!.	c #5EAAF4",
"~.	c #215FC0",
"{.	c #558EDA",
"].	c #5CA5EF",
"^.	c #4FA2F2",
"/.	c #1954B7",
"(.	c #458DDF",
"_.	c #5CA9F2",
":.	c #54A4F2",
"<.	c #4C9FF1",
"[.	c #4B9FF1",
"}.	c #5FAAF3",
"|.	c #1953B7",
"1.	c #1C56B9",
"2.	c #4389DD",
"3.	c #5CA8F2",
"4.	c #55A4F2",
"5.	c #2665C2",
"6.	c #4D96E7",
"7.	c #57A5F1",
"8.	c #4D9FF0",
"9.	c #499DF0",
"0.	c #60AAF2",
"a.	c #1853B6",
"b.	c #2562C0",
"c.	c #4991E3",
"d.	c #58A5F1",
"e.	c #4EA0F0",
"f.	c #114BAF",
"g.	c #3173CE",
"h.	c #529DEC",
"i.	c #52A1F0",
"j.	c #499CEF",
"k.	c #479BEF",
"l.	c #61A9F2",
"m.	c #1851B6",
"n.	c #134AB1",
"o.	c #2F71CD",
"p.	c #4F9AEB",
"q.	c #1854B7",
"r.	c #3C83D9",
"s.	c #53A0EF",
"t.	c #4E9EEF",
"u.	c #4699EE",
"v.	c #4599EE",
"w.	c #62A9F1",
"x.	c #1751B6",
"y.	c #377DD6",
"z.	c #519EEE",
"A.	c #2260C0",
"B.	c #468EE1",
"C.	c #56A2EF",
"D.	c #4A9BEE",
"E.	c #4397ED",
"F.	c #64A9F0",
"G.	c #1750B6",
"H.	c #215FBE",
"I.	c #458DE0",
"J.	c #4B9CEE",
"K.	c #1048AE",
"L.	c #2E70CC",
"M.	c #549AE9",
"N.	c #56A0EE",
"O.	c #4597ED",
"P.	c #4194EC",
"Q.	c #66A8EF",
"R.	c #154FB4",
"S.	c #104AAF",
"T.	c #2E6ECB",
"U.	c #5399E9",
"V.	c #57A0EF",
"W.	c #4697ED",
"X.	c #154FB5",
"Y.	c #3D7ED6",
"Z.	c #5EA2EC",
"`.	c #549EEE",
" +	c #4193EB",
".+	c #65A7EF",
"++	c #1751B7",
"@+	c #3C7ED6",
"#+	c #205CBB",
"$+	c #4C8EDF",
"%+	c #5FA2ED",
"&+	c #63A5EE",
"*+	c #144DB4",
"=+	c #205CBC",
"-+	c #0E46AD",
";+	c #2D6CC9",
">+	c #5699E6",
",+	c #0E47AF",
"'+	c #2B69C7",
")+	c #5698E6",
"!+	c #1149B1",
"                                                                                                ",
"                                                                                                ",
"                                                                                                ",
"                                                                                                ",
"                                                                                                ",
"                                                                                                ",
"                                                                                                ",
"                                                                                                ",
"                                                                                                ",
"                                                                                                ",
"                                                                                                ",
"                                                                                                ",
"                                                                                                ",
"                                            . +                                 . +             ",
"                                        @ # $ %                             & * = %             ",
"                                      - ; > , '                           ) ; ! , '             ",
"                                  ~ { ] ^ / ( '                       _ : < [ / ( '             ",
"                              } | 1 2 3 4 4 5 6                   & 7 8 2 3 4 4 5 6             ",
"                            9 0 a b c c c c d 6                 ) e f b c c c c d 6             ",
"                        g h i j k l l l l l m n             o p q j k l l l l l m n             ",
"                    r s t u v w w w w w w w x n         y z A u v w w w w w w w x n             ",
"                  B C D E F F F F F F F F F G H       I J K L F F F F F F F F F G H             ",
"              M N O P Q R R R R R R R R R R S T   U V W X Q R R R R R R R R R R S T             ",
"          Y Z `  ...+.+.+.+.+.+.+.+.+.+.+.+.@.#.$.%.&.*.+.+.+.+.+.+.+.+.+.+.+.+.@.=.            ",
"          -.;.>.,.'.).).).).).).).).).).).).!.~.{.].,.^.).).).).).).).).).).).).!./.            ",
"              T (._.:.<.[.[.[.[.[.[.[.[.[.[.}.|.  1.2.3.4.<.[.[.[.[.[.[.[.[.[.[.}.|.            ",
"                  5.6.7.8.9.9.9.9.9.9.9.9.9.0.a.      b.c.d.e.9.9.9.9.9.9.9.9.9.0.a.            ",
"                    f.g.h.i.j.k.k.k.k.k.k.k.l.m.        n.o.p.i.j.k.k.k.k.k.k.k.l.m.            ",
"                        q.r.s.t.u.v.v.v.v.v.w.x.            q.y.z.t.u.v.v.v.v.v.w.x.            ",
"                            A.B.C.D.E.E.E.E.F.G.                H.I.C.J.E.E.E.E.F.G.            ",
"                              K.L.M.N.O.P.P.Q.R.                  S.T.U.V.W.P.P.Q.R.            ",
"                                  X.Y.Z.`. +.+R.                      ++@+Z.`. +.+R.            ",
"                                      #+$+%+&+*+                          =+$+%+&+*+            ",
"                                        -+;+>+*+                            ,+'+)+*+            ",
"                                            X.!+                                X.!+            ",
"                                                                                                ",
"                                                                                                ",
"                                                                                                ",
"                                                                                                ",
"                                                                                                ",
"                                                                                                ",
"                                                                                                ",
"                                                                                                ",
"                                                                                                ",
"                                                                                                ",
"                                                                                                ",
"                                                                                                ",
"                                                                                                "};
