/* XPM */
static char * media_playback_stop_xpm[] = {
"48 48 374 2",
"  	c None",
". 	c #9F231E",
"+ 	c #A02420",
"@ 	c #A32520",
"# 	c #9F201D",
"$ 	c #B83F3B",
"% 	c #D1645D",
"& 	c #E18079",
"* 	c #EA968F",
"= 	c #F3A9A1",
"- 	c #F5AFA8",
"; 	c #D0625C",
"> 	c #B63E39",
", 	c #9E201D",
"' 	c #A82825",
") 	c #D15F5B",
"! 	c #EB948E",
"~ 	c #F5A39D",
"{ 	c #F38F88",
"] 	c #F27F76",
"^ 	c #F0756B",
"/ 	c #F06C62",
"( 	c #EF695E",
"_ 	c #EB928E",
": 	c #D05F5A",
"< 	c #A62725",
"[ 	c #A21F1F",
"} 	c #CE5857",
"| 	c #F19996",
"1 	c #F38C88",
"2 	c #F06E69",
"3 	c #EE6059",
"4 	c #EF6159",
"5 	c #EF625A",
"6 	c #EF635A",
"7 	c #F38D89",
"8 	c #F09996",
"9 	c #CE5754",
"0 	c #A11F1D",
"a 	c #B43131",
"b 	c #E78282",
"c 	c #F38A89",
"d 	c #EF6260",
"e 	c #EE5956",
"f 	c #EE5A56",
"g 	c #EE5C57",
"h 	c #EE5D57",
"i 	c #EE5D58",
"j 	c #EE5E58",
"k 	c #EE5F58",
"l 	c #EE5B57",
"m 	c #F38B8A",
"n 	c #E78180",
"o 	c #B33030",
"p 	c #C24141",
"q 	c #EF8F8F",
"r 	c #EF6E6E",
"s 	c #ED5353",
"t 	c #ED5554",
"u 	c #ED5654",
"v 	c #ED5755",
"w 	c #EE5855",
"x 	c #F08F8F",
"y 	c #C54646",
"z 	c #F08D8D",
"A 	c #ED5E5F",
"B 	c #EB5151",
"C 	c #EC5152",
"D 	c #EC5252",
"E 	c #ED5453",
"F 	c #EF8C8C",
"G 	c #C44546",
"H 	c #BF3E3F",
"I 	c #EF8889",
"J 	c #EA5859",
"K 	c #E94F50",
"L 	c #EA5050",
"M 	c #EA5051",
"N 	c #ED5253",
"O 	c #EE8788",
"P 	c #C03D3E",
"Q 	c #B22C2E",
"R 	c #EB8282",
"S 	c #E9595A",
"T 	c #E84D4E",
"U 	c #E84E4F",
"V 	c #E94E4F",
"W 	c #EA4F50",
"X 	c #EB5051",
"Y 	c #E9595B",
"Z 	c #EC8282",
"` 	c #B02B2C",
" .	c #9F1A1A",
"..	c #E26F70",
"+.	c #E96263",
"@.	c #E64B4D",
"#.	c #E74C4D",
"$.	c #E74C4E",
"%.	c #E94F4F",
"&.	c #E96465",
"*.	c #E06D6E",
"=.	c #9E1819",
"-.	c #C94748",
";.	c #EA7273",
">.	c #E5494B",
",.	c #E54A4C",
"'.	c #E64B4C",
").	c #E74D4E",
"!.	c #EA7274",
"~.	c #C84546",
"{.	c #A31D1D",
"].	c #E67375",
"^.	c #E45052",
"/.	c #E4484A",
"(.	c #E4494B",
"_.	c #E64A4C",
":.	c #E54B4C",
"<.	c #E54B4D",
"[.	c #E64C4D",
"}.	c #E45153",
"|.	c #A21C1E",
"1.	c #C74344",
"2.	c #E76768",
"3.	c #E24649",
"4.	c #E34749",
"5.	c #E3484A",
"6.	c #E4494A",
"7.	c #E54A4B",
"8.	c #D74142",
"9.	c #FFFDF3",
"0.	c #C54143",
"a.	c #9A1515",
"b.	c #DE6365",
"c.	c #E24F51",
"d.	c #E14548",
"e.	c #E24648",
"f.	c #E24749",
"g.	c #D43E3F",
"h.	c #FFFCF2",
"i.	c #E25052",
"j.	c #9A1416",
"k.	c #AE2829",
"l.	c #E5696B",
"m.	c #DF4346",
"n.	c #E04447",
"o.	c #E04547",
"p.	c #E14648",
"q.	c #D33C3E",
"r.	c #FFFBF2",
"s.	c #AD2728",
"t.	c #C43C3E",
"u.	c #E2585C",
"v.	c #DE4245",
"w.	c #E04446",
"x.	c #E14547",
"y.	c #D23C3D",
"z.	c #FEFAF2",
"A.	c #E2595C",
"B.	c #C33B3D",
"C.	c #D04A4C",
"D.	c #DF4D50",
"E.	c #DD4144",
"F.	c #DE4145",
"G.	c #DF4345",
"H.	c #E04346",
"I.	c #D13B3C",
"J.	c #FEF9F1",
"K.	c #DF4D51",
"L.	c #CF4A4B",
"M.	c #991415",
"N.	c #D75155",
"O.	c #DD4549",
"P.	c #DC4043",
"Q.	c #DD4044",
"R.	c #DE4144",
"S.	c #D0393C",
"T.	c #DD464A",
"U.	c #D75154",
"V.	c #981414",
"W.	c #DB5558",
"X.	c #DB4044",
"Y.	c #DB3E42",
"Z.	c #DC3F42",
"`.	c #DC3F43",
" +	c #CF383B",
".+	c #FEF8F1",
"++	c #DA5458",
"@+	c #991416",
"#+	c #9A1316",
"$+	c #DD5458",
"%+	c #DA3E42",
"&+	c #DA3D41",
"*+	c #DB3E41",
"=+	c #DB3F42",
"-+	c #CE373A",
";+	c #FEF7F0",
">+	c #9A1315",
",+	c #9A1314",
"'+	c #DC5155",
")+	c #D83C41",
"!+	c #D93C40",
"~+	c #DB3F41",
"{+	c #CD3639",
"]+	c #FDF6F0",
"^+	c #DB5054",
"/+	c #981315",
"(+	c #991316",
"_+	c #D74B4F",
":+	c #D73C40",
"<+	c #D83B3F",
"[+	c #D93E40",
"}+	c #CC3538",
"|+	c #FDF5F0",
"1+	c #D74B4E",
"2+	c #991314",
"3+	c #971214",
"4+	c #D14347",
"5+	c #D73E42",
"6+	c #D7393E",
"7+	c #D73A3E",
"8+	c #D83A3F",
"9+	c #D83C3F",
"0+	c #CC3437",
"a+	c #FDF4EF",
"b+	c #D14346",
"c+	c #981313",
"d+	c #C9393E",
"e+	c #D74044",
"f+	c #D6383D",
"g+	c #D6393D",
"h+	c #D6393E",
"i+	c #D73B3F",
"j+	c #CA3236",
"k+	c #C8393D",
"l+	c #BC2E31",
"m+	c #D74347",
"n+	c #D5373C",
"o+	c #D5383D",
"p+	c #D63A3E",
"q+	c #C93135",
"r+	c #FDF3EF",
"s+	c #BB2E30",
"t+	c #A71D1F",
"u+	c #D7474C",
"v+	c #D3353B",
"w+	c #D4363B",
"x+	c #D5383C",
"y+	c #C83034",
"z+	c #FDF2EE",
"A+	c #A61C20",
"B+	c #961113",
"C+	c #CF3F43",
"D+	c #D3393F",
"E+	c #D3353A",
"F+	c #D4373C",
"G+	c #C72F33",
"H+	c #FCF1EE",
"I+	c #951011",
"J+	c #B9292F",
"K+	c #D44045",
"L+	c #D23339",
"M+	c #D23439",
"N+	c #D2343A",
"O+	c #D2353B",
"P+	c #C62E32",
"Q+	c #FCF0ED",
"R+	c #BA2A2E",
"S+	c #9B1315",
"T+	c #D14146",
"U+	c #D1353B",
"V+	c #D13238",
"W+	c #D13339",
"X+	c #D1343A",
"Y+	c #C52C31",
"Z+	c #AF1F22",
"`+	c #AF1F23",
" @	c #9C1316",
".@	c #B7282C",
"+@	c #D23F44",
"@@	c #D03137",
"#@	c #D03238",
"$@	c #D13338",
"%@	c #C62D32",
"&@	c #C42B31",
"*@	c #C52B31",
"=@	c #C72D32",
"-@	c #B6272B",
";@	c #971013",
">@	c #C9383D",
",@	c #D0373D",
"'@	c #CF3036",
")@	c #CF3137",
"!@	c #D03237",
"~@	c #C8373D",
"{@	c #971012",
"]@	c #A2181C",
"^@	c #CE3C43",
"/@	c #CF3339",
"(@	c #CE2F36",
"_@	c #CE3036",
":@	c #CF3037",
"<@	c #CE3C42",
"[@	c #A4181C",
"}@	c #AD1F23",
"|@	c #CF3C41",
"1@	c #CD2E35",
"2@	c #CE2F35",
"3@	c #CF3B41",
"4@	c #AD1E22",
"5@	c #B02226",
"6@	c #CF3D44",
"7@	c #CD3138",
"8@	c #CC2D34",
"9@	c #CD2E34",
"0@	c #AF2226",
"a@	c #841616",
"b@	c #AB2125",
"c@	c #CE3F45",
"d@	c #CD363D",
"e@	c #CB2C33",
"f@	c #CC2C33",
"g@	c #CC2D33",
"h@	c #CD3F45",
"i@	c #AB2124",
"j@	c #871618",
"k@	c #7F2426",
"l@	c #9E1C1E",
"m@	c #C73A41",
"n@	c #CF4046",
"o@	c #CB3037",
"p@	c #CA2B32",
"q@	c #CB2B32",
"r@	c #C73A40",
"s@	c #9E1B1F",
"t@	c #7A2626",
"u@	c #8F1D1F",
"v@	c #B2282E",
"w@	c #CD434A",
"x@	c #CB3238",
"y@	c #C92A31",
"z@	c #CA2A31",
"A@	c #CA2A32",
"B@	c #CC434A",
"C@	c #B1272C",
"D@	c #8E1D1E",
"E@	c #7B3032",
"F@	c #901D1F",
"G@	c #B32A2E",
"H@	c #C94046",
"I@	c #D0494F",
"J@	c #CB363C",
"K@	c #CA3137",
"L@	c #CA2C32",
"M@	c #CA2C33",
"N@	c #911D1F",
"O@	c #793333",
"P@	c #753636",
"Q@	c #8A1F21",
"R@	c #9D2023",
"S@	c #B12B2F",
"T@	c #C0373D",
"U@	c #C84148",
"V@	c #CF4A50",
"W@	c #D14E54",
"X@	c #CE4A50",
"Y@	c #B22B2F",
"Z@	c #9B2023",
"`@	c #891F21",
" #	c #73393B",
".#	c #80292B",
"+#	c #892023",
"@#	c #8C1C1E",
"##	c #8D1A1B",
"$#	c #882023",
"                                                                                                ",
"                                                                                                ",
"                                                                                                ",
"                                                                                                ",
"                                                                                                ",
"                                          . + @ @ + .                                           ",
"                                  # $ % & * = - - = * & ; > ,                                   ",
"                              ' ) ! ~ { ] ^ / ( ( / ^ ] { ~ _ : <                               ",
"                          [ } | 1 2 3 4 5 5 6 6 6 6 5 5 4 3 2 7 8 9 0                           ",
"                        a b c d e f g h i j j k k j j i h l f e d m n o                         ",
"                      p q r s s t u v w e f f f f f f e w v u t s s r x p                       ",
"                    y z A B C D D s s E t t u u u u t t E s s D D C B A F G                     ",
"                  H I J K L M B B C D D D D N N N N D D D D C B B M L K J O P                   ",
"                Q R S T U V K W L M X B B B B B B B B B B X M L W K V U T Y Z `                 ",
"               ...+.@.#.$.T T V V %.K W W L L L L L L W W K %.V V T T $.#.@.&.*.=.              ",
"              -.;.>.,.'.@.#.#.).T T U V V V V V V V V V V U T T ).#.#.@.'.,.>.!.~.              ",
"            {.].^./.(.>.,._.'.@.:.:.:.<.[.[.[.[.[.[.[.[.<.:.:.:.@.'._.,.>.(./.}.].|.            ",
"            1.2.3.4.5./.6.(.7.8.9.9.9.9.9.9.9.9.9.9.9.9.9.9.9.9.8.7.(.6./.5.4.3.2.0.            ",
"          a.b.c.d.e.3.f.4.5.4.g.h.h.h.h.h.h.h.h.h.h.h.h.h.h.h.h.g.4.5.4.f.3.e.d.i.b.j.          ",
"          k.l.m.n.o.d.p.e.3.e.q.r.r.r.r.r.r.r.r.r.r.r.r.r.r.r.r.q.e.3.e.p.d.o.n.m.l.s.          ",
"          t.u.v.m.m.w.n.x.d.o.y.z.z.z.z.z.z.z.z.z.z.z.z.z.z.z.z.y.o.d.x.n.w.m.m.v.A.B.          ",
"          C.D.E.F.v.G.m.H.n.m.I.J.J.J.J.J.J.J.J.J.J.J.J.J.J.J.J.I.m.n.H.m.G.v.F.E.K.L.          ",
"        M.N.O.P.Q.E.R.v.v.G.v.S.J.J.J.J.J.J.J.J.J.J.J.J.J.J.J.J.S.v.G.v.v.R.E.Q.P.T.U.V.        ",
"        j.W.X.Y.Z.`.P.Q.E.R.E. +.+.+.+.+.+.+.+.+.+.+.+.+.+.+.+.+ +E.R.E.Q.P.`.Z.Y.X.++@+        ",
"        #+$+%+&+*+Y.=+`.P.P.`.-+;+;+;+;+;+;+;+;+;+;+;+;+;+;+;+;+-+`.P.P.`.=+Y.*+&+%+$+>+        ",
"        ,+'+)+!+!+&+&+Y.Y.=+~+{+]+]+]+]+]+]+]+]+]+]+]+]+]+]+]+]+{+~+=+Y.Y.&+&+!+!+)+^+/+        ",
"        (+_+:+<+<+!+!+!+&+&+[+}+|+|+|+|+|+|+|+|+|+|+|+|+|+|+|+|+}+[+&+&+!+!+!+<+<+:+1+2+        ",
"        3+4+5+6+7+8+<+<+!+!+9+0+a+a+a+a+a+a+a+a+a+a+a+a+a+a+a+a+0+9+!+!+<+<+8+7+6+5+b+c+        ",
"          d+e+f+g+h+6+7+8+<+i+j+a+a+a+a+a+a+a+a+a+a+a+a+a+a+a+a+j+i+<+8+7+6+h+g+f+e+k+          ",
"          l+m+n+n+o+f+g+h+6+p+q+r+r+r+r+r+r+r+r+r+r+r+r+r+r+r+r+q+p+6+h+g+f+o+n+n+m+s+          ",
"          t+u+v+w+w+n+n+x+o+o+y+z+z+z+z+z+z+z+z+z+z+z+z+z+z+z+z+y+o+o+x+n+n+w+w+v+u+A+          ",
"          B+C+D+E+E+v+w+w+F+F+G+H+H+H+H+H+H+H+H+H+H+H+H+H+H+H+H+G+F+F+w+w+v+E+E+D+C+I+          ",
"            J+K+L+M+N+E+E+E+O+P+Q+Q+Q+Q+Q+Q+Q+Q+Q+Q+Q+Q+Q+Q+Q+Q+P+O+E+E+E+N+M+L+K+R+            ",
"            S+T+U+V+W+W+M+M+X+Y+Z+Z+Z+Z+`+`+`+`+`+`+`+`+Z+Z+Z+Z+Y+X+M+M+W+W+V+U+T+ @            ",
"              .@+@@@@@#@V+V+$@%@&@*@Y+Y+Y+Y+Y+Y+Y+Y+Y+Y+Y+Y+*@&@=@$@V+V+#@@@@@+@-@              ",
"              ;@>@,@'@)@)@@@@@#@)@)@@@@@@@!@!@!@!@!@!@@@@@@@)@)@#@@@@@)@)@'@,@~@{@              ",
"                ]@^@/@(@(@_@'@'@:@)@)@@@@@@@@@@@@@@@@@@@@@)@)@:@'@'@_@(@(@/@<@[@                ",
"                  }@|@_@1@1@2@2@(@(@(@_@_@_@'@'@'@'@_@_@_@(@(@(@2@2@1@1@_@3@4@                  ",
"                    5@6@7@8@8@9@9@1@1@1@1@1@1@1@1@1@1@1@1@1@1@9@9@8@8@7@6@0@                    ",
"                    a@b@c@d@e@e@f@g@8@8@8@8@8@8@8@8@8@8@8@8@g@f@e@e@d@h@i@j@                    ",
"                      k@l@m@n@o@p@p@q@q@e@e@e@e@e@e@e@e@q@q@p@p@o@n@r@s@t@                      ",
"                          u@v@w@c@x@y@z@z@z@A@A@A@A@z@z@z@y@x@c@B@C@D@                          ",
"                            E@F@G@H@I@c@J@K@L@y@y@M@K@J@c@I@H@G@N@O@                            ",
"                                P@Q@R@S@T@U@V@W@W@X@U@T@Y@Z@`@P@                                ",
"                                       #.#+#@#####@#$#.# #                                      ",
"                                                                                                ",
"                                                                                                ",
"                                                                                                "};
