/* XPM */
static char * media_seek_forward_xpm[] = {
"48 48 245 2",
"  	c None",
". 	c #0000FF",
"+ 	c #008080",
"@ 	c #0055AA",
"# 	c #004080",
"$ 	c #0040BF",
"% 	c #002BAA",
"& 	c #002492",
"* 	c #004992",
"= 	c #00398E",
"- 	c #002EA2",
"; 	c #002B95",
"> 	c #003399",
", 	c #00309F",
"' 	c #002D96",
") 	c #002E97",
"! 	c #002C95",
"~ 	c #003399",
"{ 	c #002C99",
"] 	c #00329C",
"^ 	c #003098",
"/ 	c #003198",
"( 	c #002E99",
"_ 	c #00319D",
": 	c #05369D",
"< 	c #00309F",
"[ 	c #05359F",
"} 	c #0432A3",
"| 	c #0836A3",
"1 	c #0435A1",
"2 	c #0438A1",
"3 	c #0437A3",
"4 	c #043BA3",
"5 	c #0B39A2",
"6 	c #0B3DA2",
"7 	c #0338A1",
"8 	c #073AA3",
"9 	c #0339A1",
"0 	c #0B3FA6",
"a 	c #1044AB",
"b 	c #0A40A6",
"c 	c #0C42A8",
"d 	c #0E44AB",
"e 	c #0C41A9",
"f 	c #1046A9",
"g 	c #0E43AA",
"h 	c #1045AC",
"i 	c #0D43A9",
"j 	c #0F48AE",
"k 	c #1851B3",
"l 	c #114AAE",
"m 	c #114CB0",
"n 	c #1851B1",
"o 	c #1851B3",
"p 	c #144CB1",
"q 	c #184FB5",
"r 	c #124BAF",
"s 	c #1650B2",
"t 	c #1751B3",
"u 	c #174EB2",
"v 	c #154FB5",
"w 	c #245EBD",
"x 	c #1853B7",
"y 	c #1149B1",
"z 	c #2661BD",
"A 	c #1D56B8",
"B 	c #1954B9",
"C 	c #1C57B9",
"D 	c #1B58B8",
"E 	c #2059BA",
"F 	c #2863C0",
"G 	c #2561BE",
"H 	c #2661BF",
"I 	c #2861BE",
"J 	c #144DB4",
"K 	c #154FB4",
"L 	c #1750B6",
"M 	c #1751B6",
"N 	c #1851B6",
"O 	c #1853B6",
"P 	c #1953B7",
"Q 	c #1954B7",
"R 	c #1B54B7",
"S 	c #1B55B7",
"T 	c #1C55B8",
"U 	c #1C57B8",
"V 	c #1D58BA",
"W 	c #1F59BA",
"X 	c #1F59BB",
"Y 	c #205BBB",
"Z 	c #2560BE",
"` 	c #225DBE",
" .	c #3772C8",
"..	c #3872C8",
"+.	c #2868C6",
"@.	c #2566C3",
"#.	c #2868C4",
"$.	c #2361C0",
"%.	c #3C79CD",
"&.	c #3F7ACE",
"*.	c #3975CB",
"=.	c #3C77CC",
"-.	c #215FC0",
";.	c #2261C0",
">.	c #2D6EC9",
",.	c #2E6ECA",
"'.	c #528ED8",
").	c #538ED8",
"!.	c #3172CE",
"~.	c #3779D2",
"{.	c #3274CE",
"].	c #5791DB",
"^.	c #5F98DF",
"/.	c #558FDA",
"(.	c #5D94DD",
"_.	c #5D95DE",
":.	c #558EDA",
"<.	c #568FDA",
"[.	c #4084DA",
"}.	c #3C84DB",
"|.	c #3F86DD",
"1.	c #75ADE9",
"2.	c #4084D9",
"3.	c #4589DC",
"4.	c #468CDF",
"5.	c #71A9E7",
"6.	c #74ACE9",
"7.	c #7AB0EA",
"8.	c #75AAE6",
"9.	c #77ACE7",
"0.	c #4193EB",
"a.	c #4194EC",
"b.	c #4397ED",
"c.	c #4596EC",
"d.	c #4597ED",
"e.	c #4599EE",
"f.	c #4699EE",
"g.	c #479BEF",
"h.	c #489CEF",
"i.	c #4991E3",
"j.	c #499DF0",
"k.	c #4A92E5",
"l.	c #4A9BEE",
"m.	c #4B9FF1",
"n.	c #4C9DEF",
"o.	c #4C9FF1",
"p.	c #4D96E7",
"q.	c #4D9FF0",
"r.	c #4DA1F2",
"s.	c #4E90E2",
"t.	c #4E98E7",
"u.	c #4EA2F2",
"v.	c #4FA2F2",
"w.	c #4FA3F3",
"x.	c #50A4F3",
"y.	c #519CEB",
"z.	c #51A1F0",
"A.	c #51A4F3",
"B.	c #51A5F4",
"C.	c #529DED",
"D.	c #529EED",
"E.	c #529FEE",
"F.	c #52A3F2",
"G.	c #52A5F4",
"H.	c #53A0EF",
"I.	c #53A8F6",
"J.	c #549FEE",
"K.	c #54A4F2",
"L.	c #559CEA",
"M.	c #55AAF7",
"N.	c #5699E6",
"O.	c #569BE8",
"P.	c #56A0EE",
"Q.	c #56A1EF",
"R.	c #56A2EF",
"S.	c #57A5F1",
"T.	c #57AAF6",
"U.	c #57ABF7",
"V.	c #57ACF8",
"W.	c #58A5F1",
"X.	c #58ABF6",
"Y.	c #58ACF8",
"Z.	c #59A9F5",
"`.	c #59AEF9",
" +	c #5AA8F3",
".+	c #5AAAF5",
"++	c #5BB0FA",
"@+	c #5CA5EF",
"#+	c #5CA8F2",
"$+	c #5CA9F2",
"%+	c #5DA7F1",
"&+	c #5DAAF4",
"*+	c #5DB1FA",
"=+	c #5EAAF4",
"-+	c #5EB1F9",
";+	c #5EB2FB",
">+	c #5FAAF3",
",+	c #60AAF2",
"'+	c #60ADF5",
")+	c #61A9F2",
"!+	c #62A9F1",
"~+	c #63B0F7",
"{+	c #65B2F8",
"]+	c #68B4F9",
"^+	c #6BB7FA",
"/+	c #6DB9FB",
"(+	c #70BBFC",
"_+	c #72BDFD",
":+	c #5FA2EC",
"<+	c #5FA2ED",
"[+	c #63A5EE",
"}+	c #64A9F0",
"|+	c #65A7EF",
"1+	c #66A8EF",
"2+	c #7CBEF9",
"3+	c #83C5FC",
"4+	c #84BEF6",
"5+	c #86C6FC",
"6+	c #88C1F7",
"7+	c #89BEF2",
"8+	c #8ABEF2",
"9+	c #8BC6F9",
"0+	c #8CBEF1",
"a+	c #8CBEF2",
"b+	c #8CC0F3",
"c+	c #8EC0F3",
"d+	c #8FCAFC",
"e+	c #98CBFA",
"f+	c #9AC9F6",
"g+	c #9BCAF7",
"h+	c #9BCDFA",
"i+	c #9CCEF9",
"j+	c #9DCAF7",
"k+	c #9DCDF8",
"l+	c #9ECDF9",
"m+	c #9ED1FC",
"n+	c #9FCEF8",
"o+	c #9FCEF9",
"p+	c #9FD1FC",
"q+	c #A1CEF9",
"r+	c #A3D2FB",
"s+	c #A5D3FB",
"t+	c #A5D6FE",
"u+	c #A6D6FE",
"v+	c #A7D5FC",
"                                                                                                ",
"                                                                                                ",
"                                                                                                ",
"                                                                                                ",
"                                                                                                ",
"                                                                                                ",
"                                                                                                ",
"                                                                                                ",
"                                                                                                ",
"                                                                                                ",
"                                                                                                ",
"                                                                                                ",
"                                                                                                ",
"            A w                                 A w                                             ",
"            Y k+).k                             Y i+'.k                                         ",
"            W _+t+8+..                          W _+u+7+ .                                      ",
"            W (+;+3+v+6.F                       W (+;+5+v+1.z                                   ",
"            V /+++++*+d+l+].o                   V /+++++*+d+l+].n                               ",
"            V ^+`.`.`.`.-+p+0+*.                V ^+`.`.`.`.-+m+b+%.                            ",
"            U ]+V.V.V.V.V.Y.2+r+5.G             U ]+V.V.V.V.V.Y.2+s+7.H                         ",
"            U {+M.M.M.M.M.M.M.U.9+g+/.q         U {+M.M.M.M.M.M.M.U.9+n+^.s                     ",
"            T ~+I.I.I.I.I.I.I.I.I.X.h+a+=.      T ~+I.I.I.I.I.I.I.I.I.T.e+c+&.                  ",
"            S '+B.B.B.B.B.B.B.B.B.B.G..+q+8.Z   S '+B.B.B.B.B.B.B.B.B.B.B.Z.o+9.I               ",
"            R &+w.w.w.w.w.w.w.w.w.w.w.w.A.6+f+<.;.&+w.w.w.w.w.w.w.w.w.w.w.w.x.4+j+_.t           ",
"            Q =+r.r.r.r.r.r.r.r.r.r.r.r.v. +@+:.-.=+r.r.r.r.r.r.r.r.r.r.r.r.u. +%+(.u           ",
"            P >+m.m.m.m.m.m.m.m.m.m.o.K.#+3.X   P >+m.m.m.m.m.m.m.m.m.m.m.F.$+4.E               ",
"            O ,+j.j.j.j.j.j.j.j.j.q.W.p.#.      O ,+j.j.j.j.j.j.j.j.j.q.S.t.+.                  ",
"            N )+g.g.g.g.g.g.g.h.z.y.{.p         N )+g.g.g.g.g.g.g.h.z.D.~.r                     ",
"            M !+e.e.e.e.e.f.n.E.}.D             M !+e.e.e.e.e.f.n.H.|.C                         ",
"            L }+b.b.b.b.l.R.i.$.                L }+b.b.b.b.l.Q.k.@.                            ",
"            K 1+a.a.d.P.L.!.m                   K 1+a.a.c.J.L.!.l                               ",
"            K |+0.C.<+2.B                       K |+0.C.:+[.x                                   ",
"            J [+<+s.`                           J [+<+s.`                                       ",
"            J N.>.j                             J O.,.j                                         ",
"            y v                                 y v                                             ",
"                                                                                                ",
"                                                                                                ",
"                                                                                                ",
"                                                                                                ",
"                                                                                                ",
"                                                                                                ",
"                                                                                                ",
"                                                                                                ",
"                                                                                                ",
"                                                                                                ",
"                                                                                                ",
"                                                                                                ",
"                                                                                                "};
