/* XPM */
static char * window_close_xpm[] = {
"48 48 155 2",
"  	c None",
". 	c #4F4F4F",
"+ 	c #505050",
"@ 	c #565656",
"# 	c #868886",
"$ 	c #535353",
"% 	c #5A5A5A",
"& 	c #868786",
"* 	c #585A58",
"= 	c #9FA09E",
"- 	c #A1A2A0",
"; 	c #989998",
"> 	c #A2A2A1",
", 	c #A0A2A0",
"' 	c #959694",
") 	c #525252",
"! 	c #4E4E4E",
"~ 	c #5E5E5E",
"{ 	c #A0A1A0",
"] 	c #8B8C8A",
"^ 	c #757774",
"/ 	c #939492",
"( 	c #9A9B99",
"_ 	c #5B5B5B",
": 	c #A0A19F",
"< 	c #8B8D8A",
"[ 	c #929491",
"} 	c #999A98",
"| 	c #555655",
"1 	c #636363",
"2 	c #A2A3A1",
"3 	c #858785",
"4 	c #747673",
"5 	c #8F908E",
"6 	c #575757",
"7 	c #5D5E5D",
"8 	c #888987",
"9 	c #8C8E8B",
"0 	c #9D9E9D",
"a 	c #6B6C6B",
"b 	c #818380",
"c 	c #737572",
"d 	c #9A9C9A",
"e 	c #595A59",
"f 	c #9E9F9E",
"g 	c #868885",
"h 	c #9E9F9D",
"i 	c #60605F",
"j 	c #50504E",
"k 	c #747574",
"l 	c #7B7D7A",
"m 	c #727471",
"n 	c #898B88",
"o 	c #848583",
"p 	c #828481",
"q 	c #5D5D5C",
"r 	c #7B7C7A",
"s 	c #787A77",
"t 	c #717370",
"u 	c #9A9B9A",
"v 	c #606060",
"w 	c #9D9E9C",
"x 	c #6B6D6A",
"y 	c #70726F",
"z 	c #818381",
"A 	c #9B9C9A",
"B 	c #5F5F5E",
"C 	c #9C9D9B",
"D 	c #80817F",
"E 	c #5B5C5B",
"F 	c #6B6C6A",
"G 	c #6F716E",
"H 	c #7F817E",
"I 	c #606160",
"J 	c #626262",
"K 	c #999A99",
"L 	c #7E7F7D",
"M 	c #5C5D5C",
"N 	c #696B68",
"O 	c #6E706D",
"P 	c #7C7D7B",
"Q 	c #989997",
"R 	c #636362",
"S 	c #626362",
"T 	c #7C7E7B",
"U 	c #5D5E5C",
"V 	c #686967",
"W 	c #6D6F6C",
"X 	c #7A7B79",
"Y 	c #979896",
"Z 	c #797B78",
"` 	c #5F605E",
" .	c #666865",
"..	c #6C6E6B",
"+.	c #787977",
"@.	c #656664",
"#.	c #606260",
"$.	c #636563",
"%.	c #6A6C69",
"&.	c #626361",
"*.	c #616360",
"=.	c #616361",
"-.	c #686A67",
";.	c #818280",
">.	c #676966",
",.	c #515151",
"'.	c #7F817F",
").	c #7E807D",
"!.	c #7F807E",
"~.	c #656764",
"{.	c #7D7F7C",
"].	c #646663",
"^.	c #7F807F",
"/.	c #777876",
"(.	c #636562",
"_.	c #555555",
":.	c #7E807E",
"<.	c #626461",
"[.	c #737472",
"}.	c #7F7F7E",
"|.	c #5C5E5C",
"1.	c #7D7E7C",
"2.	c #6C6E6C",
"3.	c #60625F",
"4.	c #5C5D5B",
"5.	c #5C5E5B",
"6.	c #565655",
"7.	c #4D4D4D",
"8.	c #585958",
"9.	c #5F615E",
"0.	c #5B5D5A",
"a.	c #5A5C59",
"b.	c #565756",
"c.	c #585858",
"d.	c #7A7B7A",
"e.	c #5E605D",
"f.	c #595B59",
"g.	c #5D5F5C",
"h.	c #595A58",
"i.	c #4F4F4E",
"j.	c #585957",
"k.	c #505150",
"l.	c #4F504F",
"m.	c #575956",
"n.	c #565856",
"o.	c #575957",
"p.	c #595B58",
"q.	c #565755",
"r.	c #565855",
"s.	c #585A57",
"t.	c #555654",
"u.	c #575856",
"v.	c #4D4E4D",
"w.	c #525452",
"x.	c #4C4C4C",
"                                                                                                ",
"                                                                                                ",
"                                                                                                ",
"                                                                                                ",
"                                                                                                ",
"                                                                                                ",
"                                                                                                ",
"                                                                                                ",
"                                                                                                ",
"                                                                                                ",
"                          .                                         +                           ",
"                        @ # $                                     % & +                         ",
"                      * = - ; $                                 % > , ' )                       ",
"                  ! ~ { ] ^ / ( @                             _ : < ^ [ } |                     ",
"                . 1 2 3 4 4 4 5 ( 6                       ! 7 : 8 4 4 4 9 0 _ .                 ",
"              ! a , b c c c c c < d e !                 . ~ f g c c c c c g h i j               ",
"            . k = l m m m m m m m n ( % .             ! 7 h o m m m m m m m p h q +             ",
"            . r s t t t t t t t t t g u _ .         ! v w b t t t t t t t t t s * +             ",
"              + x y y y y y y y y y y z A B .     . v C D y y y y y y y y y y E .               ",
"                + F G G G G G G G G G G H } I ! . J K L G G G G G G G G G G M .                 ",
"                  . N O O O O O O O O O O P Q R S Q T O O O O O O O O O O U .                   ",
"                    . V W W W W W W W W W W X Y Y Z W W W W W W W W W W ` .                     ",
"                      .  .....................+.+.....................I .                       ",
"                        . @.x x x x x x x x x x x x x x x x x x x x #.!                         ",
"                          . $.%.%.%.%.%.%.%.%.%.%.%.%.%.%.%.%.%.%.#.!                           ",
"                            ! &.N N N N N N N N N N N N N N N N *..                             ",
"                              . =.-.-.-.-.-.-.-.-.-.-.-.-.-.-.=.!                               ",
"                                ) ;.x >.>.>.>.>.>.>.>.>.>.x H ,.                                ",
"                              + '.). . . . . . . . . . . .>.H !.+                               ",
"                            ) D T ~.~.~.~.~.~.~.~.~.~.~.~.~. .{.!.+                             ",
"                          ) !.s ].].].].].].].].].].].].].].].].Z ^.)                           ",
"                        $ './.(.(.(.(.(.(.(.(.(.(.(.(.(.(.(.(.(.(.^ ).$                         ",
"                      _.:.m <.<.<.<.<.<.<.<.<.<.<.<.<.<.<.<.<.<.<.<.[.}.$                       ",
"                  ! _.L y *.*.*.*.*.*.*.*.*.*.|.U *.*.*.*.*.*.*.*.*.*.y T _.                    ",
"                ! 6 1.2.3.3.3.3.3.3.3.3.3.3.4.! . 5.3.3.3.3.3.3.3.3.3.3.O P 6.                  ",
"              7.8.l %.9.9.9.9.9.9.9.9.9.9.0.!     7.a.9.9.9.9.9.9.9.9.9.9.%.l b.7.              ",
"            7.c.d.-.e.e.e.e.e.e.e.e.e.e.a.!         7.f.e.e.e.e.e.e.e.e.e.e.N Z @ .             ",
"            ! %.~.g.g.g.g.g.g.g.g.g.g.h.7.            i.f.g.g.g.g.g.g.g.g.g.g. .-.!             ",
"            ! ,.0.5.5.5.5.5.5.5.5.5.h.!                 7.j.5.5.5.5.5.5.5.5.5.0.k.!             ",
"              ! l.a.0.0.0.0.0.0.0.j.!                     7.m.0.0.0.0.0.0.0.a.. 7.              ",
"                  ! * a.a.a.a.a.m.7.                        7.n.a.a.a.a.a.* i.                  ",
"                    ! o.p.p.p.n.7.                            7.q.p.p.p.o.7.                    ",
"                      ! r.s.q.7.                                7.t.s.u.v.                      ",
"                        7.w.7.                                    7.w.7.                        ",
"                          x.                                        x.                          ",
"                                                                                                ",
"                                                                                                ",
"                                                                                                "};
